<svg id="Layer_1" data-name="Layer 1" xmlns="http://www.w3.org/2000/svg" xmlns:xlink="http://www.w3.org/1999/xlink" width="125.57" height="18.68" viewBox="0 0 125.57 18.68">
  <defs>
    <style>
      .cls-1 {
        fill: none;
      }

      .cls-2, .cls-3, .cls-6 {
        fill: #647689;
      }

      .cls-2 {
        clip-rule: evenodd;
      }

      .cls-4 {
        fill: #fff;
      }

      .cls-5 {
        clip-path: url(#clip-path);
      }

      .cls-6 {
        fill-rule: evenodd;
      }

      .cls-7 {
        clip-path: url(#clip-path-2);
      }

      .cls-8 {
        clip-path: url(#clip-path-3);
      }

      .cls-9 {
        clip-path: url(#clip-path-4);
      }

      .cls-10 {
        clip-path: url(#clip-path-5);
      }

      .cls-11 {
        clip-path: url(#clip-path-6);
      }

      .cls-12 {
        clip-path: url(#clip-path-7);
      }

      .cls-13 {
        clip-path: url(#clip-path-8);
      }

      .cls-14 {
        clip-path: url(#clip-path-9);
      }

      .cls-15 {
        clip-path: url(#clip-path-10);
      }

      .cls-16 {
        clip-path: url(#clip-path-11);
      }

      .cls-17 {
        clip-path: url(#clip-path-12);
      }

      .cls-18 {
        clip-path: url(#clip-path-13);
      }

      .cls-19 {
        clip-path: url(#clip-path-14);
      }

      .cls-20 {
        clip-path: url(#clip-path-15);
      }

      .cls-21 {
        clip-path: url(#clip-path-16);
      }

      .cls-22 {
        clip-path: url(#clip-path-17);
      }

      .cls-23 {
        clip-path: url(#clip-path-18);
      }

      .cls-24 {
        clip-path: url(#clip-path-19);
      }

      .cls-25 {
        clip-path: url(#clip-path-20);
      }

      .cls-26 {
        clip-path: url(#clip-path-21);
      }

      .cls-27 {
        clip-path: url(#clip-path-22);
      }

      .cls-28 {
        clip-path: url(#clip-path-23);
      }

      .cls-29 {
        clip-path: url(#clip-path-24);
      }

      .cls-30 {
        clip-path: url(#clip-path-25);
      }

      .cls-31 {
        clip-path: url(#clip-path-26);
      }

      .cls-32 {
        clip-path: url(#clip-path-27);
      }

      .cls-33 {
        clip-path: url(#clip-path-28);
      }

      .cls-34 {
        clip-path: url(#clip-path-29);
      }

      .cls-35 {
        clip-path: url(#clip-path-30);
      }

      .cls-36 {
        clip-path: url(#clip-path-31);
      }

      .cls-37 {
        clip-path: url(#clip-path-32);
      }

      .cls-38 {
        clip-path: url(#clip-path-33);
      }

      .cls-39 {
        clip-path: url(#clip-path-34);
      }

      .cls-40 {
        clip-path: url(#clip-path-35);
      }

      .cls-41 {
        clip-path: url(#clip-path-36);
      }

      .cls-42 {
        clip-path: url(#clip-path-37);
      }

      .cls-43 {
        clip-path: url(#clip-path-38);
      }
    </style>
    <clipPath id="clip-path">
      <rect class="cls-1" x="82.3" y="-1259.63" width="23.39" height="20.48"/>
    </clipPath>
    <clipPath id="clip-path-2">
      <path class="cls-2" d="M102.6-1267.34a1,1,0,0,0-.54.09,4.46,4.46,0,0,0-.36,1c-.09-.27-.18-.63-.45-.73s-.54.37-.63.82a1.43,1.43,0,0,0,.09.91.32.32,0,0,0,.45.09.91.91,0,0,1-.81.54c-.18,0-.45-.09-.81-.09l-.54-.18c-.09,0-.18-.09-.26-.18a.67.67,0,0,1-.09-.45v-.37c.26.19.53.37.8.27a1.15,1.15,0,0,0,.54-.72c.18-.54.09-1.09-.18-1.18a.6.6,0,0,0-.81.27,4.09,4.09,0,0,1,.9-1.18H100v-.09l-.27-.27a2.24,2.24,0,0,0,.36-1.09,2.91,2.91,0,0,1,2.43.18,1.18,1.18,0,0,1,.45,1A2.8,2.8,0,0,1,102.6-1267.34Zm-4.4-.45v.36c-.18-.27-.45-.63-.81-.54s-.45.45-.54.9.18,1,.45,1.09a.74.74,0,0,0,.63,0c-.09.28-.45.82-.9.82l-.9-.09-.81-.09c-.72,0-.9-1-.9-1.18,0,0,.36.36.63.36.09.09.18.09.36,0A1.42,1.42,0,0,0,96-1267a1.84,1.84,0,0,0,0-1l-.27-.28H95.5a1.5,1.5,0,0,0-.81.37H94.6v-.09l.18-.28a2,2,0,0,0,.27-.45c.09-.18.09-.45-.09-.54a.84.84,0,0,0-.54-.37v-.45a5,5,0,0,0,1.89-.54c.81-.28,1.53-.64,2.16-.37a1.31,1.31,0,0,1,.71,1.27,2,2,0,0,1-.09.73,1.26,1.26,0,0,0-.62.18C98.29-1268.7,98.2-1268.43,98.2-1267.79Zm-4.58-1.82a1.36,1.36,0,0,0-.63.37.55.55,0,0,0-.09.54.88.88,0,0,0,.35.45l.09.28c.09.09,0,.09,0,.09a1.45,1.45,0,0,0-.8-.37h-.18c-.18.1-.27.19-.27.28a1.24,1.24,0,0,0-.09,1c.18.37.36.73.63.82a.27.27,0,0,0,.36,0c.26,0,.53-.36.53-.36h.1c-.1.18-.28,1.18-.9,1.18l-.9.09-.9.09c-.45,0-.72-.54-.9-.82a1,1,0,0,0,.72,0c.27-.09.45-.54.36-1.09s-.27-.9-.54-.9-.63.27-.72.54c-.09-.09-.09-.36-.09-.36,0-.64,0-.91-.27-1a1,1,0,0,0-.63-.18,2,2,0,0,1-.09-.73,1.46,1.46,0,0,1,.72-1.27c.63-.27,1.44.09,2.25.37a5,5,0,0,0,1.89.54Zm-4.41,4.54c-.09.09-.18.18-.27.18l-.54.18c-.27,0-.62.09-.8.09a.91.91,0,0,1-.81-.54.32.32,0,0,0,.45-.09,1,1,0,0,0,.09-.91c-.09-.45-.36-.82-.63-.82a1.5,1.5,0,0,0-.45.73,2.25,2.25,0,0,0-.36-1,.67.67,0,0,0-.45-.09,3,3,0,0,1-.45-1.36,1.28,1.28,0,0,1,.54-1,2.69,2.69,0,0,1,2.33-.18,3.88,3.88,0,0,0,.36,1.09c-.09.09-.18.18-.18.27v.09a3.17,3.17,0,0,1,1,1.18c-.18-.18-.45-.45-.81-.27s-.36.64-.18,1.18a1.08,1.08,0,0,0,.45.72.86.86,0,0,0,.81-.27c0,.09.09.19.09.37A.69.69,0,0,1,89.21-1265.07Zm14.82-1.18a1.3,1.3,0,0,0-.8-1,2.7,2.7,0,0,0,.62-1.72v-.27a1.6,1.6,0,0,0-.71-1.18,3.15,3.15,0,0,0-3-.18,1.82,1.82,0,0,0-1.61-1.46,4.61,4.61,0,0,0-2.52.73,3.07,3.07,0,0,1-1.62.64v-.37a1.47,1.47,0,0,0,1-1.36,1.37,1.37,0,0,0-1.08-1.36v-.54h.36c.09.18.18.27.36.27a.51.51,0,0,0,.45-.55.5.5,0,0,0-.45-.54c-.18,0-.27.09-.36.27h-.36v-.36a.69.69,0,0,0,.18-.46.5.5,0,0,0-.54-.45.43.43,0,0,0-.45.45c0,.19,0,.37.18.46v.36h-.36a.49.49,0,0,0-.44-.27.5.5,0,0,0-.45.54.51.51,0,0,0,.45.55.49.49,0,0,0,.44-.27h.28v.54a1.37,1.37,0,0,0-1.08,1.36,1.44,1.44,0,0,0,1.08,1.36v.37a3.08,3.08,0,0,1-1.71-.64,4.31,4.31,0,0,0-2.43-.73,1.72,1.72,0,0,0-1.62,1.46,3.12,3.12,0,0,0-3,.18,1.76,1.76,0,0,0-.81,1.18v.27a2.72,2.72,0,0,0,.63,1.72,1.21,1.21,0,0,0-.72,1l-.09.09H84s1.53.18,1.89.64a2.33,2.33,0,0,1,.54,1.27v.09a1.27,1.27,0,0,0,.45.27h.18v.18l.09,2.45H100.8l.09-2.45v-.18h.27c.18-.09.45-.27.45-.27v-.09a2.33,2.33,0,0,1,.54-1.27c.36-.46,1.79-.64,1.79-.64H104Z"/>
    </clipPath>
    <clipPath id="clip-path-3">
      <polygon class="cls-2" points="166.46 -1260.97 166.46 -1249.58 168.05 -1249.58 168.05 -1253.46 171.86 -1249.58 174.07 -1249.58 169.65 -1253.92 173.63 -1257.36 171.42 -1257.36 168.05 -1254.28 168.05 -1260.97 166.46 -1260.97"/>
    </clipPath>
    <clipPath id="clip-path-4">
      <rect class="cls-3" x="147.51" y="-1260.7" width="1.77" height="1.72"/>
    </clipPath>
    <clipPath id="clip-path-5">
      <rect class="cls-3" x="133.53" y="-1260.7" width="1.86" height="1.72"/>
    </clipPath>
    <clipPath id="clip-path-6">
      <polygon class="cls-2" points="122.55 -1260.16 118.92 -1250.93 118.83 -1250.93 115.2 -1260.16 113.25 -1260.16 117.68 -1249.58 119.89 -1249.58 124.32 -1260.16 122.55 -1260.16"/>
    </clipPath>
    <clipPath id="clip-path-7">
      <rect class="cls-3" x="147.6" y="-1257.36" width="1.59" height="7.78"/>
    </clipPath>
    <clipPath id="clip-path-8">
      <path class="cls-2" d="M130-1254.19h-4.34a2.19,2.19,0,0,1,2.21-2.08,2.07,2.07,0,0,1,2.13,2.08m-4.34,1.09h6.11c0-2.18-.8-4.44-3.81-4.44a3.79,3.79,0,0,0-4.07,4c0,2.72,1.68,4.16,4.43,4.16a8.13,8.13,0,0,0,2.74-.45v-1.63a5.31,5.31,0,0,1-2.66.73,2.49,2.49,0,0,1-2.74-2.35"/>
    </clipPath>
    <clipPath id="clip-path-9">
      <path class="cls-2" d="M163-1254.19h-4.34a2.19,2.19,0,0,1,2.21-2.08,2.07,2.07,0,0,1,2.13,2.08m-4.34,1.09h6c0-2.18-.71-4.44-3.72-4.44a3.79,3.79,0,0,0-4.07,4c0,2.72,1.68,4.16,4.43,4.16a8.61,8.61,0,0,0,2.74-.45v-1.63a5.28,5.28,0,0,1-2.66.73,2.49,2.49,0,0,1-2.74-2.35"/>
    </clipPath>
    <clipPath id="clip-path-10">
      <path class="cls-2" d="M217.46-1254.19h-4.25a2.18,2.18,0,0,1,2.21-2.08,2,2,0,0,1,2,2.08m-4.25,1.09h6c0-2.18-.7-4.44-3.8-4.44a3.76,3.76,0,0,0-4,4c0,2.72,1.68,4.16,4.42,4.16a8.62,8.62,0,0,0,2.75-.45v-1.63a5.31,5.31,0,0,1-2.66.73,2.49,2.49,0,0,1-2.74-2.35"/>
    </clipPath>
    <clipPath id="clip-path-11">
      <path class="cls-2" d="M133.62-1257.36h1.59v8.06c0,2.53-1,3.07-2.48,3.07h-1l.09-1.36a1.68,1.68,0,0,0,.62.09c.62,0,1.15-.27,1.15-1.62Z"/>
    </clipPath>
    <clipPath id="clip-path-12">
      <path class="cls-2" d="M143.44-1256.36V-1261H145v11.39h-1.51v-1a3.71,3.71,0,0,1-2.92,1.17c-2.3,0-3.72-1.71-3.72-4.16s1.51-4,3.72-4a3.2,3.2,0,0,1,2.83,1.18m-2.47.09c-1.42,0-2.39,1-2.39,2.71s.88,3,2.39,3a2.6,2.6,0,0,0,2.47-2.89,2.58,2.58,0,0,0-2.47-2.81"/>
    </clipPath>
    <clipPath id="clip-path-13">
      <path class="cls-2" d="M153.36-1249.58h-1.68v-7.78h1.59v1.18a2.56,2.56,0,0,1,2.21-1.36c.45,0,.8.09,1.07.09v1.45a1.45,1.45,0,0,0-.89-.18c-1.24,0-2.3.81-2.3,3.17Z"/>
    </clipPath>
    <clipPath id="clip-path-14">
      <path class="cls-2" d="M192.67-1249.58h-1.6v-7.78h1.51v1.18a2.56,2.56,0,0,1,2.21-1.36c.45,0,.89.09,1.06.09v1.45a1.29,1.29,0,0,0-.88-.18c-1.24,0-2.3.81-2.3,3.17Z"/>
    </clipPath>
    <clipPath id="clip-path-15">
      <path class="cls-2" d="M176-1256.09h-1.86v-1.27H176v-1.71l1.6-.55v2.26h2.21v1.27h-2.21v4.07c0,.91.35,1.45,1.32,1.45a1.7,1.7,0,0,0,1.07-.36v1.35a3.9,3.9,0,0,1-1.42.19c-1.15,0-2.57-.55-2.57-2.18Z"/>
    </clipPath>
    <clipPath id="clip-path-16">
      <path class="cls-2" d="M206.57-1256.09H204.8v-1.27h1.77v-1.71l1.68-.55v2.26h2.21v1.27h-2.21v4.07c0,.91.35,1.45,1.24,1.45a1.68,1.68,0,0,0,1.06-.36v1.35a3.42,3.42,0,0,1-1.33.19c-1.15,0-2.65-.55-2.65-2.18Z"/>
    </clipPath>
    <clipPath id="clip-path-17">
      <rect class="cls-1" x="219.85" y="-1259.62" width="5.75" height="10.22"/>
    </clipPath>
    <clipPath id="clip-path-18">
      <path class="cls-2" d="M180.71-1253.47a4,4,0,0,0,4.34,4.08c2.66,0,4.43-1.63,4.43-4.08s-1.77-4.07-4.43-4.07a4,4,0,0,0-4.34,4.07m1.69,0a2.55,2.55,0,0,1,2.65-2.8,2.58,2.58,0,0,1,2.75,2.8,2.61,2.61,0,0,1-2.75,2.9c-1.86,0-2.65-1.36-2.65-2.9"/>
    </clipPath>
    <clipPath id="clip-path-19">
      <path class="cls-2" d="M200.1-1257.54c2.13,0,3.46.82,3.46,3.35v4.61h-1.51v-.9a3.2,3.2,0,0,1-2.57,1.08c-1.5,0-3.18-.45-3.18-2.44,0-1.63,1.77-2.53,4.07-2.53H202c0-1.18-.44-1.81-2.12-1.81a4.85,4.85,0,0,0-2.57.81V-1257a5.79,5.79,0,0,1,2.83-.55m.89,4.26c-1.33,0-3,.27-3,1.44,0,.73.53,1.27,1.59,1.27s2.39-.45,2.39-2v-.63c-.35,0-.79-.09-1-.09"/>
    </clipPath>
    <clipPath id="clip-path-20">
      <rect class="cls-1" x="-685.76" y="-365.19" width="23.39" height="20.48"/>
    </clipPath>
    <clipPath id="clip-path-21">
      <path class="cls-2" d="M-665.46-372.9a1,1,0,0,0-.54.09,5,5,0,0,0-.35,1c-.09-.27-.18-.63-.45-.73s-.54.37-.63.82a1.43,1.43,0,0,0,.09.91.32.32,0,0,0,.45.09.91.91,0,0,1-.81.54c-.18,0-.45-.09-.81-.09l-.54-.18c-.09,0-.18-.09-.27-.18a.67.67,0,0,1-.09-.45v-.37c.27.18.54.37.81.27a1.18,1.18,0,0,0,.54-.72c.18-.54.09-1.09-.18-1.18a.6.6,0,0,0-.81.27,4.09,4.09,0,0,1,.9-1.18h.09v-.09l-.27-.27a2.24,2.24,0,0,0,.36-1.09,2.91,2.91,0,0,1,2.43.18,1.18,1.18,0,0,1,.44,1A2.8,2.8,0,0,1-665.46-372.9Zm-4.4-.45v.36c-.18-.27-.45-.63-.81-.55s-.45.46-.54.91.19,1,.45,1.09a.74.74,0,0,0,.63,0c-.09.27-.45.82-.89.82l-.9-.09-.81-.09c-.72,0-.9-1-.9-1.18,0,0,.36.36.63.36.09.09.18.09.36,0a1.42,1.42,0,0,0,.54-.82,1.88,1.88,0,0,0,0-1c-.09-.08-.18-.18-.27-.27h-.18a1.43,1.43,0,0,0-.81.37h-.09v-.1l.18-.27a2,2,0,0,0,.27-.45c.09-.18.09-.45-.09-.54a.8.8,0,0,0-.54-.37v-.45a5,5,0,0,0,1.89-.54c.8-.28,1.52-.64,2.15-.37a1.3,1.3,0,0,1,.72,1.27,2,2,0,0,1-.09.73,1.3,1.3,0,0,0-.63.18C-669.77-374.26-669.86-374-669.86-373.35Zm-4.58-1.82a1.37,1.37,0,0,0-.63.37.55.55,0,0,0-.09.54.9.9,0,0,0,.36.45l.09.27c.09.1,0,.1,0,.1a1.43,1.43,0,0,0-.81-.37h-.18c-.18.09-.27.19-.27.27a1.27,1.27,0,0,0-.09,1c.18.37.36.73.63.82a.27.27,0,0,0,.36,0c.27,0,.54-.36.54-.36h.09c-.09.18-.27,1.18-.9,1.18l-.9.09-.89.09c-.45,0-.72-.55-.9-.82a1,1,0,0,0,.72,0c.27-.09.45-.54.36-1.09s-.27-.91-.54-.91-.63.28-.72.55c-.09-.09-.09-.36-.09-.36,0-.64,0-.91-.27-1a1,1,0,0,0-.63-.18,2,2,0,0,1-.09-.73,1.46,1.46,0,0,1,.72-1.27c.63-.27,1.44.09,2.25.37a4.91,4.91,0,0,0,1.88.54Zm-4.4,4.54c-.09.09-.18.18-.27.18l-.54.18c-.27,0-.63.09-.81.09a.91.91,0,0,1-.81-.54.32.32,0,0,0,.45-.09,1,1,0,0,0,.09-.91c-.09-.45-.36-.82-.63-.82a1.57,1.57,0,0,0-.44.73,2.25,2.25,0,0,0-.36-1,.67.67,0,0,0-.45-.09,3,3,0,0,1-.45-1.36,1.26,1.26,0,0,1,.54-1,2.69,2.69,0,0,1,2.33-.18,3.88,3.88,0,0,0,.36,1.09c-.09.09-.18.18-.18.27v.09a3.17,3.17,0,0,1,1,1.18c-.18-.18-.45-.45-.81-.27s-.36.64-.18,1.18a1.11,1.11,0,0,0,.45.72.88.88,0,0,0,.81-.27c0,.09.09.18.09.37A.69.69,0,0,1-678.84-370.63Zm14.82-1.18a1.31,1.31,0,0,0-.81-1,2.72,2.72,0,0,0,.63-1.72v-.27a1.64,1.64,0,0,0-.72-1.18,3.13,3.13,0,0,0-3-.18,1.83,1.83,0,0,0-1.62-1.46,4.58,4.58,0,0,0-2.51.73,3.07,3.07,0,0,1-1.62.64v-.37a1.47,1.47,0,0,0,1-1.36,1.37,1.37,0,0,0-1.08-1.36v-.54h.36c.09.18.18.27.36.27a.51.51,0,0,0,.45-.55.5.5,0,0,0-.45-.54c-.18,0-.27.09-.36.27h-.36v-.36a.69.69,0,0,0,.18-.46.5.5,0,0,0-.54-.45.43.43,0,0,0-.45.45c0,.19,0,.37.18.46v.36h-.36a.49.49,0,0,0-.45-.27.5.5,0,0,0-.45.54.51.51,0,0,0,.45.55.49.49,0,0,0,.45-.27h.27v.54a1.37,1.37,0,0,0-1.08,1.36,1.44,1.44,0,0,0,1.08,1.36v.37a3.08,3.08,0,0,1-1.71-.64,4.25,4.25,0,0,0-2.42-.73,1.72,1.72,0,0,0-1.62,1.46,3.12,3.12,0,0,0-3,.18,1.76,1.76,0,0,0-.81,1.18v.27a2.72,2.72,0,0,0,.63,1.72,1.21,1.21,0,0,0-.72,1l-.09.09h.09s1.53.18,1.89.64a2.33,2.33,0,0,1,.54,1.27v.09a1.29,1.29,0,0,0,.44.27h.18v.18l.09,2.45h13.66l.09-2.45v-.18h.27c.18-.09.45-.27.45-.27v-.09a2.35,2.35,0,0,1,.53-1.27c.37-.46,1.8-.64,1.8-.64h.09Z"/>
    </clipPath>
    <clipPath id="clip-path-22">
      <polygon class="cls-2" points="-601.59 -366.53 -601.59 -355.14 -600 -355.14 -600 -359.02 -596.19 -355.14 -593.98 -355.14 -598.4 -359.48 -594.42 -362.92 -596.63 -362.92 -600 -359.84 -600 -366.53 -601.59 -366.53"/>
    </clipPath>
    <clipPath id="clip-path-23">
      <rect class="cls-3" x="-620.54" y="-366.26" width="1.77" height="1.72"/>
    </clipPath>
    <clipPath id="clip-path-24">
      <rect class="cls-3" x="-634.52" y="-366.26" width="1.86" height="1.72"/>
    </clipPath>
    <clipPath id="clip-path-25">
      <polygon class="cls-2" points="-645.5 -365.72 -649.13 -356.49 -649.22 -356.49 -652.85 -365.72 -654.8 -365.72 -650.37 -355.14 -648.16 -355.14 -643.73 -365.72 -645.5 -365.72"/>
    </clipPath>
    <clipPath id="clip-path-26">
      <rect class="cls-3" x="-620.45" y="-362.92" width="1.59" height="7.78"/>
    </clipPath>
    <clipPath id="clip-path-27">
      <path class="cls-2" d="M-638.06-359.75h-4.34a2.17,2.17,0,0,1,2.21-2.08,2.07,2.07,0,0,1,2.13,2.08m-4.34,1.08h6.1c0-2.17-.79-4.43-3.8-4.43a3.78,3.78,0,0,0-4.07,4c0,2.72,1.68,4.16,4.42,4.16a8.14,8.14,0,0,0,2.75-.45V-357a5.31,5.31,0,0,1-2.66.73,2.49,2.49,0,0,1-2.74-2.36"/>
    </clipPath>
    <clipPath id="clip-path-28">
      <path class="cls-2" d="M-605-359.75h-4.34a2.17,2.17,0,0,1,2.21-2.08,2.07,2.07,0,0,1,2.13,2.08m-4.34,1.08h6c0-2.17-.71-4.43-3.72-4.43a3.78,3.78,0,0,0-4.07,4c0,2.72,1.68,4.16,4.42,4.16a8.62,8.62,0,0,0,2.75-.45V-357a5.31,5.31,0,0,1-2.66.73,2.49,2.49,0,0,1-2.74-2.36"/>
    </clipPath>
    <clipPath id="clip-path-29">
      <path class="cls-2" d="M-550.6-359.75h-4.24a2.17,2.17,0,0,1,2.21-2.08,2,2,0,0,1,2,2.08m-4.24,1.08h6c0-2.17-.71-4.43-3.8-4.43a3.77,3.77,0,0,0-4,4c0,2.72,1.69,4.16,4.43,4.16a8.55,8.55,0,0,0,2.74-.45V-357a5.25,5.25,0,0,1-2.65.73,2.49,2.49,0,0,1-2.74-2.36"/>
    </clipPath>
    <clipPath id="clip-path-30">
      <path class="cls-2" d="M-634.43-362.92h1.59v8.05c0,2.54-1,3.08-2.48,3.08h-1l.09-1.36a1.73,1.73,0,0,0,.62.09c.62,0,1.16-.27,1.16-1.62Z"/>
    </clipPath>
    <clipPath id="clip-path-31">
      <path class="cls-2" d="M-624.61-361.92v-4.61h1.6v11.39h-1.51v-1a3.72,3.72,0,0,1-2.92,1.17c-2.3,0-3.72-1.71-3.72-4.16s1.51-4,3.72-4a3.2,3.2,0,0,1,2.83,1.18m-2.48.09c-1.41,0-2.39,1-2.39,2.71s.89,3,2.39,3a2.61,2.61,0,0,0,2.48-2.9,2.58,2.58,0,0,0-2.48-2.8"/>
    </clipPath>
    <clipPath id="clip-path-32">
      <path class="cls-2" d="M-614.69-355.14h-1.69v-7.78h1.6v1.18a2.55,2.55,0,0,1,2.21-1.36c.44,0,.8.09,1.07.09v1.45a1.46,1.46,0,0,0-.89-.18c-1.24,0-2.3.81-2.3,3.17Z"/>
    </clipPath>
    <clipPath id="clip-path-33">
      <path class="cls-2" d="M-575.39-355.14H-577v-7.78h1.51v1.18a2.54,2.54,0,0,1,2.21-1.36c.44,0,.88.09,1.06.09v1.45a1.3,1.3,0,0,0-.88-.18c-1.24,0-2.31.81-2.31,3.17Z"/>
    </clipPath>
    <clipPath id="clip-path-34">
      <path class="cls-2" d="M-592-361.65h-1.86v-1.27H-592v-1.71l1.59-.55v2.26h2.22v1.27h-2.22v4.07c0,.91.36,1.45,1.33,1.45a1.68,1.68,0,0,0,1.06-.36v1.35a3.85,3.85,0,0,1-1.41.19c-1.15,0-2.57-.55-2.57-2.18Z"/>
    </clipPath>
    <clipPath id="clip-path-35">
      <path class="cls-2" d="M-561.49-361.65h-1.77v-1.27h1.77v-1.71l1.69-.55v2.26h2.21v1.27h-2.21v4.07c0,.91.35,1.45,1.23,1.45a1.7,1.7,0,0,0,1.07-.36v1.35a3.45,3.45,0,0,1-1.33.19c-1.15,0-2.66-.55-2.66-2.18Z"/>
    </clipPath>
    <clipPath id="clip-path-36">
      <rect class="cls-1" x="-548.21" y="-365.18" width="5.75" height="10.22"/>
    </clipPath>
    <clipPath id="clip-path-37">
      <path class="cls-2" d="M-587.34-359a4,4,0,0,0,4.34,4.08c2.66,0,4.43-1.63,4.43-4.08s-1.77-4.07-4.43-4.07a4,4,0,0,0-4.34,4.07m1.68,0a2.56,2.56,0,0,1,2.66-2.8,2.58,2.58,0,0,1,2.75,2.8,2.61,2.61,0,0,1-2.75,2.9,2.59,2.59,0,0,1-2.66-2.9"/>
    </clipPath>
    <clipPath id="clip-path-38">
      <path class="cls-2" d="M-567.95-363.1c2.12,0,3.45.82,3.45,3.35v4.61H-566v-.9a3.21,3.21,0,0,1-2.57,1.08c-1.51,0-3.19-.45-3.19-2.44,0-1.63,1.77-2.53,4.08-2.53h1.59c0-1.18-.44-1.81-2.13-1.81a4.81,4.81,0,0,0-2.56.81v-1.62a5.79,5.79,0,0,1,2.83-.55m.89,4.25c-1.33,0-3,.28-3,1.45,0,.73.54,1.27,1.6,1.27s2.39-.45,2.39-2v-.63c-.36,0-.8-.1-1-.1"/>
    </clipPath>
  </defs>
  <title>kundelogoer_alle</title>
  <g>
    <path class="cls-3" d="M49.24.13a3.38,3.38,0,0,0-3.83,1.7S43.54,5.27,42.1,8c-1.48-2.7-3.35-6.18-3.35-6.18a3.4,3.4,0,0,0-6.4,1.61v11.8a3.4,3.4,0,0,0,3.4,3.4,3.45,3.45,0,0,0,3.13-2.09,2,2,0,0,0,.18.3,3.37,3.37,0,0,0,3,1.79,3.43,3.43,0,0,0,3-1.79,2.94,2.94,0,0,1,.18-.3,3.45,3.45,0,0,0,3.13,2.09,3.4,3.4,0,0,0,3.4-3.4V3.44A3.31,3.31,0,0,0,49.24.13Z"/>
    <path class="cls-3" d="M27.91,11.89a3.39,3.39,0,0,0,0-5.05,3.42,3.42,0,0,0,3-3.36A3.39,3.39,0,0,0,27.52.09H20a3.4,3.4,0,0,0-3.4,3.39v11.8a3.4,3.4,0,0,0,3.4,3.4h7.48a3.41,3.41,0,0,0,.44-6.79Z"/>
    <path class="cls-3" d="M14.37,13.28S13.5,12,12.8,10.93A6.27,6.27,0,0,0,14.72,6.4,6.37,6.37,0,0,0,8.36,0h-5A3.4,3.4,0,0,0,0,3.44V15.15a3.4,3.4,0,1,0,6.79,0v-.91l1.92,2.83a3.39,3.39,0,0,0,2.18,1.43A3.33,3.33,0,0,0,13.45,18,3.4,3.4,0,0,0,15,15.15a3.33,3.33,0,0,0-.61-1.87Z"/>
    <path class="cls-3" d="M79.07,0H77a3.44,3.44,0,0,0-3.44,3.4,3.42,3.42,0,0,0,2.13,3.18v8.62a3.4,3.4,0,0,0,6.8,0V3.44A3.41,3.41,0,0,0,79.07,0Z"/>
    <path class="cls-3" d="M61.87,16.41a3.43,3.43,0,0,0,6.45-2.35L64,2.26a3.43,3.43,0,0,0-6.45,0h0l-4.31,11.8a3.45,3.45,0,0,0,.13,2.62,3.67,3.67,0,0,0,1.92,1.78,3.41,3.41,0,0,0,4.39-2.05l.18-.43H61.7l.17.43Z"/>
    <path class="cls-3" d="M90.65,0A6.37,6.37,0,0,0,84.3,6.4v5.79a6.36,6.36,0,1,0,12.71,0V6.4A6.4,6.4,0,0,0,90.65,0Z"/>
    <path class="cls-3" d="M104.93,0A6.37,6.37,0,0,0,98.58,6.4v5.79a6.36,6.36,0,1,0,12.71,0V6.4A6.4,6.4,0,0,0,104.93,0Z"/>
    <path class="cls-3" d="M119.22,0a6.37,6.37,0,0,0-6.36,6.36v5.79a6.36,6.36,0,1,0,12.71,0V6.4A6.39,6.39,0,0,0,119.22,0Z"/>
    <path class="cls-4" d="M50.9,15.24a2.53,2.53,0,0,1-5,0V13.45c-.83,1.53-1.61,3-1.61,3A2.44,2.44,0,0,1,42,17.76a2.57,2.57,0,0,1-2.22-1.3l-1.61-3v1.79a2.53,2.53,0,0,1-5.06,0V3.44A2.56,2.56,0,0,1,35.05,1a2.53,2.53,0,0,1,2.83,1.26s3,5.58,4.09,7.67c1.22-2.09,4.23-7.67,4.23-7.67A2.55,2.55,0,0,1,49,1a2.47,2.47,0,0,1,1.91,2.44v11.8Z"/>
    <path class="cls-4" d="M27.47,17.76H20a2.52,2.52,0,0,1-2.53-2.52V3.44A2.53,2.53,0,0,1,20,.91h7.48a2.53,2.53,0,1,1,0,5.06h-5v.87h3.14a2.53,2.53,0,0,1,0,5.05H22.51v.87h5A2.52,2.52,0,0,1,30,15.28a2.58,2.58,0,0,1-2.53,2.48Z"/>
    <path class="cls-4" d="M13.63,13.8s-1.35-2-2-3A5.45,5.45,0,0,0,8.36,1h-5A2.52,2.52,0,0,0,.87,3.48V15.2a2.53,2.53,0,0,0,5.05,0V11.84h.39l3.18,4.75a2.49,2.49,0,0,0,1.61,1A2.43,2.43,0,0,0,13,17.24a2.48,2.48,0,0,0,.65-3.44Zm-5.27-7H5.88V6H8.36a.44.44,0,0,1,.44.43.4.4,0,0,1-.44.44Z"/>
    <path class="cls-4" d="M79.07,1H77a2.52,2.52,0,0,0-.43,5v9.31a2.53,2.53,0,1,0,5,0V3.44A2.56,2.56,0,0,0,79.07,1Z"/>
    <path class="cls-4" d="M67.31,16.33a2.37,2.37,0,0,1-1.39,1.3,2.52,2.52,0,0,1-3.22-1.48s-.22-.56-.39-1H59.17c-.17.48-.39,1-.39,1A2.53,2.53,0,0,1,54,14.41l4.32-11.8a2.5,2.5,0,0,1,4.7,0l4.31,11.8a2.13,2.13,0,0,1,0,1.92Z"/>
    <path class="cls-4" d="M90.65,1A5.45,5.45,0,0,0,85.21,6.4v5.79a5.45,5.45,0,0,0,10.89,0V6.4A5.45,5.45,0,0,0,90.65,1Zm.44,11.28a.44.44,0,0,1-.87,0V6.4A.43.43,0,0,1,90.65,6a.44.44,0,0,1,.44.43v5.84Z"/>
    <path class="cls-4" d="M104.93,1A5.48,5.48,0,0,0,99.45,6.4v5.79a5.47,5.47,0,0,0,10.93,0V6.4A5.45,5.45,0,0,0,104.93,1Zm.44,11.28a.44.44,0,0,1-.87,0V6.4a.44.44,0,0,1,.87,0v5.84Z"/>
    <path class="cls-4" d="M119.22,1a5.45,5.45,0,0,0-5.45,5.44v5.79a5.45,5.45,0,0,0,10.89,0V6.4A5.45,5.45,0,0,0,119.22,1Zm.43,11.28a.44.44,0,0,1-.87,0V6.4a.43.43,0,0,1,.44-.43.43.43,0,0,1,.43.43v5.84Z"/>
    <g>
      <path class="cls-3" d="M47,2.7s-3.22,6-4.92,9.14c-1.7-3.18-4.92-9.14-4.92-9.14a1.57,1.57,0,0,0-1.78-.78,1.62,1.62,0,0,0-1.22,1.56v11.8a1.61,1.61,0,1,0,3.22,0V9.88l3.31,6.19a1.55,1.55,0,0,0,1.39.82,1.5,1.5,0,0,0,1.39-.82l3.31-6.19v5.4a1.62,1.62,0,0,0,3.23,0V3.44a1.59,1.59,0,0,0-1.22-1.57A1.68,1.68,0,0,0,47,2.7Z"/>
      <path class="cls-3" d="M27.47,13.63H21.6v-2.7h4a1.61,1.61,0,1,0,0-3.22h-4V5h5.87a1.61,1.61,0,1,0,0-3.22H20A1.6,1.6,0,0,0,18.37,3.4V15.2A1.61,1.61,0,0,0,20,16.81h7.48a1.61,1.61,0,0,0,1.62-1.61,1.67,1.67,0,0,0-1.62-1.57Z"/>
      <path class="cls-3" d="M12.89,14.28l-2.57-3.79A4.6,4.6,0,0,0,12.93,6.4,4.53,4.53,0,0,0,8.4,1.87h-5A1.61,1.61,0,0,0,1.79,3.48V15.2A1.61,1.61,0,0,0,5,15.2V11H6.79l3.44,5.14a1.61,1.61,0,0,0,2.22.44,1.67,1.67,0,0,0,.44-2.27ZM8.36,7.75H5V5.05h3.4A1.36,1.36,0,0,1,9.71,6.4,1.33,1.33,0,0,1,8.36,7.75Z"/>
      <path class="cls-3" d="M79.07,1.87H77a1.61,1.61,0,1,0,0,3.22h.52V15.28a1.62,1.62,0,0,0,3.23,0V3.44a1.68,1.68,0,0,0-1.66-1.57Z"/>
      <path class="cls-3" d="M66.57,14.72,62.26,2.92a1.6,1.6,0,0,0-1.52-1,1.71,1.71,0,0,0-1.52,1l-4.31,11.8a1.6,1.6,0,0,0,3,1.09s.22-.66.61-1.62h4.4c.35,1,.61,1.62.61,1.62a1.62,1.62,0,0,0,3-1.09ZM59.74,11c.35-.91.69-1.91,1-2.83.35.92.7,1.87,1,2.83Z"/>
      <path class="cls-3" d="M86.08,6.4v5.79a4.57,4.57,0,1,0,9.14,0V6.4a4.57,4.57,0,0,0-4.57-4.57A4.63,4.63,0,0,0,86.08,6.4Zm3.18,5.84V6.4a1.35,1.35,0,1,1,2.7,0v5.79a1.36,1.36,0,0,1-1.35,1.35,1.29,1.29,0,0,1-1.35-1.3Z"/>
      <path class="cls-3" d="M100.36,6.4v5.79a4.58,4.58,0,0,0,9.15,0V6.4a4.58,4.58,0,0,0-4.58-4.57,4.63,4.63,0,0,0-4.57,4.57Zm3.18,5.84V6.4a1.35,1.35,0,1,1,2.7,0v5.79a1.36,1.36,0,0,1-1.35,1.35,1.29,1.29,0,0,1-1.35-1.3Z"/>
      <path class="cls-3" d="M114.64,6.4v5.79a4.58,4.58,0,0,0,9.15,0V6.4a4.58,4.58,0,0,0-4.57-4.57,4.63,4.63,0,0,0-4.58,4.57Zm3.18,5.84V6.4a1.35,1.35,0,1,1,2.7,0v5.79a1.36,1.36,0,0,1-1.35,1.35,1.29,1.29,0,0,1-1.35-1.3Z"/>
    </g>
  </g>
  <g>
    <g>
      <path class="cls-6" d="M102.6-1267.34a1,1,0,0,0-.54.09,4.46,4.46,0,0,0-.36,1c-.09-.27-.18-.63-.45-.73s-.54.37-.63.82a1.43,1.43,0,0,0,.09.91.32.32,0,0,0,.45.09.91.91,0,0,1-.81.54c-.18,0-.45-.09-.81-.09l-.54-.18c-.09,0-.18-.09-.26-.18a.67.67,0,0,1-.09-.45v-.37c.26.19.53.37.8.27a1.15,1.15,0,0,0,.54-.72c.18-.54.09-1.09-.18-1.18a.6.6,0,0,0-.81.27,4.09,4.09,0,0,1,.9-1.18H100v-.09l-.27-.27a2.24,2.24,0,0,0,.36-1.09,2.91,2.91,0,0,1,2.43.18,1.18,1.18,0,0,1,.45,1A2.8,2.8,0,0,1,102.6-1267.34Zm-4.4-.45v.36c-.18-.27-.45-.63-.81-.54s-.45.45-.54.9.18,1,.45,1.09a.74.74,0,0,0,.63,0c-.09.28-.45.82-.9.82l-.9-.09-.81-.09c-.72,0-.9-1-.9-1.18,0,0,.36.36.63.36.09.09.18.09.36,0A1.42,1.42,0,0,0,96-1267a1.84,1.84,0,0,0,0-1l-.27-.28H95.5a1.5,1.5,0,0,0-.81.37H94.6v-.09l.18-.28a2,2,0,0,0,.27-.45c.09-.18.09-.45-.09-.54a.84.84,0,0,0-.54-.37v-.45a5,5,0,0,0,1.89-.54c.81-.28,1.53-.64,2.16-.37a1.31,1.31,0,0,1,.71,1.27,2,2,0,0,1-.09.73,1.26,1.26,0,0,0-.62.18C98.29-1268.7,98.2-1268.43,98.2-1267.79Zm-4.58-1.82a1.36,1.36,0,0,0-.63.37.55.55,0,0,0-.09.54.88.88,0,0,0,.35.45l.09.28c.09.09,0,.09,0,.09a1.45,1.45,0,0,0-.8-.37h-.18c-.18.1-.27.19-.27.28a1.24,1.24,0,0,0-.09,1c.18.37.36.73.63.82a.27.27,0,0,0,.36,0c.26,0,.53-.36.53-.36h.1c-.1.18-.28,1.18-.9,1.18l-.9.09-.9.09c-.45,0-.72-.54-.9-.82a1,1,0,0,0,.72,0c.27-.09.45-.54.36-1.09s-.27-.9-.54-.9-.63.27-.72.54c-.09-.09-.09-.36-.09-.36,0-.64,0-.91-.27-1a1,1,0,0,0-.63-.18,2,2,0,0,1-.09-.73,1.46,1.46,0,0,1,.72-1.27c.63-.27,1.44.09,2.25.37a5,5,0,0,0,1.89.54Zm-4.41,4.54c-.09.09-.18.18-.27.18l-.54.18c-.27,0-.62.09-.8.09a.91.91,0,0,1-.81-.54.32.32,0,0,0,.45-.09,1,1,0,0,0,.09-.91c-.09-.45-.36-.82-.63-.82a1.5,1.5,0,0,0-.45.73,2.25,2.25,0,0,0-.36-1,.67.67,0,0,0-.45-.09,3,3,0,0,1-.45-1.36,1.28,1.28,0,0,1,.54-1,2.69,2.69,0,0,1,2.33-.18,3.88,3.88,0,0,0,.36,1.09c-.09.09-.18.18-.18.27v.09a3.17,3.17,0,0,1,1,1.18c-.18-.18-.45-.45-.81-.27s-.36.64-.18,1.18a1.08,1.08,0,0,0,.45.72.86.86,0,0,0,.81-.27c0,.09.09.19.09.37A.69.69,0,0,1,89.21-1265.07Zm14.82-1.18a1.3,1.3,0,0,0-.8-1,2.7,2.7,0,0,0,.62-1.72v-.27a1.6,1.6,0,0,0-.71-1.18,3.15,3.15,0,0,0-3-.18,1.82,1.82,0,0,0-1.61-1.46,4.61,4.61,0,0,0-2.52.73,3.07,3.07,0,0,1-1.62.64v-.37a1.47,1.47,0,0,0,1-1.36,1.37,1.37,0,0,0-1.08-1.36v-.54h.36c.09.18.18.27.36.27a.51.51,0,0,0,.45-.55.5.5,0,0,0-.45-.54c-.18,0-.27.09-.36.27h-.36v-.36a.69.69,0,0,0,.18-.46.5.5,0,0,0-.54-.45.43.43,0,0,0-.45.45c0,.19,0,.37.18.46v.36h-.36a.49.49,0,0,0-.44-.27.5.5,0,0,0-.45.54.51.51,0,0,0,.45.55.49.49,0,0,0,.44-.27h.28v.54a1.37,1.37,0,0,0-1.08,1.36,1.44,1.44,0,0,0,1.08,1.36v.37a3.08,3.08,0,0,1-1.71-.64,4.31,4.31,0,0,0-2.43-.73,1.72,1.72,0,0,0-1.62,1.46,3.12,3.12,0,0,0-3,.18,1.76,1.76,0,0,0-.81,1.18v.27a2.72,2.72,0,0,0,.63,1.72,1.21,1.21,0,0,0-.72,1l-.09.09H84s1.53.18,1.89.64a2.33,2.33,0,0,1,.54,1.27v.09a1.27,1.27,0,0,0,.45.27h.18v.18l.09,2.45H100.8l.09-2.45v-.18h.27c.18-.09.45-.27.45-.27v-.09a2.33,2.33,0,0,1,.54-1.27c.36-.46,1.79-.64,1.79-.64H104Z"/>
      <g class="cls-7">
        <rect class="cls-3" x="64.18" y="-1287.86" width="1534.5" height="3050.89"/>
      </g>
    </g>
    <g>
      <g>
        <polygon class="cls-6" points="166.46 -1260.97 166.46 -1249.58 168.05 -1249.58 168.05 -1253.46 171.86 -1249.58 174.07 -1249.58 169.65 -1253.92 173.63 -1257.36 171.42 -1257.36 168.05 -1254.28 168.05 -1260.97 166.46 -1260.97"/>
        <g class="cls-8">
          <rect class="cls-3" x="62.1" y="-1287.86" width="1534.5" height="3050.89"/>
        </g>
      </g>
      <g>
        <rect class="cls-3" x="147.51" y="-1260.7" width="1.77" height="1.72"/>
        <g class="cls-9">
          <rect class="cls-3" x="62.1" y="-1287.86" width="1534.5" height="3050.89"/>
        </g>
      </g>
      <g>
        <rect class="cls-3" x="133.53" y="-1260.7" width="1.86" height="1.72"/>
        <g class="cls-10">
          <rect class="cls-3" x="62.1" y="-1287.86" width="1534.5" height="3050.89"/>
        </g>
      </g>
      <g>
        <polygon class="cls-6" points="122.55 -1260.16 118.92 -1250.93 118.83 -1250.93 115.2 -1260.16 113.25 -1260.16 117.68 -1249.58 119.89 -1249.58 124.32 -1260.16 122.55 -1260.16"/>
        <g class="cls-11">
          <rect class="cls-3" x="62.1" y="-1287.86" width="1534.5" height="3050.89"/>
        </g>
      </g>
      <g>
        <rect class="cls-3" x="147.6" y="-1257.36" width="1.59" height="7.78"/>
        <g class="cls-12">
          <rect class="cls-3" x="62.1" y="-1287.86" width="1534.5" height="3050.89"/>
        </g>
      </g>
      <g>
        <path class="cls-6" d="M130-1254.19h-4.34a2.19,2.19,0,0,1,2.21-2.08,2.07,2.07,0,0,1,2.13,2.08m-4.34,1.09h6.11c0-2.18-.8-4.44-3.81-4.44a3.79,3.79,0,0,0-4.07,4c0,2.72,1.68,4.16,4.43,4.16a8.13,8.13,0,0,0,2.74-.45v-1.63a5.31,5.31,0,0,1-2.66.73,2.49,2.49,0,0,1-2.74-2.35"/>
        <g class="cls-13">
          <rect class="cls-3" x="62.1" y="-1287.86" width="1534.5" height="3050.89"/>
        </g>
      </g>
      <g>
        <path class="cls-6" d="M163-1254.19h-4.34a2.19,2.19,0,0,1,2.21-2.08,2.07,2.07,0,0,1,2.13,2.08m-4.34,1.09h6c0-2.18-.71-4.44-3.72-4.44a3.79,3.79,0,0,0-4.07,4c0,2.72,1.68,4.16,4.43,4.16a8.61,8.61,0,0,0,2.74-.45v-1.63a5.28,5.28,0,0,1-2.66.73,2.49,2.49,0,0,1-2.74-2.35"/>
        <g class="cls-14">
          <rect class="cls-3" x="62.1" y="-1287.86" width="1534.5" height="3050.89"/>
        </g>
      </g>
      <g>
        <path class="cls-6" d="M217.46-1254.19h-4.25a2.18,2.18,0,0,1,2.21-2.08,2,2,0,0,1,2,2.08m-4.25,1.09h6c0-2.18-.7-4.44-3.8-4.44a3.76,3.76,0,0,0-4,4c0,2.72,1.68,4.16,4.42,4.16a8.62,8.62,0,0,0,2.75-.45v-1.63a5.31,5.31,0,0,1-2.66.73,2.49,2.49,0,0,1-2.74-2.35"/>
        <g class="cls-15">
          <rect class="cls-3" x="62.1" y="-1287.86" width="1534.5" height="3050.89"/>
        </g>
      </g>
      <g>
        <path class="cls-6" d="M133.62-1257.36h1.59v8.06c0,2.53-1,3.07-2.48,3.07h-1l.09-1.36a1.68,1.68,0,0,0,.62.09c.62,0,1.15-.27,1.15-1.62Z"/>
        <g class="cls-16">
          <rect class="cls-3" x="62.1" y="-1287.86" width="1534.5" height="3050.89"/>
        </g>
      </g>
      <g>
        <path class="cls-6" d="M143.44-1256.36V-1261H145v11.39h-1.51v-1a3.71,3.71,0,0,1-2.92,1.17c-2.3,0-3.72-1.71-3.72-4.16s1.51-4,3.72-4a3.2,3.2,0,0,1,2.83,1.18m-2.47.09c-1.42,0-2.39,1-2.39,2.71s.88,3,2.39,3a2.6,2.6,0,0,0,2.47-2.89,2.58,2.58,0,0,0-2.47-2.81"/>
        <g class="cls-17">
          <rect class="cls-3" x="62.1" y="-1287.86" width="1534.5" height="3050.89"/>
        </g>
      </g>
      <g>
        <path class="cls-6" d="M153.36-1249.58h-1.68v-7.78h1.59v1.18a2.56,2.56,0,0,1,2.21-1.36c.45,0,.8.09,1.07.09v1.45a1.45,1.45,0,0,0-.89-.18c-1.24,0-2.3.81-2.3,3.17Z"/>
        <g class="cls-18">
          <rect class="cls-3" x="62.1" y="-1287.86" width="1534.5" height="3050.89"/>
        </g>
      </g>
      <g>
        <path class="cls-6" d="M192.67-1249.58h-1.6v-7.78h1.51v1.18a2.56,2.56,0,0,1,2.21-1.36c.45,0,.89.09,1.06.09v1.45a1.29,1.29,0,0,0-.88-.18c-1.24,0-2.3.81-2.3,3.17Z"/>
        <g class="cls-19">
          <rect class="cls-3" x="62.1" y="-1287.86" width="1534.5" height="3050.89"/>
        </g>
      </g>
      <g>
        <path class="cls-6" d="M176-1256.09h-1.86v-1.27H176v-1.71l1.6-.55v2.26h2.21v1.27h-2.21v4.07c0,.91.35,1.45,1.32,1.45a1.7,1.7,0,0,0,1.07-.36v1.35a3.9,3.9,0,0,1-1.42.19c-1.15,0-2.57-.55-2.57-2.18Z"/>
        <g class="cls-20">
          <rect class="cls-3" x="62.1" y="-1287.86" width="1534.5" height="3050.89"/>
        </g>
      </g>
      <g>
        <path class="cls-6" d="M206.57-1256.09H204.8v-1.27h1.77v-1.71l1.68-.55v2.26h2.21v1.27h-2.21v4.07c0,.91.35,1.45,1.24,1.45a1.68,1.68,0,0,0,1.06-.36v1.35a3.42,3.42,0,0,1-1.33.19c-1.15,0-2.65-.55-2.65-2.18Z"/>
        <g class="cls-21">
          <rect class="cls-3" x="62.1" y="-1287.86" width="1534.5" height="3050.89"/>
        </g>
      </g>
      <g>
        <path class="cls-6" d="M180.71-1253.47a4,4,0,0,0,4.34,4.08c2.66,0,4.43-1.63,4.43-4.08s-1.77-4.07-4.43-4.07a4,4,0,0,0-4.34,4.07m1.69,0a2.55,2.55,0,0,1,2.65-2.8,2.58,2.58,0,0,1,2.75,2.8,2.61,2.61,0,0,1-2.75,2.9c-1.86,0-2.65-1.36-2.65-2.9"/>
        <g class="cls-23">
          <rect class="cls-3" x="62.1" y="-1287.86" width="1534.5" height="3050.89"/>
        </g>
      </g>
      <g>
        <path class="cls-6" d="M200.1-1257.54c2.13,0,3.46.82,3.46,3.35v4.61h-1.51v-.9a3.2,3.2,0,0,1-2.57,1.08c-1.5,0-3.18-.45-3.18-2.44,0-1.63,1.77-2.53,4.07-2.53H202c0-1.18-.44-1.81-2.12-1.81a4.85,4.85,0,0,0-2.57.81V-1257a5.79,5.79,0,0,1,2.83-.55m.89,4.26c-1.33,0-3,.27-3,1.44,0,.73.53,1.27,1.59,1.27s2.39-.45,2.39-2v-.63c-.35,0-.79-.09-1-.09"/>
        <g class="cls-24">
          <rect class="cls-3" x="62.1" y="-1287.86" width="1534.5" height="3050.89"/>
        </g>
      </g>
    </g>
  </g>
  <g>
    <g>
      <path class="cls-6" d="M-665.46-372.9a1,1,0,0,0-.54.09,5,5,0,0,0-.35,1c-.09-.27-.18-.63-.45-.73s-.54.37-.63.82a1.43,1.43,0,0,0,.09.91.32.32,0,0,0,.45.09.91.91,0,0,1-.81.54c-.18,0-.45-.09-.81-.09l-.54-.18c-.09,0-.18-.09-.27-.18a.67.67,0,0,1-.09-.45v-.37c.27.18.54.37.81.27a1.18,1.18,0,0,0,.54-.72c.18-.54.09-1.09-.18-1.18a.6.6,0,0,0-.81.27,4.09,4.09,0,0,1,.9-1.18h.09v-.09l-.27-.27a2.24,2.24,0,0,0,.36-1.09,2.91,2.91,0,0,1,2.43.18,1.18,1.18,0,0,1,.44,1A2.8,2.8,0,0,1-665.46-372.9Zm-4.4-.45v.36c-.18-.27-.45-.63-.81-.55s-.45.46-.54.91.19,1,.45,1.09a.74.74,0,0,0,.63,0c-.09.27-.45.82-.89.82l-.9-.09-.81-.09c-.72,0-.9-1-.9-1.18,0,0,.36.36.63.36.09.09.18.09.36,0a1.42,1.42,0,0,0,.54-.82,1.88,1.88,0,0,0,0-1c-.09-.08-.18-.18-.27-.27h-.18a1.43,1.43,0,0,0-.81.37h-.09v-.1l.18-.27a2,2,0,0,0,.27-.45c.09-.18.09-.45-.09-.54a.8.8,0,0,0-.54-.37v-.45a5,5,0,0,0,1.89-.54c.8-.28,1.52-.64,2.15-.37a1.3,1.3,0,0,1,.72,1.27,2,2,0,0,1-.09.73,1.3,1.3,0,0,0-.63.18C-669.77-374.26-669.86-374-669.86-373.35Zm-4.58-1.82a1.37,1.37,0,0,0-.63.37.55.55,0,0,0-.09.54.9.9,0,0,0,.36.45l.09.27c.09.1,0,.1,0,.1a1.43,1.43,0,0,0-.81-.37h-.18c-.18.09-.27.19-.27.27a1.27,1.27,0,0,0-.09,1c.18.37.36.73.63.82a.27.27,0,0,0,.36,0c.27,0,.54-.36.54-.36h.09c-.09.18-.27,1.18-.9,1.18l-.9.09-.89.09c-.45,0-.72-.55-.9-.82a1,1,0,0,0,.72,0c.27-.09.45-.54.36-1.09s-.27-.91-.54-.91-.63.28-.72.55c-.09-.09-.09-.36-.09-.36,0-.64,0-.91-.27-1a1,1,0,0,0-.63-.18,2,2,0,0,1-.09-.73,1.46,1.46,0,0,1,.72-1.27c.63-.27,1.44.09,2.25.37a4.91,4.91,0,0,0,1.88.54Zm-4.4,4.54c-.09.09-.18.18-.27.18l-.54.18c-.27,0-.63.09-.81.09a.91.91,0,0,1-.81-.54.32.32,0,0,0,.45-.09,1,1,0,0,0,.09-.91c-.09-.45-.36-.82-.63-.82a1.57,1.57,0,0,0-.44.73,2.25,2.25,0,0,0-.36-1,.67.67,0,0,0-.45-.09,3,3,0,0,1-.45-1.36,1.26,1.26,0,0,1,.54-1,2.69,2.69,0,0,1,2.33-.18,3.88,3.88,0,0,0,.36,1.09c-.09.09-.18.18-.18.27v.09a3.17,3.17,0,0,1,1,1.18c-.18-.18-.45-.45-.81-.27s-.36.64-.18,1.18a1.11,1.11,0,0,0,.45.72.88.88,0,0,0,.81-.27c0,.09.09.18.09.37A.69.69,0,0,1-678.84-370.63Zm14.82-1.18a1.31,1.31,0,0,0-.81-1,2.72,2.72,0,0,0,.63-1.72v-.27a1.64,1.64,0,0,0-.72-1.18,3.13,3.13,0,0,0-3-.18,1.83,1.83,0,0,0-1.62-1.46,4.58,4.58,0,0,0-2.51.73,3.07,3.07,0,0,1-1.62.64v-.37a1.47,1.47,0,0,0,1-1.36,1.37,1.37,0,0,0-1.08-1.36v-.54h.36c.09.18.18.27.36.27a.51.51,0,0,0,.45-.55.5.5,0,0,0-.45-.54c-.18,0-.27.09-.36.27h-.36v-.36a.69.69,0,0,0,.18-.46.5.5,0,0,0-.54-.45.43.43,0,0,0-.45.45c0,.19,0,.37.18.46v.36h-.36a.49.49,0,0,0-.45-.27.5.5,0,0,0-.45.54.51.51,0,0,0,.45.55.49.49,0,0,0,.45-.27h.27v.54a1.37,1.37,0,0,0-1.08,1.36,1.44,1.44,0,0,0,1.08,1.36v.37a3.08,3.08,0,0,1-1.71-.64,4.25,4.25,0,0,0-2.42-.73,1.72,1.72,0,0,0-1.62,1.46,3.12,3.12,0,0,0-3,.18,1.76,1.76,0,0,0-.81,1.18v.27a2.72,2.72,0,0,0,.63,1.72,1.21,1.21,0,0,0-.72,1l-.09.09h.09s1.53.18,1.89.64a2.33,2.33,0,0,1,.54,1.27v.09a1.29,1.29,0,0,0,.44.27h.18v.18l.09,2.45h13.66l.09-2.45v-.18h.27c.18-.09.45-.27.45-.27v-.09a2.35,2.35,0,0,1,.53-1.27c.37-.46,1.8-.64,1.8-.64h.09Z"/>
      <g class="cls-26">
        <rect class="cls-3" x="-703.87" y="-393.42" width="1534.5" height="3050.89"/>
      </g>
    </g>
    <g>
      <g>
        <polygon class="cls-6" points="-601.59 -366.53 -601.59 -355.14 -600 -355.14 -600 -359.02 -596.19 -355.14 -593.98 -355.14 -598.4 -359.48 -594.42 -362.92 -596.63 -362.92 -600 -359.84 -600 -366.53 -601.59 -366.53"/>
        <g class="cls-27">
          <rect class="cls-3" x="-705.95" y="-393.42" width="1534.5" height="3050.89"/>
        </g>
      </g>
      <g>
        <rect class="cls-3" x="-620.54" y="-366.26" width="1.77" height="1.72"/>
        <g class="cls-28">
          <rect class="cls-3" x="-705.95" y="-393.42" width="1534.5" height="3050.89"/>
        </g>
      </g>
      <g>
        <rect class="cls-3" x="-634.52" y="-366.26" width="1.86" height="1.72"/>
        <g class="cls-29">
          <rect class="cls-3" x="-705.95" y="-393.42" width="1534.5" height="3050.89"/>
        </g>
      </g>
      <g>
        <polygon class="cls-6" points="-645.5 -365.72 -649.13 -356.49 -649.22 -356.49 -652.85 -365.72 -654.8 -365.72 -650.37 -355.14 -648.16 -355.14 -643.73 -365.72 -645.5 -365.72"/>
        <g class="cls-30">
          <rect class="cls-3" x="-705.95" y="-393.42" width="1534.5" height="3050.89"/>
        </g>
      </g>
      <g>
        <rect class="cls-3" x="-620.45" y="-362.92" width="1.59" height="7.78"/>
        <g class="cls-31">
          <rect class="cls-3" x="-705.95" y="-393.42" width="1534.5" height="3050.89"/>
        </g>
      </g>
      <g>
        <path class="cls-6" d="M-638.06-359.75h-4.34a2.17,2.17,0,0,1,2.21-2.08,2.07,2.07,0,0,1,2.13,2.08m-4.34,1.08h6.1c0-2.17-.79-4.43-3.8-4.43a3.78,3.78,0,0,0-4.07,4c0,2.72,1.68,4.16,4.42,4.16a8.14,8.14,0,0,0,2.75-.45V-357a5.31,5.31,0,0,1-2.66.73,2.49,2.49,0,0,1-2.74-2.36"/>
        <g class="cls-32">
          <rect class="cls-3" x="-705.95" y="-393.42" width="1534.5" height="3050.89"/>
        </g>
      </g>
      <g>
        <path class="cls-6" d="M-605-359.75h-4.34a2.17,2.17,0,0,1,2.21-2.08,2.07,2.07,0,0,1,2.13,2.08m-4.34,1.08h6c0-2.17-.71-4.43-3.72-4.43a3.78,3.78,0,0,0-4.07,4c0,2.72,1.68,4.16,4.42,4.16a8.62,8.62,0,0,0,2.75-.45V-357a5.31,5.31,0,0,1-2.66.73,2.49,2.49,0,0,1-2.74-2.36"/>
        <g class="cls-33">
          <rect class="cls-3" x="-705.95" y="-393.42" width="1534.5" height="3050.89"/>
        </g>
      </g>
      <g>
        <path class="cls-6" d="M-550.6-359.75h-4.24a2.17,2.17,0,0,1,2.21-2.08,2,2,0,0,1,2,2.08m-4.24,1.08h6c0-2.17-.71-4.43-3.8-4.43a3.77,3.77,0,0,0-4,4c0,2.72,1.69,4.16,4.43,4.16a8.55,8.55,0,0,0,2.74-.45V-357a5.25,5.25,0,0,1-2.65.73,2.49,2.49,0,0,1-2.74-2.36"/>
        <g class="cls-34">
          <rect class="cls-3" x="-705.95" y="-393.42" width="1534.5" height="3050.89"/>
        </g>
      </g>
      <g>
        <path class="cls-6" d="M-634.43-362.92h1.59v8.05c0,2.54-1,3.08-2.48,3.08h-1l.09-1.36a1.73,1.73,0,0,0,.62.09c.62,0,1.16-.27,1.16-1.62Z"/>
        <g class="cls-35">
          <rect class="cls-3" x="-705.95" y="-393.42" width="1534.5" height="3050.89"/>
        </g>
      </g>
      <g>
        <path class="cls-6" d="M-624.61-361.92v-4.61h1.6v11.39h-1.51v-1a3.72,3.72,0,0,1-2.92,1.17c-2.3,0-3.72-1.71-3.72-4.16s1.51-4,3.72-4a3.2,3.2,0,0,1,2.83,1.18m-2.48.09c-1.41,0-2.39,1-2.39,2.71s.89,3,2.39,3a2.61,2.61,0,0,0,2.48-2.9,2.58,2.58,0,0,0-2.48-2.8"/>
        <g class="cls-36">
          <rect class="cls-3" x="-705.95" y="-393.42" width="1534.5" height="3050.89"/>
        </g>
      </g>
      <g>
        <path class="cls-6" d="M-614.69-355.14h-1.69v-7.78h1.6v1.18a2.55,2.55,0,0,1,2.21-1.36c.44,0,.8.09,1.07.09v1.45a1.46,1.46,0,0,0-.89-.18c-1.24,0-2.3.81-2.3,3.17Z"/>
        <g class="cls-37">
          <rect class="cls-3" x="-705.95" y="-393.42" width="1534.5" height="3050.89"/>
        </g>
      </g>
      <g>
        <path class="cls-6" d="M-575.39-355.14H-577v-7.78h1.51v1.18a2.54,2.54,0,0,1,2.21-1.36c.44,0,.88.09,1.06.09v1.45a1.3,1.3,0,0,0-.88-.18c-1.24,0-2.31.81-2.31,3.17Z"/>
        <g class="cls-38">
          <rect class="cls-3" x="-705.95" y="-393.42" width="1534.5" height="3050.89"/>
        </g>
      </g>
      <g>
        <path class="cls-6" d="M-592-361.65h-1.86v-1.27H-592v-1.71l1.59-.55v2.26h2.22v1.27h-2.22v4.07c0,.91.36,1.45,1.33,1.45a1.68,1.68,0,0,0,1.06-.36v1.35a3.85,3.85,0,0,1-1.41.19c-1.15,0-2.57-.55-2.57-2.18Z"/>
        <g class="cls-39">
          <rect class="cls-3" x="-705.95" y="-393.42" width="1534.5" height="3050.89"/>
        </g>
      </g>
      <g>
        <path class="cls-6" d="M-561.49-361.65h-1.77v-1.27h1.77v-1.71l1.69-.55v2.26h2.21v1.27h-2.21v4.07c0,.91.35,1.45,1.23,1.45a1.7,1.7,0,0,0,1.07-.36v1.35a3.45,3.45,0,0,1-1.33.19c-1.15,0-2.66-.55-2.66-2.18Z"/>
        <g class="cls-40">
          <rect class="cls-3" x="-705.95" y="-393.42" width="1534.5" height="3050.89"/>
        </g>
      </g>
      <g>
        <path class="cls-6" d="M-587.34-359a4,4,0,0,0,4.34,4.08c2.66,0,4.43-1.63,4.43-4.08s-1.77-4.07-4.43-4.07a4,4,0,0,0-4.34,4.07m1.68,0a2.56,2.56,0,0,1,2.66-2.8,2.58,2.58,0,0,1,2.75,2.8,2.61,2.61,0,0,1-2.75,2.9,2.59,2.59,0,0,1-2.66-2.9"/>
        <g class="cls-42">
          <rect class="cls-3" x="-705.95" y="-393.42" width="1534.5" height="3050.89"/>
        </g>
      </g>
      <g>
        <path class="cls-6" d="M-567.95-363.1c2.12,0,3.45.82,3.45,3.35v4.61H-566v-.9a3.21,3.21,0,0,1-2.57,1.08c-1.51,0-3.19-.45-3.19-2.44,0-1.63,1.77-2.53,4.08-2.53h1.59c0-1.18-.44-1.81-2.13-1.81a4.81,4.81,0,0,0-2.56.81v-1.62a5.79,5.79,0,0,1,2.83-.55m.89,4.25c-1.33,0-3,.28-3,1.45,0,.73.54,1.27,1.6,1.27s2.39-.45,2.39-2v-.63c-.36,0-.8-.1-1-.1"/>
        <g class="cls-43">
          <rect class="cls-3" x="-705.95" y="-393.42" width="1534.5" height="3050.89"/>
        </g>
      </g>
    </g>
  </g>
</svg>
