<svg id="Layer_1" data-name="Layer 1" xmlns="http://www.w3.org/2000/svg" xmlns:xlink="http://www.w3.org/1999/xlink" width="42.89" height="55.48" viewBox="0 0 42.89 55.48">
  <defs>
    <style>
      .cls-1 {
        fill: none;
      }

      .cls-2, .cls-3, .cls-5 {
        fill: #647689;
      }

      .cls-2 {
        clip-rule: evenodd;
      }

      .cls-4 {
        clip-path: url(#clip-path);
      }

      .cls-5 {
        fill-rule: evenodd;
      }

      .cls-6 {
        clip-path: url(#clip-path-2);
      }

      .cls-7 {
        clip-path: url(#clip-path-3);
      }

      .cls-8 {
        clip-path: url(#clip-path-4);
      }

      .cls-9 {
        clip-path: url(#clip-path-5);
      }

      .cls-10 {
        clip-path: url(#clip-path-6);
      }

      .cls-11 {
        clip-path: url(#clip-path-7);
      }

      .cls-12 {
        clip-path: url(#clip-path-8);
      }

      .cls-13 {
        clip-path: url(#clip-path-9);
      }

      .cls-14 {
        clip-path: url(#clip-path-10);
      }

      .cls-15 {
        clip-path: url(#clip-path-11);
      }

      .cls-16 {
        clip-path: url(#clip-path-12);
      }

      .cls-17 {
        clip-path: url(#clip-path-13);
      }

      .cls-18 {
        clip-path: url(#clip-path-14);
      }

      .cls-19 {
        clip-path: url(#clip-path-15);
      }

      .cls-20 {
        clip-path: url(#clip-path-16);
      }

      .cls-21 {
        clip-path: url(#clip-path-17);
      }

      .cls-22 {
        clip-path: url(#clip-path-18);
      }

      .cls-23 {
        clip-path: url(#clip-path-19);
      }

      .cls-24 {
        clip-path: url(#clip-path-20);
      }

      .cls-25 {
        clip-path: url(#clip-path-21);
      }

      .cls-26 {
        clip-path: url(#clip-path-22);
      }

      .cls-27 {
        clip-path: url(#clip-path-23);
      }

      .cls-28 {
        clip-path: url(#clip-path-24);
      }

      .cls-29 {
        clip-path: url(#clip-path-25);
      }

      .cls-30 {
        clip-path: url(#clip-path-26);
      }

      .cls-31 {
        clip-path: url(#clip-path-27);
      }

      .cls-32 {
        clip-path: url(#clip-path-28);
      }

      .cls-33 {
        clip-path: url(#clip-path-29);
      }

      .cls-34 {
        clip-path: url(#clip-path-30);
      }

      .cls-35 {
        clip-path: url(#clip-path-31);
      }

      .cls-36 {
        clip-path: url(#clip-path-32);
      }

      .cls-37 {
        clip-path: url(#clip-path-33);
      }

      .cls-38 {
        clip-path: url(#clip-path-34);
      }

      .cls-39 {
        clip-path: url(#clip-path-35);
      }

      .cls-40 {
        clip-path: url(#clip-path-36);
      }

      .cls-41 {
        clip-path: url(#clip-path-37);
      }

      .cls-42 {
        clip-path: url(#clip-path-38);
      }
    </style>
    <clipPath id="clip-path">
      <rect class="cls-1" x="-225.39" y="-1241.23" width="23.39" height="20.48"/>
    </clipPath>
    <clipPath id="clip-path-2">
      <path class="cls-2" d="M-205.09-1248.94a1,1,0,0,0-.54.09,4.64,4.64,0,0,0-.36,1c-.09-.27-.18-.63-.45-.72s-.54.36-.63.81a1.42,1.42,0,0,0,.09.91.32.32,0,0,0,.45.09.91.91,0,0,1-.81.54c-.18,0-.45-.08-.81-.08l-.53-.19c-.09,0-.18-.09-.27-.18a.67.67,0,0,1-.09-.45v-.37c.27.19.53.37.8.28a1.2,1.2,0,0,0,.54-.73c.18-.54.09-1.09-.18-1.18a.59.59,0,0,0-.8.27,4,4,0,0,1,.89-1.18h.09v-.09l-.27-.27a2.21,2.21,0,0,0,.36-1.09,2.88,2.88,0,0,1,2.43.19,1.15,1.15,0,0,1,.45,1A2.77,2.77,0,0,1-205.09-1248.94Zm-4.4-.45v.36c-.18-.27-.45-.63-.81-.54s-.45.45-.54.9.18,1,.45,1.09a.74.74,0,0,0,.63,0c-.09.28-.45.82-.9.82l-.9-.09-.81-.09c-.72,0-.9-1-.9-1.18,0,0,.36.36.63.36.09.09.18.09.36,0a1.42,1.42,0,0,0,.54-.81,1.88,1.88,0,0,0,0-1l-.27-.27h-.18a1.46,1.46,0,0,0-.81.36h-.09v-.09l.18-.27a2.07,2.07,0,0,0,.27-.46c.09-.18.09-.45-.09-.54a.87.87,0,0,0-.54-.37v-.45a5,5,0,0,0,1.89-.54c.81-.27,1.53-.64,2.16-.37a1.3,1.3,0,0,1,.71,1.28,2,2,0,0,1-.09.72,1.29,1.29,0,0,0-.62.18C-209.4-1250.3-209.49-1250-209.49-1249.39Zm-4.58-1.82a1.45,1.45,0,0,0-.63.37.55.55,0,0,0-.09.54,1,1,0,0,0,.35.46l.09.27c.09.09,0,.09,0,.09a1.42,1.42,0,0,0-.8-.36h-.18q-.27.13-.27.27a1.26,1.26,0,0,0-.09,1c.18.36.36.72.63.81a.27.27,0,0,0,.36,0c.26,0,.53-.36.53-.36h.1c-.1.18-.28,1.18-.9,1.18l-.9.09-.9.09c-.45,0-.72-.54-.9-.82a1,1,0,0,0,.72,0c.27-.09.45-.54.36-1.09s-.27-.9-.54-.9-.63.27-.72.54c-.09-.09-.09-.36-.09-.36,0-.64,0-.91-.27-1a1,1,0,0,0-.63-.18,2,2,0,0,1-.09-.72,1.47,1.47,0,0,1,.72-1.28c.63-.27,1.44.1,2.25.37a5,5,0,0,0,1.89.54Zm-4.41,4.54c-.09.09-.18.18-.27.18l-.54.19c-.27,0-.62.08-.8.08a.91.91,0,0,1-.81-.54.32.32,0,0,0,.45-.09,1,1,0,0,0,.09-.91c-.09-.45-.36-.81-.63-.81a1.42,1.42,0,0,0-.45.72,2.29,2.29,0,0,0-.36-1,.67.67,0,0,0-.45-.09,3,3,0,0,1-.45-1.36,1.24,1.24,0,0,1,.54-1,2.68,2.68,0,0,1,2.34-.19,4.1,4.1,0,0,0,.35,1.09.45.45,0,0,0-.17.27v.09a3.32,3.32,0,0,1,1,1.18c-.18-.18-.45-.45-.81-.27s-.35.64-.17,1.18a1.09,1.09,0,0,0,.44.73.89.89,0,0,0,.81-.28c0,.1.09.19.09.37A.69.69,0,0,1-218.48-1246.67Zm14.83-1.18a1.31,1.31,0,0,0-.81-1,2.72,2.72,0,0,0,.63-1.72v-.27a1.66,1.66,0,0,0-.72-1.18,3.18,3.18,0,0,0-3-.18,1.82,1.82,0,0,0-1.61-1.46,4.7,4.7,0,0,0-2.52.73,3.07,3.07,0,0,1-1.62.64v-.37a1.47,1.47,0,0,0,1-1.36,1.37,1.37,0,0,0-1.08-1.36v-.54h.36c.09.18.18.27.36.27a.5.5,0,0,0,.45-.54.51.51,0,0,0-.45-.55c-.18,0-.27.09-.36.27h-.36v-.36a.69.69,0,0,0,.18-.45.5.5,0,0,0-.54-.46.43.43,0,0,0-.45.46c0,.18,0,.36.18.45v.36h-.36a.48.48,0,0,0-.44-.27.51.51,0,0,0-.45.55.5.5,0,0,0,.45.54.48.48,0,0,0,.44-.27h.28v.54a1.37,1.37,0,0,0-1.08,1.36,1.44,1.44,0,0,0,1.08,1.36v.37a3.08,3.08,0,0,1-1.71-.64,4.39,4.39,0,0,0-2.43-.73,1.71,1.71,0,0,0-1.61,1.46,3.17,3.17,0,0,0-3,.18,1.79,1.79,0,0,0-.81,1.18v.27a2.72,2.72,0,0,0,.63,1.72,1.21,1.21,0,0,0-.72,1l-.09.09h.09s1.53.18,1.89.64a2.33,2.33,0,0,1,.54,1.27v.09a1.27,1.27,0,0,0,.45.27h.18v.18l.09,2.45h13.65l.09-2.45v-.18h.27c.18-.09.45-.27.45-.27v-.09a2.33,2.33,0,0,1,.54-1.27c.36-.46,1.8-.64,1.8-.64h.09Z"/>
    </clipPath>
    <clipPath id="clip-path-3">
      <polygon class="cls-2" points="-141.23 -1242.57 -141.23 -1231.17 -139.63 -1231.17 -139.63 -1235.06 -135.83 -1231.17 -133.61 -1231.17 -138.04 -1235.52 -134.06 -1238.95 -136.27 -1238.95 -139.63 -1235.88 -139.63 -1242.57 -141.23 -1242.57"/>
    </clipPath>
    <clipPath id="clip-path-4">
      <rect class="cls-3" x="-160.17" y="-1242.3" width="1.77" height="1.72"/>
    </clipPath>
    <clipPath id="clip-path-5">
      <rect class="cls-3" x="-174.16" y="-1242.3" width="1.86" height="1.72"/>
    </clipPath>
    <clipPath id="clip-path-6">
      <polygon class="cls-2" points="-185.14 -1241.76 -188.77 -1232.53 -188.86 -1232.53 -192.49 -1241.76 -194.44 -1241.76 -190.01 -1231.17 -187.79 -1231.17 -183.37 -1241.76 -185.14 -1241.76"/>
    </clipPath>
    <clipPath id="clip-path-7">
      <rect class="cls-3" x="-160.08" y="-1238.95" width="1.59" height="7.78"/>
    </clipPath>
    <clipPath id="clip-path-8">
      <path class="cls-2" d="M-177.7-1235.79H-182a2.19,2.19,0,0,1,2.21-2.08,2.07,2.07,0,0,1,2.13,2.08m-4.34,1.09h6.11c0-2.17-.8-4.43-3.81-4.43a3.78,3.78,0,0,0-4.07,4c0,2.72,1.68,4.17,4.43,4.17a8.07,8.07,0,0,0,2.74-.46v-1.62a5.39,5.39,0,0,1-2.66.72,2.49,2.49,0,0,1-2.74-2.35"/>
    </clipPath>
    <clipPath id="clip-path-9">
      <path class="cls-2" d="M-144.68-1235.79H-149a2.19,2.19,0,0,1,2.21-2.08,2.07,2.07,0,0,1,2.13,2.08m-4.34,1.09h6c0-2.17-.71-4.43-3.72-4.43a3.78,3.78,0,0,0-4.07,4c0,2.72,1.68,4.17,4.43,4.17a8.55,8.55,0,0,0,2.74-.46v-1.62a5.35,5.35,0,0,1-2.65.72,2.5,2.5,0,0,1-2.75-2.35"/>
    </clipPath>
    <clipPath id="clip-path-10">
      <path class="cls-2" d="M-90.23-1235.79h-4.25a2.18,2.18,0,0,1,2.21-2.08,2,2,0,0,1,2,2.08m-4.25,1.09h6c0-2.17-.71-4.43-3.81-4.43a3.75,3.75,0,0,0-4,4c0,2.72,1.68,4.17,4.42,4.17a8.57,8.57,0,0,0,2.75-.46v-1.62a5.39,5.39,0,0,1-2.66.72,2.49,2.49,0,0,1-2.74-2.35"/>
    </clipPath>
    <clipPath id="clip-path-11">
      <path class="cls-2" d="M-174.07-1238.95h1.59v8c0,2.53-1,3.07-2.48,3.07h-1l.09-1.36a1.53,1.53,0,0,0,.62.1c.62,0,1.15-.28,1.15-1.63Z"/>
    </clipPath>
    <clipPath id="clip-path-12">
      <path class="cls-2" d="M-164.25-1238v-4.61h1.6v11.39h-1.51v-1a3.71,3.71,0,0,1-2.92,1.18c-2.3,0-3.72-1.72-3.72-4.17s1.51-4,3.72-4a3.2,3.2,0,0,1,2.83,1.18m-2.47.09c-1.42,0-2.39,1-2.39,2.71s.88,3,2.39,3a2.6,2.6,0,0,0,2.47-2.89,2.58,2.58,0,0,0-2.47-2.81"/>
    </clipPath>
    <clipPath id="clip-path-13">
      <path class="cls-2" d="M-154.33-1231.17H-156v-7.78h1.59v1.17a2.55,2.55,0,0,1,2.21-1.35c.45,0,.8.09,1.07.09v1.44a1.45,1.45,0,0,0-.89-.18c-1.24,0-2.3.82-2.3,3.17Z"/>
    </clipPath>
    <clipPath id="clip-path-14">
      <path class="cls-2" d="M-115-1231.17h-1.6v-7.78h1.51v1.17a2.55,2.55,0,0,1,2.21-1.35c.45,0,.89.09,1.06.09v1.44a1.29,1.29,0,0,0-.88-.18c-1.24,0-2.3.82-2.3,3.17Z"/>
    </clipPath>
    <clipPath id="clip-path-15">
      <path class="cls-2" d="M-131.67-1237.69h-1.86v-1.26h1.86v-1.72l1.6-.55v2.27h2.21v1.26h-2.21v4.07c0,.91.35,1.45,1.32,1.45a1.7,1.7,0,0,0,1.07-.36v1.36a4.1,4.1,0,0,1-1.42.18c-1.15,0-2.57-.55-2.57-2.17Z"/>
    </clipPath>
    <clipPath id="clip-path-16">
      <path class="cls-2" d="M-101.12-1237.69h-1.77v-1.26h1.77v-1.72l1.68-.55v2.27h2.21v1.26h-2.21v4.07c0,.91.35,1.45,1.24,1.45a1.68,1.68,0,0,0,1.06-.36v1.36a3.6,3.6,0,0,1-1.33.18c-1.15,0-2.65-.55-2.65-2.17Z"/>
    </clipPath>
    <clipPath id="clip-path-17">
      <rect class="cls-1" x="-87.84" y="-1241.22" width="5.75" height="10.22"/>
    </clipPath>
    <clipPath id="clip-path-18">
      <path class="cls-2" d="M-127-1235.06a4,4,0,0,0,4.34,4.07c2.66,0,4.43-1.63,4.43-4.07s-1.77-4.08-4.43-4.08a4,4,0,0,0-4.34,4.08m1.69,0a2.56,2.56,0,0,1,2.65-2.81,2.59,2.59,0,0,1,2.75,2.81,2.61,2.61,0,0,1-2.75,2.89,2.58,2.58,0,0,1-2.65-2.89"/>
    </clipPath>
    <clipPath id="clip-path-19">
      <path class="cls-2" d="M-107.59-1239.13c2.13,0,3.46.81,3.46,3.34v4.62h-1.51v-.91a3.17,3.17,0,0,1-2.56,1.09c-1.51,0-3.19-.46-3.19-2.45,0-1.62,1.77-2.53,4.07-2.53h1.6c0-1.18-.45-1.81-2.13-1.81a4.77,4.77,0,0,0-2.57.82v-1.63a5.9,5.9,0,0,1,2.83-.54m.89,4.25c-1.33,0-3,.27-3,1.44,0,.73.53,1.27,1.59,1.27s2.4-.45,2.4-2v-.63c-.36,0-.8-.09-1-.09"/>
    </clipPath>
    <clipPath id="clip-path-20">
      <rect class="cls-1" x="-993.45" y="-346.79" width="23.39" height="20.48"/>
    </clipPath>
    <clipPath id="clip-path-21">
      <path class="cls-2" d="M-973.15-354.5a.94.94,0,0,0-.53.09,4.46,4.46,0,0,0-.36,1c-.09-.27-.18-.63-.45-.73s-.54.37-.63.82a1.42,1.42,0,0,0,.09.91.32.32,0,0,0,.45.09.91.91,0,0,1-.81.54c-.18,0-.45-.09-.81-.09l-.54-.18c-.09,0-.18-.09-.27-.18a.67.67,0,0,1-.09-.45V-353c.27.19.54.37.81.28a1.2,1.2,0,0,0,.54-.73c.18-.54.09-1.09-.18-1.18a.6.6,0,0,0-.81.27,4.09,4.09,0,0,1,.9-1.18h.09v-.09l-.27-.27a2.21,2.21,0,0,0,.36-1.09,2.88,2.88,0,0,1,2.43.19,1.14,1.14,0,0,1,.44,1A2.69,2.69,0,0,1-973.15-354.5Zm-4.4-.45v.36c-.18-.27-.45-.63-.81-.54s-.44.45-.53.9.18,1,.44,1.09a.74.74,0,0,0,.63,0c-.09.28-.45.82-.89.82l-.9-.09-.81-.09c-.72,0-.9-1-.9-1.18,0,0,.36.36.63.36.09.09.18.09.36,0a1.42,1.42,0,0,0,.54-.82,1.84,1.84,0,0,0,0-1l-.27-.28h-.18a1.5,1.5,0,0,0-.81.37h-.09v-.09l.18-.28a1.77,1.77,0,0,0,.27-.45c.09-.18.09-.45-.09-.54a.87.87,0,0,0-.54-.37v-.45a5,5,0,0,0,1.89-.54c.8-.27,1.52-.64,2.15-.37a1.31,1.31,0,0,1,.72,1.28,2,2,0,0,1-.09.72,1.3,1.3,0,0,0-.63.18C-977.46-355.86-977.55-355.59-977.55-354.95Zm-4.58-1.82a1.57,1.57,0,0,0-.63.37.55.55,0,0,0-.09.54.86.86,0,0,0,.36.45l.09.28c.09.09,0,.09,0,.09a1.5,1.5,0,0,0-.81-.37h-.18c-.18.1-.27.19-.27.28a1.28,1.28,0,0,0-.08,1c.17.37.35.73.62.82a.27.27,0,0,0,.36,0c.27,0,.54-.36.54-.36h.09c-.09.18-.27,1.18-.9,1.18l-.89.09-.9.09c-.45,0-.72-.54-.9-.82a1,1,0,0,0,.72,0c.27-.09.45-.54.36-1.09s-.27-.9-.54-.9-.63.27-.72.54c-.09-.09-.09-.36-.09-.36,0-.64,0-.91-.27-1a1,1,0,0,0-.63-.18,2,2,0,0,1-.09-.72,1.47,1.47,0,0,1,.72-1.28c.63-.27,1.44.1,2.25.37a4.91,4.91,0,0,0,1.88.54Zm-4.4,4.54c-.09.09-.18.18-.27.18l-.54.18c-.27,0-.63.09-.81.09a.92.92,0,0,1-.81-.54.32.32,0,0,0,.45-.09,1,1,0,0,0,.09-.91c-.09-.45-.35-.82-.63-.82a1.57,1.57,0,0,0-.44.73,2.25,2.25,0,0,0-.36-1,.67.67,0,0,0-.45-.09,3,3,0,0,1-.45-1.36,1.24,1.24,0,0,1,.54-1,2.66,2.66,0,0,1,2.33-.19,3.77,3.77,0,0,0,.36,1.09c-.09.09-.18.18-.18.27v.09a3.17,3.17,0,0,1,1,1.18c-.18-.18-.45-.45-.81-.27s-.36.64-.18,1.18a1.14,1.14,0,0,0,.45.73.89.89,0,0,0,.81-.28c0,.1.09.19.09.37A.69.69,0,0,1-986.53-352.23Zm14.82-1.18a1.31,1.31,0,0,0-.81-1,2.72,2.72,0,0,0,.63-1.72v-.27a1.66,1.66,0,0,0-.72-1.18,3.16,3.16,0,0,0-3-.18,1.83,1.83,0,0,0-1.62-1.46,4.66,4.66,0,0,0-2.51.73,3.07,3.07,0,0,1-1.62.64v-.37a1.47,1.47,0,0,0,1-1.36,1.37,1.37,0,0,0-1.08-1.36v-.54h.36c.09.18.18.27.36.27a.5.5,0,0,0,.45-.54.51.51,0,0,0-.45-.55c-.18,0-.27.09-.36.27h-.36v-.36a.69.69,0,0,0,.18-.45.5.5,0,0,0-.54-.46.43.43,0,0,0-.45.46c0,.18,0,.36.18.45v.36h-.36a.49.49,0,0,0-.45-.27.51.51,0,0,0-.45.55.5.5,0,0,0,.45.54.49.49,0,0,0,.45-.27h.27v.54a1.37,1.37,0,0,0-1.08,1.36,1.44,1.44,0,0,0,1.08,1.36v.37a3,3,0,0,1-1.7-.64,4.39,4.39,0,0,0-2.43-.73,1.72,1.72,0,0,0-1.62,1.46,3.15,3.15,0,0,0-3,.18,1.79,1.79,0,0,0-.81,1.18v.27a2.72,2.72,0,0,0,.63,1.72,1.21,1.21,0,0,0-.72,1l-.09.09h.09s1.53.18,1.89.64a2.33,2.33,0,0,1,.54,1.27v.09a1.27,1.27,0,0,0,.45.27h.17v.18l.09,2.45h13.66l.09-2.45V-351h.27c.18-.09.45-.27.45-.27v-.09a2.35,2.35,0,0,1,.53-1.27c.37-.46,1.8-.64,1.8-.64h.09Z"/>
    </clipPath>
    <clipPath id="clip-path-22">
      <polygon class="cls-2" points="-909.28 -348.13 -909.28 -336.74 -907.69 -336.74 -907.69 -340.62 -903.88 -336.74 -901.67 -336.74 -906.09 -341.08 -902.11 -344.52 -904.32 -344.52 -907.69 -341.44 -907.69 -348.13 -909.28 -348.13"/>
    </clipPath>
    <clipPath id="clip-path-23">
      <rect class="cls-3" x="-928.23" y="-347.86" width="1.77" height="1.72"/>
    </clipPath>
    <clipPath id="clip-path-24">
      <rect class="cls-3" x="-942.21" y="-347.86" width="1.86" height="1.72"/>
    </clipPath>
    <clipPath id="clip-path-25">
      <polygon class="cls-2" points="-953.19 -347.32 -956.82 -338.09 -956.91 -338.09 -960.54 -347.32 -962.49 -347.32 -958.06 -336.74 -955.85 -336.74 -951.42 -347.32 -953.19 -347.32"/>
    </clipPath>
    <clipPath id="clip-path-26">
      <rect class="cls-3" x="-928.14" y="-344.51" width="1.59" height="7.78"/>
    </clipPath>
    <clipPath id="clip-path-27">
      <path class="cls-2" d="M-945.75-341.35h-4.34a2.18,2.18,0,0,1,2.21-2.08,2.07,2.07,0,0,1,2.13,2.08m-4.34,1.09h6.1c0-2.17-.79-4.43-3.8-4.43a3.78,3.78,0,0,0-4.07,4c0,2.72,1.68,4.17,4.42,4.17a8.09,8.09,0,0,0,2.75-.46v-1.62a5.39,5.39,0,0,1-2.66.72,2.49,2.49,0,0,1-2.74-2.35"/>
    </clipPath>
    <clipPath id="clip-path-28">
      <path class="cls-2" d="M-912.73-341.35h-4.34a2.19,2.19,0,0,1,2.21-2.08,2.07,2.07,0,0,1,2.13,2.08m-4.34,1.09h6c0-2.17-.71-4.43-3.72-4.43a3.78,3.78,0,0,0-4.07,4c0,2.72,1.68,4.17,4.43,4.17a8.55,8.55,0,0,0,2.74-.46v-1.62a5.39,5.39,0,0,1-2.66.72,2.49,2.49,0,0,1-2.74-2.35"/>
    </clipPath>
    <clipPath id="clip-path-29">
      <path class="cls-2" d="M-858.29-341.35h-4.24a2.17,2.17,0,0,1,2.21-2.08,2,2,0,0,1,2,2.08m-4.24,1.09h6c0-2.17-.71-4.43-3.8-4.43a3.76,3.76,0,0,0-4,4c0,2.72,1.69,4.17,4.43,4.17a8.49,8.49,0,0,0,2.74-.46v-1.62a5.33,5.33,0,0,1-2.65.72,2.48,2.48,0,0,1-2.74-2.35"/>
    </clipPath>
    <clipPath id="clip-path-30">
      <path class="cls-2" d="M-942.12-344.51h1.59v8.05c0,2.53-1,3.07-2.48,3.07h-1l.09-1.36a1.57,1.57,0,0,0,.62.1c.62,0,1.16-.28,1.16-1.63Z"/>
    </clipPath>
    <clipPath id="clip-path-31">
      <path class="cls-2" d="M-932.3-343.52v-4.61h1.6v11.39h-1.51v-1a3.73,3.73,0,0,1-2.92,1.18c-2.3,0-3.72-1.72-3.72-4.17s1.51-4,3.72-4a3.2,3.2,0,0,1,2.83,1.18m-2.48.09c-1.41,0-2.39,1-2.39,2.71s.89,3,2.39,3a2.61,2.61,0,0,0,2.48-2.89,2.58,2.58,0,0,0-2.48-2.81"/>
    </clipPath>
    <clipPath id="clip-path-32">
      <path class="cls-2" d="M-922.38-336.73h-1.69v-7.78h1.6v1.17a2.53,2.53,0,0,1,2.21-1.35c.44,0,.8.08,1.07.08v1.45a1.46,1.46,0,0,0-.89-.18c-1.24,0-2.3.82-2.3,3.17Z"/>
    </clipPath>
    <clipPath id="clip-path-33">
      <path class="cls-2" d="M-883.08-336.73h-1.59v-7.78h1.51v1.17a2.52,2.52,0,0,1,2.21-1.35c.44,0,.88.08,1.06.08v1.45a1.3,1.3,0,0,0-.88-.18c-1.24,0-2.31.82-2.31,3.17Z"/>
    </clipPath>
    <clipPath id="clip-path-34">
      <path class="cls-2" d="M-899.72-343.25h-1.86v-1.26h1.86v-1.72l1.59-.55v2.27h2.22v1.26h-2.22v4.07c0,.91.36,1.45,1.33,1.45a1.66,1.66,0,0,0,1.06-.36v1.36a4,4,0,0,1-1.41.18c-1.15,0-2.57-.55-2.57-2.17Z"/>
    </clipPath>
    <clipPath id="clip-path-35">
      <path class="cls-2" d="M-869.18-343.25h-1.77v-1.26h1.77v-1.72l1.69-.55v2.27h2.21v1.26h-2.21v4.07c0,.91.35,1.45,1.24,1.45a1.7,1.7,0,0,0,1.06-.36v1.36a3.63,3.63,0,0,1-1.33.18c-1.15,0-2.66-.55-2.66-2.17Z"/>
    </clipPath>
    <clipPath id="clip-path-36">
      <rect class="cls-1" x="-855.9" y="-346.78" width="5.75" height="10.22"/>
    </clipPath>
    <clipPath id="clip-path-37">
      <path class="cls-2" d="M-895-340.63a4,4,0,0,0,4.34,4.08c2.66,0,4.43-1.63,4.43-4.08s-1.77-4.07-4.43-4.07a4,4,0,0,0-4.34,4.07m1.68,0a2.56,2.56,0,0,1,2.66-2.8,2.58,2.58,0,0,1,2.75,2.8,2.61,2.61,0,0,1-2.75,2.9,2.59,2.59,0,0,1-2.66-2.9"/>
    </clipPath>
    <clipPath id="clip-path-38">
      <path class="cls-2" d="M-875.64-344.69c2.13,0,3.45.81,3.45,3.34v4.62h-1.5v-.91a3.21,3.21,0,0,1-2.57,1.09c-1.5,0-3.19-.46-3.19-2.45,0-1.63,1.78-2.53,4.08-2.53h1.59c0-1.18-.44-1.81-2.13-1.81a4.76,4.76,0,0,0-2.56.82v-1.63a5.79,5.79,0,0,1,2.83-.54m.89,4.25c-1.33,0-3,.27-3,1.44,0,.73.53,1.27,1.59,1.27s2.39-.45,2.39-2v-.63c-.35,0-.8-.09-1-.09"/>
    </clipPath>
  </defs>
  <title>kundelogoer_alle</title>
  <g>
    <g>
      <path class="cls-5" d="M-205.09-1248.94a1,1,0,0,0-.54.09,4.64,4.64,0,0,0-.36,1c-.09-.27-.18-.63-.45-.72s-.54.36-.63.81a1.42,1.42,0,0,0,.09.91.32.32,0,0,0,.45.09.91.91,0,0,1-.81.54c-.18,0-.45-.08-.81-.08l-.53-.19c-.09,0-.18-.09-.27-.18a.67.67,0,0,1-.09-.45v-.37c.27.19.53.37.8.28a1.2,1.2,0,0,0,.54-.73c.18-.54.09-1.09-.18-1.18a.59.59,0,0,0-.8.27,4,4,0,0,1,.89-1.18h.09v-.09l-.27-.27a2.21,2.21,0,0,0,.36-1.09,2.88,2.88,0,0,1,2.43.19,1.15,1.15,0,0,1,.45,1A2.77,2.77,0,0,1-205.09-1248.94Zm-4.4-.45v.36c-.18-.27-.45-.63-.81-.54s-.45.45-.54.9.18,1,.45,1.09a.74.74,0,0,0,.63,0c-.09.28-.45.82-.9.82l-.9-.09-.81-.09c-.72,0-.9-1-.9-1.18,0,0,.36.36.63.36.09.09.18.09.36,0a1.42,1.42,0,0,0,.54-.81,1.88,1.88,0,0,0,0-1l-.27-.27h-.18a1.46,1.46,0,0,0-.81.36h-.09v-.09l.18-.27a2.07,2.07,0,0,0,.27-.46c.09-.18.09-.45-.09-.54a.87.87,0,0,0-.54-.37v-.45a5,5,0,0,0,1.89-.54c.81-.27,1.53-.64,2.16-.37a1.3,1.3,0,0,1,.71,1.28,2,2,0,0,1-.09.72,1.29,1.29,0,0,0-.62.18C-209.4-1250.3-209.49-1250-209.49-1249.39Zm-4.58-1.82a1.45,1.45,0,0,0-.63.37.55.55,0,0,0-.09.54,1,1,0,0,0,.35.46l.09.27c.09.09,0,.09,0,.09a1.42,1.42,0,0,0-.8-.36h-.18q-.27.13-.27.27a1.26,1.26,0,0,0-.09,1c.18.36.36.72.63.81a.27.27,0,0,0,.36,0c.26,0,.53-.36.53-.36h.1c-.1.18-.28,1.18-.9,1.18l-.9.09-.9.09c-.45,0-.72-.54-.9-.82a1,1,0,0,0,.72,0c.27-.09.45-.54.36-1.09s-.27-.9-.54-.9-.63.27-.72.54c-.09-.09-.09-.36-.09-.36,0-.64,0-.91-.27-1a1,1,0,0,0-.63-.18,2,2,0,0,1-.09-.72,1.47,1.47,0,0,1,.72-1.28c.63-.27,1.44.1,2.25.37a5,5,0,0,0,1.89.54Zm-4.41,4.54c-.09.09-.18.18-.27.18l-.54.19c-.27,0-.62.08-.8.08a.91.91,0,0,1-.81-.54.32.32,0,0,0,.45-.09,1,1,0,0,0,.09-.91c-.09-.45-.36-.81-.63-.81a1.42,1.42,0,0,0-.45.72,2.29,2.29,0,0,0-.36-1,.67.67,0,0,0-.45-.09,3,3,0,0,1-.45-1.36,1.24,1.24,0,0,1,.54-1,2.68,2.68,0,0,1,2.34-.19,4.1,4.1,0,0,0,.35,1.09.45.45,0,0,0-.17.27v.09a3.32,3.32,0,0,1,1,1.18c-.18-.18-.45-.45-.81-.27s-.35.64-.17,1.18a1.09,1.09,0,0,0,.44.73.89.89,0,0,0,.81-.28c0,.1.09.19.09.37A.69.69,0,0,1-218.48-1246.67Zm14.83-1.18a1.31,1.31,0,0,0-.81-1,2.72,2.72,0,0,0,.63-1.72v-.27a1.66,1.66,0,0,0-.72-1.18,3.18,3.18,0,0,0-3-.18,1.82,1.82,0,0,0-1.61-1.46,4.7,4.7,0,0,0-2.52.73,3.07,3.07,0,0,1-1.62.64v-.37a1.47,1.47,0,0,0,1-1.36,1.37,1.37,0,0,0-1.08-1.36v-.54h.36c.09.18.18.27.36.27a.5.5,0,0,0,.45-.54.51.51,0,0,0-.45-.55c-.18,0-.27.09-.36.27h-.36v-.36a.69.69,0,0,0,.18-.45.5.5,0,0,0-.54-.46.43.43,0,0,0-.45.46c0,.18,0,.36.18.45v.36h-.36a.48.48,0,0,0-.44-.27.51.51,0,0,0-.45.55.5.5,0,0,0,.45.54.48.48,0,0,0,.44-.27h.28v.54a1.37,1.37,0,0,0-1.08,1.36,1.44,1.44,0,0,0,1.08,1.36v.37a3.08,3.08,0,0,1-1.71-.64,4.39,4.39,0,0,0-2.43-.73,1.71,1.71,0,0,0-1.61,1.46,3.17,3.17,0,0,0-3,.18,1.79,1.79,0,0,0-.81,1.18v.27a2.72,2.72,0,0,0,.63,1.72,1.21,1.21,0,0,0-.72,1l-.09.09h.09s1.53.18,1.89.64a2.33,2.33,0,0,1,.54,1.27v.09a1.27,1.27,0,0,0,.45.27h.18v.18l.09,2.45h13.65l.09-2.45v-.18h.27c.18-.09.45-.27.45-.27v-.09a2.33,2.33,0,0,1,.54-1.27c.36-.46,1.8-.64,1.8-.64h.09Z"/>
      <g class="cls-6">
        <rect class="cls-3" x="-243.51" y="-1269.46" width="1534.5" height="3050.89"/>
      </g>
    </g>
    <g>
      <g>
        <polygon class="cls-5" points="-141.23 -1242.57 -141.23 -1231.17 -139.63 -1231.17 -139.63 -1235.06 -135.83 -1231.17 -133.61 -1231.17 -138.04 -1235.52 -134.06 -1238.95 -136.27 -1238.95 -139.63 -1235.88 -139.63 -1242.57 -141.23 -1242.57"/>
        <g class="cls-7">
          <rect class="cls-3" x="-245.59" y="-1269.46" width="1534.5" height="3050.89"/>
        </g>
      </g>
      <g>
        <rect class="cls-3" x="-160.17" y="-1242.3" width="1.77" height="1.72"/>
        <g class="cls-8">
          <rect class="cls-3" x="-245.59" y="-1269.46" width="1534.5" height="3050.89"/>
        </g>
      </g>
      <g>
        <rect class="cls-3" x="-174.16" y="-1242.3" width="1.86" height="1.72"/>
        <g class="cls-9">
          <rect class="cls-3" x="-245.59" y="-1269.46" width="1534.5" height="3050.89"/>
        </g>
      </g>
      <g>
        <polygon class="cls-5" points="-185.14 -1241.76 -188.77 -1232.53 -188.86 -1232.53 -192.49 -1241.76 -194.44 -1241.76 -190.01 -1231.17 -187.79 -1231.17 -183.37 -1241.76 -185.14 -1241.76"/>
        <g class="cls-10">
          <rect class="cls-3" x="-245.59" y="-1269.46" width="1534.5" height="3050.89"/>
        </g>
      </g>
      <g>
        <rect class="cls-3" x="-160.08" y="-1238.95" width="1.59" height="7.78"/>
        <g class="cls-11">
          <rect class="cls-3" x="-245.59" y="-1269.46" width="1534.5" height="3050.89"/>
        </g>
      </g>
      <g>
        <path class="cls-5" d="M-177.7-1235.79H-182a2.19,2.19,0,0,1,2.21-2.08,2.07,2.07,0,0,1,2.13,2.08m-4.34,1.09h6.11c0-2.17-.8-4.43-3.81-4.43a3.78,3.78,0,0,0-4.07,4c0,2.72,1.68,4.17,4.43,4.17a8.07,8.07,0,0,0,2.74-.46v-1.62a5.39,5.39,0,0,1-2.66.72,2.49,2.49,0,0,1-2.74-2.35"/>
        <g class="cls-12">
          <rect class="cls-3" x="-245.59" y="-1269.46" width="1534.5" height="3050.89"/>
        </g>
      </g>
      <g>
        <path class="cls-5" d="M-144.68-1235.79H-149a2.19,2.19,0,0,1,2.21-2.08,2.07,2.07,0,0,1,2.13,2.08m-4.34,1.09h6c0-2.17-.71-4.43-3.72-4.43a3.78,3.78,0,0,0-4.07,4c0,2.72,1.68,4.17,4.43,4.17a8.55,8.55,0,0,0,2.74-.46v-1.62a5.35,5.35,0,0,1-2.65.72,2.5,2.5,0,0,1-2.75-2.35"/>
        <g class="cls-13">
          <rect class="cls-3" x="-245.59" y="-1269.46" width="1534.5" height="3050.89"/>
        </g>
      </g>
      <g>
        <path class="cls-5" d="M-90.23-1235.79h-4.25a2.18,2.18,0,0,1,2.21-2.08,2,2,0,0,1,2,2.08m-4.25,1.09h6c0-2.17-.71-4.43-3.81-4.43a3.75,3.75,0,0,0-4,4c0,2.72,1.68,4.17,4.42,4.17a8.57,8.57,0,0,0,2.75-.46v-1.62a5.39,5.39,0,0,1-2.66.72,2.49,2.49,0,0,1-2.74-2.35"/>
        <g class="cls-14">
          <rect class="cls-3" x="-245.59" y="-1269.46" width="1534.5" height="3050.89"/>
        </g>
      </g>
      <g>
        <path class="cls-5" d="M-174.07-1238.95h1.59v8c0,2.53-1,3.07-2.48,3.07h-1l.09-1.36a1.53,1.53,0,0,0,.62.1c.62,0,1.15-.28,1.15-1.63Z"/>
        <g class="cls-15">
          <rect class="cls-3" x="-245.59" y="-1269.46" width="1534.5" height="3050.89"/>
        </g>
      </g>
      <g>
        <path class="cls-5" d="M-164.25-1238v-4.61h1.6v11.39h-1.51v-1a3.71,3.71,0,0,1-2.92,1.18c-2.3,0-3.72-1.72-3.72-4.17s1.51-4,3.72-4a3.2,3.2,0,0,1,2.83,1.18m-2.47.09c-1.42,0-2.39,1-2.39,2.71s.88,3,2.39,3a2.6,2.6,0,0,0,2.47-2.89,2.58,2.58,0,0,0-2.47-2.81"/>
        <g class="cls-16">
          <rect class="cls-3" x="-245.59" y="-1269.46" width="1534.5" height="3050.89"/>
        </g>
      </g>
      <g>
        <path class="cls-5" d="M-154.33-1231.17H-156v-7.78h1.59v1.17a2.55,2.55,0,0,1,2.21-1.35c.45,0,.8.09,1.07.09v1.44a1.45,1.45,0,0,0-.89-.18c-1.24,0-2.3.82-2.3,3.17Z"/>
        <g class="cls-17">
          <rect class="cls-3" x="-245.59" y="-1269.46" width="1534.5" height="3050.89"/>
        </g>
      </g>
      <g>
        <path class="cls-5" d="M-115-1231.17h-1.6v-7.78h1.51v1.17a2.55,2.55,0,0,1,2.21-1.35c.45,0,.89.09,1.06.09v1.44a1.29,1.29,0,0,0-.88-.18c-1.24,0-2.3.82-2.3,3.17Z"/>
        <g class="cls-18">
          <rect class="cls-3" x="-245.59" y="-1269.46" width="1534.5" height="3050.89"/>
        </g>
      </g>
      <g>
        <path class="cls-5" d="M-131.67-1237.69h-1.86v-1.26h1.86v-1.72l1.6-.55v2.27h2.21v1.26h-2.21v4.07c0,.91.35,1.45,1.32,1.45a1.7,1.7,0,0,0,1.07-.36v1.36a4.1,4.1,0,0,1-1.42.18c-1.15,0-2.57-.55-2.57-2.17Z"/>
        <g class="cls-19">
          <rect class="cls-3" x="-245.59" y="-1269.46" width="1534.5" height="3050.89"/>
        </g>
      </g>
      <g>
        <path class="cls-5" d="M-101.12-1237.69h-1.77v-1.26h1.77v-1.72l1.68-.55v2.27h2.21v1.26h-2.21v4.07c0,.91.35,1.45,1.24,1.45a1.68,1.68,0,0,0,1.06-.36v1.36a3.6,3.6,0,0,1-1.33.18c-1.15,0-2.65-.55-2.65-2.17Z"/>
        <g class="cls-20">
          <rect class="cls-3" x="-245.59" y="-1269.46" width="1534.5" height="3050.89"/>
        </g>
      </g>
      <g>
        <path class="cls-5" d="M-127-1235.06a4,4,0,0,0,4.34,4.07c2.66,0,4.43-1.63,4.43-4.07s-1.77-4.08-4.43-4.08a4,4,0,0,0-4.34,4.08m1.69,0a2.56,2.56,0,0,1,2.65-2.81,2.59,2.59,0,0,1,2.75,2.81,2.61,2.61,0,0,1-2.75,2.89,2.58,2.58,0,0,1-2.65-2.89"/>
        <g class="cls-22">
          <rect class="cls-3" x="-245.59" y="-1269.46" width="1534.5" height="3050.89"/>
        </g>
      </g>
      <g>
        <path class="cls-5" d="M-107.59-1239.13c2.13,0,3.46.81,3.46,3.34v4.62h-1.51v-.91a3.17,3.17,0,0,1-2.56,1.09c-1.51,0-3.19-.46-3.19-2.45,0-1.62,1.77-2.53,4.07-2.53h1.6c0-1.18-.45-1.81-2.13-1.81a4.77,4.77,0,0,0-2.57.82v-1.63a5.9,5.9,0,0,1,2.83-.54m.89,4.25c-1.33,0-3,.27-3,1.44,0,.73.53,1.27,1.59,1.27s2.4-.45,2.4-2v-.63c-.36,0-.8-.09-1-.09"/>
        <g class="cls-23">
          <rect class="cls-3" x="-245.59" y="-1269.46" width="1534.5" height="3050.89"/>
        </g>
      </g>
    </g>
  </g>
  <path class="cls-3" d="M39,0h-35A3.93,3.93,0,0,0,0,3.94v47.6a3.93,3.93,0,0,0,3.94,3.94H39a3.94,3.94,0,0,0,3.94-3.94V3.94A3.94,3.94,0,0,0,39,0ZM35.81,8.16,27.33,32a12.39,12.39,0,0,1-2.8,4.66.79.79,0,0,0-.07,1.08c2.77,2.77,3,7.45,3.19,10a1.11,1.11,0,0,1-1,1.08H22A1.11,1.11,0,0,1,21,47.85c-.36-2.74-.54-4.92-1.73-6.32a1.32,1.32,0,0,0-.95-.59.87.87,0,0,0-.77.51l-3.66,6.63a1.15,1.15,0,0,1-1.05.7H8A1.11,1.11,0,0,1,7,47.67a1.24,1.24,0,0,1,.18-.59l4.67-8.63a.77.77,0,0,0,.09-.33c0-.63-.38-.6-1.1-1.38-2-2.2-2.34-4.56-2.34-8.73A1.11,1.11,0,0,1,9.56,27H13.9A1.1,1.1,0,0,1,15,28c0,.41,0,1.35.1,2.27.15,1.4.86,3,2.56,3a3.27,3.27,0,0,0,2.82-1.67,30.26,30.26,0,0,0,1.62-4.05.94.94,0,0,0,.09-.42.83.83,0,0,0-.66-.79c-1-.24-5.23-1.19-5.51-7.2s-.34-10.69-.37-11.28a1.11,1.11,0,0,1,1-1.13h4.53a1.12,1.12,0,0,1,1.15,1.17c.05,1.34.07,2.83.07,5.1s-.06,1.66-.06,3.09a12.68,12.68,0,0,0,.24,3.27,1.64,1.64,0,0,0,1.26,1.22.85.85,0,0,0,.85-.59c.75-2.1,4.06-11.7,4.33-12.46a1.11,1.11,0,0,1,1.11-.8h4.65a1.1,1.1,0,0,1,1,1.12A1.17,1.17,0,0,1,35.81,8.16Z"/>
  <g>
    <g>
      <path class="cls-5" d="M-973.15-354.5a.94.94,0,0,0-.53.09,4.46,4.46,0,0,0-.36,1c-.09-.27-.18-.63-.45-.73s-.54.37-.63.82a1.42,1.42,0,0,0,.09.91.32.32,0,0,0,.45.09.91.91,0,0,1-.81.54c-.18,0-.45-.09-.81-.09l-.54-.18c-.09,0-.18-.09-.27-.18a.67.67,0,0,1-.09-.45V-353c.27.19.54.37.81.28a1.2,1.2,0,0,0,.54-.73c.18-.54.09-1.09-.18-1.18a.6.6,0,0,0-.81.27,4.09,4.09,0,0,1,.9-1.18h.09v-.09l-.27-.27a2.21,2.21,0,0,0,.36-1.09,2.88,2.88,0,0,1,2.43.19,1.14,1.14,0,0,1,.44,1A2.69,2.69,0,0,1-973.15-354.5Zm-4.4-.45v.36c-.18-.27-.45-.63-.81-.54s-.44.45-.53.9.18,1,.44,1.09a.74.74,0,0,0,.63,0c-.09.28-.45.82-.89.82l-.9-.09-.81-.09c-.72,0-.9-1-.9-1.18,0,0,.36.36.63.36.09.09.18.09.36,0a1.42,1.42,0,0,0,.54-.82,1.84,1.84,0,0,0,0-1l-.27-.28h-.18a1.5,1.5,0,0,0-.81.37h-.09v-.09l.18-.28a1.77,1.77,0,0,0,.27-.45c.09-.18.09-.45-.09-.54a.87.87,0,0,0-.54-.37v-.45a5,5,0,0,0,1.89-.54c.8-.27,1.52-.64,2.15-.37a1.31,1.31,0,0,1,.72,1.28,2,2,0,0,1-.09.72,1.3,1.3,0,0,0-.63.18C-977.46-355.86-977.55-355.59-977.55-354.95Zm-4.58-1.82a1.57,1.57,0,0,0-.63.37.55.55,0,0,0-.09.54.86.86,0,0,0,.36.45l.09.28c.09.09,0,.09,0,.09a1.5,1.5,0,0,0-.81-.37h-.18c-.18.1-.27.19-.27.28a1.28,1.28,0,0,0-.08,1c.17.37.35.73.62.82a.27.27,0,0,0,.36,0c.27,0,.54-.36.54-.36h.09c-.09.18-.27,1.18-.9,1.18l-.89.09-.9.09c-.45,0-.72-.54-.9-.82a1,1,0,0,0,.72,0c.27-.09.45-.54.36-1.09s-.27-.9-.54-.9-.63.27-.72.54c-.09-.09-.09-.36-.09-.36,0-.64,0-.91-.27-1a1,1,0,0,0-.63-.18,2,2,0,0,1-.09-.72,1.47,1.47,0,0,1,.72-1.28c.63-.27,1.44.1,2.25.37a4.91,4.91,0,0,0,1.88.54Zm-4.4,4.54c-.09.09-.18.18-.27.18l-.54.18c-.27,0-.63.09-.81.09a.92.92,0,0,1-.81-.54.32.32,0,0,0,.45-.09,1,1,0,0,0,.09-.91c-.09-.45-.35-.82-.63-.82a1.57,1.57,0,0,0-.44.73,2.25,2.25,0,0,0-.36-1,.67.67,0,0,0-.45-.09,3,3,0,0,1-.45-1.36,1.24,1.24,0,0,1,.54-1,2.66,2.66,0,0,1,2.33-.19,3.77,3.77,0,0,0,.36,1.09c-.09.09-.18.18-.18.27v.09a3.17,3.17,0,0,1,1,1.18c-.18-.18-.45-.45-.81-.27s-.36.64-.18,1.18a1.14,1.14,0,0,0,.45.73.89.89,0,0,0,.81-.28c0,.1.09.19.09.37A.69.69,0,0,1-986.53-352.23Zm14.82-1.18a1.31,1.31,0,0,0-.81-1,2.72,2.72,0,0,0,.63-1.72v-.27a1.66,1.66,0,0,0-.72-1.18,3.16,3.16,0,0,0-3-.18,1.83,1.83,0,0,0-1.62-1.46,4.66,4.66,0,0,0-2.51.73,3.07,3.07,0,0,1-1.62.64v-.37a1.47,1.47,0,0,0,1-1.36,1.37,1.37,0,0,0-1.08-1.36v-.54h.36c.09.18.18.27.36.27a.5.5,0,0,0,.45-.54.51.51,0,0,0-.45-.55c-.18,0-.27.09-.36.27h-.36v-.36a.69.69,0,0,0,.18-.45.5.5,0,0,0-.54-.46.43.43,0,0,0-.45.46c0,.18,0,.36.18.45v.36h-.36a.49.49,0,0,0-.45-.27.51.51,0,0,0-.45.55.5.5,0,0,0,.45.54.49.49,0,0,0,.45-.27h.27v.54a1.37,1.37,0,0,0-1.08,1.36,1.44,1.44,0,0,0,1.08,1.36v.37a3,3,0,0,1-1.7-.64,4.39,4.39,0,0,0-2.43-.73,1.72,1.72,0,0,0-1.62,1.46,3.15,3.15,0,0,0-3,.18,1.79,1.79,0,0,0-.81,1.18v.27a2.72,2.72,0,0,0,.63,1.72,1.21,1.21,0,0,0-.72,1l-.09.09h.09s1.53.18,1.89.64a2.33,2.33,0,0,1,.54,1.27v.09a1.27,1.27,0,0,0,.45.27h.17v.18l.09,2.45h13.66l.09-2.45V-351h.27c.18-.09.45-.27.45-.27v-.09a2.35,2.35,0,0,1,.53-1.27c.37-.46,1.8-.64,1.8-.64h.09Z"/>
      <g class="cls-25">
        <rect class="cls-3" x="-1011.56" y="-375.02" width="1534.5" height="3050.89"/>
      </g>
    </g>
    <g>
      <g>
        <polygon class="cls-5" points="-909.28 -348.13 -909.28 -336.74 -907.69 -336.74 -907.69 -340.62 -903.88 -336.74 -901.67 -336.74 -906.09 -341.08 -902.11 -344.52 -904.32 -344.52 -907.69 -341.44 -907.69 -348.13 -909.28 -348.13"/>
        <g class="cls-26">
          <rect class="cls-3" x="-1013.64" y="-375.02" width="1534.5" height="3050.89"/>
        </g>
      </g>
      <g>
        <rect class="cls-3" x="-928.23" y="-347.86" width="1.77" height="1.72"/>
        <g class="cls-27">
          <rect class="cls-3" x="-1013.64" y="-375.02" width="1534.5" height="3050.89"/>
        </g>
      </g>
      <g>
        <rect class="cls-3" x="-942.21" y="-347.86" width="1.86" height="1.72"/>
        <g class="cls-28">
          <rect class="cls-3" x="-1013.64" y="-375.02" width="1534.5" height="3050.89"/>
        </g>
      </g>
      <g>
        <polygon class="cls-5" points="-953.19 -347.32 -956.82 -338.09 -956.91 -338.09 -960.54 -347.32 -962.49 -347.32 -958.06 -336.74 -955.85 -336.74 -951.42 -347.32 -953.19 -347.32"/>
        <g class="cls-29">
          <rect class="cls-3" x="-1013.64" y="-375.02" width="1534.5" height="3050.89"/>
        </g>
      </g>
      <g>
        <rect class="cls-3" x="-928.14" y="-344.51" width="1.59" height="7.78"/>
        <g class="cls-30">
          <rect class="cls-3" x="-1013.64" y="-375.02" width="1534.5" height="3050.89"/>
        </g>
      </g>
      <g>
        <path class="cls-5" d="M-945.75-341.35h-4.34a2.18,2.18,0,0,1,2.21-2.08,2.07,2.07,0,0,1,2.13,2.08m-4.34,1.09h6.1c0-2.17-.79-4.43-3.8-4.43a3.78,3.78,0,0,0-4.07,4c0,2.72,1.68,4.17,4.42,4.17a8.09,8.09,0,0,0,2.75-.46v-1.62a5.39,5.39,0,0,1-2.66.72,2.49,2.49,0,0,1-2.74-2.35"/>
        <g class="cls-31">
          <rect class="cls-3" x="-1013.64" y="-375.02" width="1534.5" height="3050.89"/>
        </g>
      </g>
      <g>
        <path class="cls-5" d="M-912.73-341.35h-4.34a2.19,2.19,0,0,1,2.21-2.08,2.07,2.07,0,0,1,2.13,2.08m-4.34,1.09h6c0-2.17-.71-4.43-3.72-4.43a3.78,3.78,0,0,0-4.07,4c0,2.72,1.68,4.17,4.43,4.17a8.55,8.55,0,0,0,2.74-.46v-1.62a5.39,5.39,0,0,1-2.66.72,2.49,2.49,0,0,1-2.74-2.35"/>
        <g class="cls-32">
          <rect class="cls-3" x="-1013.64" y="-375.02" width="1534.5" height="3050.89"/>
        </g>
      </g>
      <g>
        <path class="cls-5" d="M-858.29-341.35h-4.24a2.17,2.17,0,0,1,2.21-2.08,2,2,0,0,1,2,2.08m-4.24,1.09h6c0-2.17-.71-4.43-3.8-4.43a3.76,3.76,0,0,0-4,4c0,2.72,1.69,4.17,4.43,4.17a8.49,8.49,0,0,0,2.74-.46v-1.62a5.33,5.33,0,0,1-2.65.72,2.48,2.48,0,0,1-2.74-2.35"/>
        <g class="cls-33">
          <rect class="cls-3" x="-1013.64" y="-375.02" width="1534.5" height="3050.89"/>
        </g>
      </g>
      <g>
        <path class="cls-5" d="M-942.12-344.51h1.59v8.05c0,2.53-1,3.07-2.48,3.07h-1l.09-1.36a1.57,1.57,0,0,0,.62.1c.62,0,1.16-.28,1.16-1.63Z"/>
        <g class="cls-34">
          <rect class="cls-3" x="-1013.64" y="-375.02" width="1534.5" height="3050.89"/>
        </g>
      </g>
      <g>
        <path class="cls-5" d="M-932.3-343.52v-4.61h1.6v11.39h-1.51v-1a3.73,3.73,0,0,1-2.92,1.18c-2.3,0-3.72-1.72-3.72-4.17s1.51-4,3.72-4a3.2,3.2,0,0,1,2.83,1.18m-2.48.09c-1.41,0-2.39,1-2.39,2.71s.89,3,2.39,3a2.61,2.61,0,0,0,2.48-2.89,2.58,2.58,0,0,0-2.48-2.81"/>
        <g class="cls-35">
          <rect class="cls-3" x="-1013.64" y="-375.02" width="1534.5" height="3050.89"/>
        </g>
      </g>
      <g>
        <path class="cls-5" d="M-922.38-336.73h-1.69v-7.78h1.6v1.17a2.53,2.53,0,0,1,2.21-1.35c.44,0,.8.08,1.07.08v1.45a1.46,1.46,0,0,0-.89-.18c-1.24,0-2.3.82-2.3,3.17Z"/>
        <g class="cls-36">
          <rect class="cls-3" x="-1013.64" y="-375.02" width="1534.5" height="3050.89"/>
        </g>
      </g>
      <g>
        <path class="cls-5" d="M-883.08-336.73h-1.59v-7.78h1.51v1.17a2.52,2.52,0,0,1,2.21-1.35c.44,0,.88.08,1.06.08v1.45a1.3,1.3,0,0,0-.88-.18c-1.24,0-2.31.82-2.31,3.17Z"/>
        <g class="cls-37">
          <rect class="cls-3" x="-1013.64" y="-375.02" width="1534.5" height="3050.89"/>
        </g>
      </g>
      <g>
        <path class="cls-5" d="M-899.72-343.25h-1.86v-1.26h1.86v-1.72l1.59-.55v2.27h2.22v1.26h-2.22v4.07c0,.91.36,1.45,1.33,1.45a1.66,1.66,0,0,0,1.06-.36v1.36a4,4,0,0,1-1.41.18c-1.15,0-2.57-.55-2.57-2.17Z"/>
        <g class="cls-38">
          <rect class="cls-3" x="-1013.64" y="-375.02" width="1534.5" height="3050.89"/>
        </g>
      </g>
      <g>
        <path class="cls-5" d="M-869.18-343.25h-1.77v-1.26h1.77v-1.72l1.69-.55v2.27h2.21v1.26h-2.21v4.07c0,.91.35,1.45,1.24,1.45a1.7,1.7,0,0,0,1.06-.36v1.36a3.63,3.63,0,0,1-1.33.18c-1.15,0-2.66-.55-2.66-2.17Z"/>
        <g class="cls-39">
          <rect class="cls-3" x="-1013.64" y="-375.02" width="1534.5" height="3050.89"/>
        </g>
      </g>
      <g>
        <path class="cls-5" d="M-895-340.63a4,4,0,0,0,4.34,4.08c2.66,0,4.43-1.63,4.43-4.08s-1.77-4.07-4.43-4.07a4,4,0,0,0-4.34,4.07m1.68,0a2.56,2.56,0,0,1,2.66-2.8,2.58,2.58,0,0,1,2.75,2.8,2.61,2.61,0,0,1-2.75,2.9,2.59,2.59,0,0,1-2.66-2.9"/>
        <g class="cls-41">
          <rect class="cls-3" x="-1013.64" y="-375.02" width="1534.5" height="3050.89"/>
        </g>
      </g>
      <g>
        <path class="cls-5" d="M-875.64-344.69c2.13,0,3.45.81,3.45,3.34v4.62h-1.5v-.91a3.21,3.21,0,0,1-2.57,1.09c-1.5,0-3.19-.46-3.19-2.45,0-1.63,1.78-2.53,4.08-2.53h1.59c0-1.18-.44-1.81-2.13-1.81a4.76,4.76,0,0,0-2.56.82v-1.63a5.79,5.79,0,0,1,2.83-.54m.89,4.25c-1.33,0-3,.27-3,1.44,0,.73.53,1.27,1.59,1.27s2.39-.45,2.39-2v-.63c-.35,0-.8-.09-1-.09"/>
        <g class="cls-42">
          <rect class="cls-3" x="-1013.64" y="-375.02" width="1534.5" height="3050.89"/>
        </g>
      </g>
    </g>
  </g>
</svg>
