<svg id="Layer_1" data-name="Layer 1" xmlns="http://www.w3.org/2000/svg" width="81.33" height="30.63" viewBox="0 0 81.33 30.63">
  <defs>
    <style>
      .cls-1 {
        fill: #647689;
      }
    </style>
  </defs>
  <title>kundelogoer_alle</title>
  <g>
    <path class="cls-1" d="M32.48,23a16.66,16.66,0,0,1-4.64,3.26A10.63,10.63,0,0,1,17.5,26a41.29,41.29,0,0,1-3.9-2.6c-1.06-.66-2.12-1.39-3.26-2a11,11,0,0,0-4.8-1.06L5.86,20l9.53-9.69a.78.78,0,0,0,.32-.41c.17-1,.41-1.87.57-2.93H3.09c-.08,0-.24.16-.24.16-.16,1-.41,2-.57,3.1h8.14l-.32.41-9.86,10a.93.93,0,0,0-.24.65,20.15,20.15,0,0,1,.33,2c0,.32.16.4.4.4H3.09a14.21,14.21,0,0,1,8.06,2.36c1.06.74,2.2,1.47,3.26,2.2a13.76,13.76,0,0,0,7.16,2.28,16.58,16.58,0,0,0,9.61-2.52A15.55,15.55,0,0,0,34.6,25.4l-1.87-2.69Z"/>
    <path class="cls-1" d="M32.48,12.7c0-.16-.08-.41-.08-.57a6.11,6.11,0,0,0-4.15-5.05A8.4,8.4,0,0,0,20,8.63a10.53,10.53,0,0,0-3.83,9.85,5.86,5.86,0,0,0,4.07,5.21,8.52,8.52,0,0,0,8.31-1.55,10.36,10.36,0,0,0,4-8.46A3,3,0,0,0,32.48,12.7Zm-5.12,5.37a7,7,0,0,1-1.63,2.12,3.16,3.16,0,0,1-4.56-.32,3.05,3.05,0,0,1-.74-1.63c-.08-.41-.08-.82-.16-1.14a9.47,9.47,0,0,1,2-5.78,4,4,0,0,1,3-1.63,3,3,0,0,1,3.09,2.6A8.9,8.9,0,0,1,27.36,18.07Z"/>
    <path class="cls-1" d="M46.24,6.92a7.85,7.85,0,0,0-7.41,1.47,10.9,10.9,0,0,0-4.15,10.09A5.85,5.85,0,0,0,40.22,24a12.33,12.33,0,0,0,6.19-.82c1-.32,1-.32.81-1.3v-.24L47,19.87h-.17l-.32.16a8.85,8.85,0,0,1-5.21.81,3.34,3.34,0,0,1-2.85-4h.4c1,0,2,0,3-.08a12,12,0,0,0,5.37-1.3A4.5,4.5,0,0,0,49.58,11,4.42,4.42,0,0,0,46.24,6.92Zm-1.06,5.7a6,6,0,0,1-1.62.89,14.2,14.2,0,0,1-4.56.33,5.07,5.07,0,0,1,4.23-4.23,2.43,2.43,0,0,1,1.3.16,1.63,1.63,0,0,1,1.31,1.87,1.67,1.67,0,0,1-.66,1Z"/>
    <path class="cls-1" d="M58.21,7,59,2.69c-1.39.4-2.69.73-4,1.14-.17.08-.25.16-.25.32-.16.82-.32,1.63-.49,2.53-.08.24-.16.32-.4.32h-2l-.57,3.1h2.36l-.24,1.14c-.57,2.76-1.06,5.45-1.55,8.22a3.63,3.63,0,0,0,2.69,4.39c.08,0,.24.09.32.09a7.28,7.28,0,0,0,3.5-.09c.74-.16.82-.16.82-1V20.6a1.06,1.06,0,0,1-.49.08,14.63,14.63,0,0,1-1.87.08,1,1,0,0,1-1-1,2,2,0,0,1,0-1c.33-1.55.65-3.18.9-4.73L57.56,10H61c.16,0,.32-.08.32-.16a28.67,28.67,0,0,0,.57-2.93Z"/>
    <path class="cls-1" d="M75.47,10.1a3.14,3.14,0,0,1,2.28-.41c.9.16,1.71.41,2.61.57l1-2.77-.49-.24a9,9,0,0,0-6.51-.09,6,6,0,0,0-2.93,2.2,4.37,4.37,0,0,0,.49,5.78,14.69,14.69,0,0,0,1.79,1.31c.49.32,1,.57,1.47.89A2,2,0,0,1,76,19.46,2,2,0,0,1,74.41,21a4.77,4.77,0,0,1-2.85-.16c-.73-.24-1.38-.49-2.11-.73l-1,2.85a3.22,3.22,0,0,0,.57.32,9.63,9.63,0,0,0,5.86.82,6.51,6.51,0,0,0,4.07-2,4.71,4.71,0,0,0-.08-6.59,1.22,1.22,0,0,0-.33-.25,19.54,19.54,0,0,0-2-1.38,6.68,6.68,0,0,1-1.3-.9,1.6,1.6,0,0,1-.17-2.36A.87.87,0,0,1,75.47,10.1Z"/>
    <path class="cls-1" d="M64.89,7,61.71,23.69h4L68.88,7Z"/>
    <path class="cls-1" d="M67.49,4.56A2.43,2.43,0,0,0,69.93,2.2V2.12A2,2,0,0,0,67.9,0h-.16a2.44,2.44,0,0,0-2.45,2.36v.08a2,2,0,0,0,1.88,2.12Z"/>
  </g>
</svg>
