<svg version="1.1" id="__2ZjcfRh__Layer_1" xmlns="http://www.w3.org/2000/svg" xmlns:xlink="http://www.w3.org/1999/xlink" x="0px" y="0px" viewBox="0 0 260.6 422.5" style="enable-background:new 0 0 260.6 422.5;" xml:space="preserve"><g><polygon points="235.2,207.5 252.4,181 242.7,179.5 246.9,151.9 229.7,178.4 239.4,179.8 "/><path d="M80.7,158.7c-9.4,0-17,7.6-17,17c0,1.9,1.6,3.5,3.5,3.5s3.5-1.6,3.5-3.5c0-5.5,4.5-10,10-10s10,4.5,10,10 c0,1.9,1.6,3.5,3.5,3.5s3.5-1.6,3.5-3.5C97.7,166.3,90.1,158.7,80.7,158.7z"/><path d="M126.4,158.7c-9.4,0-17,7.6-17,17c0,1.9,1.6,3.5,3.5,3.5s3.5-1.6,3.5-3.5c0-5.5,4.5-10,10-10c5.5,0,10,4.5,10,10 c0,1.9,1.6,3.5,3.5,3.5s3.5-1.6,3.5-3.5C143.4,166.3,135.8,158.7,126.4,158.7z"/><path d="M260.6,218.8c0-1.9-1.6-3.5-3.5-3.5s-3.5,1.6-3.5,3.5c0,8-6.5,14.5-14.5,14.5s-14.5-6.5-14.5-14.5c0-1.9-1.6-3.5-3.5-3.5 s-3.5,1.6-3.5,3.5c0,11.2,8.5,20.4,19.5,21.4v21.6h-9.3c-1.9,0-3.5,1.6-3.5,3.5v61h-55.1c-1.5-27.2-20.2-49.9-45.5-57.3v-28.9h40.9 c13,0,23.6-10.5,23.7-23.6v-21.6h16.5c1.9,0,3.5-1.5,3.5-3.5v-32c0-1.9-1.6-3.5-3.5-3.5h-16.5V140c0-13-10.6-23.6-23.6-23.6h-57.1 V97.8c7.2-1.6,12.7-8,12.7-15.8c0-9-7.3-16.2-16.2-16.2S87.9,73.1,87.9,82c0,7.7,5.5,14.2,12.7,15.8v18.6h-57 C30.6,116.4,20,127,20,140v15.9H3.5c-1.9,0-3.5,1.6-3.5,3.5v32c0,1.9,1.6,3.5,3.5,3.5H20v21.6c0,13,10.6,23.6,23.6,23.6h44.3V269 c-26.2,7.8-45.4,32-45.4,60.8c0,1.9,1.6,3.5,3.5,3.5h23.9c0.3,0.1,0.7,0.2,1.1,0.2s0.7-0.1,1.1-0.2h64.4v20.4 c0,1.9,1.6,3.5,3.5,3.5h111c1.9,0,3.5-1.6,3.5-3.5v-88.4c0-1.9-1.6-3.5-3.5-3.5h-9.9v-21.6C252,239.2,260.6,229.9,260.6,218.8z M188.3,162.9h12.9v25h-12.9V162.9z M20,187.9H7v-25h13V187.9z M94.9,82c0-5.1,4.1-9.2,9.2-9.2s9.2,4.1,9.2,9.2s-4.1,9.2-9.2,9.2 S94.9,87.1,94.9,82z M43.6,233.2c-9.2,0-16.6-7.5-16.6-16.6v-25.2v-32v-19.3c0-9.2,7.5-16.6,16.6-16.6h121.1 c9.2,0,16.6,7.5,16.6,16.6v19.3l0,0v32l0,0v25.2c0,9.2-7.5,16.6-16.6,16.6H121c-0.3-0.1-0.5-0.1-0.8-0.1H91.4c-0.3,0-0.5,0-0.8,0.1 H43.6z M116.7,240.1v27.2c-3.5-0.6-7.1-0.9-10.8-0.9c-3.8,0-7.4,0.3-11,1v-27.3L116.7,240.1L116.7,240.1z M74.7,326.3 c1.1-9,6-16.8,13-21.8l13.5,21.8H74.7z M106,326.3l-14.8-24c4.4-2.3,9.3-3.6,14.6-3.6c16,0,29.2,12.1,31.1,27.6H106z M105.8,291.7 c-19.9,0-36.2,15.2-38.1,34.6H49.5c1.8-29.5,26.4-52.9,56.3-52.9s54.5,23.4,56.3,52.9h-18.2C142,306.9,125.7,291.7,105.8,291.7z M247.4,268.8v81.4h-104v-16.9h22.3h0.1h61.9c1.9,0,3.5-1.6,3.5-3.5v-61H247.4z"/><path d="M170.8,212.8v-68.2c0-6.6-5.3-11.9-11.9-11.9H49.3c-6.6,0-11.9,5.3-11.9,11.9v68.2c0,6.6,5.3,11.9,11.9,11.9h109.6 C165.5,224.7,170.8,219.4,170.8,212.8z M44.4,212.7v-68.2c0-2.7,2.2-4.9,4.9-4.9h109.6c2.7,0,4.9,2.2,4.9,4.9v68.2 c0,2.7-2.2,4.9-4.9,4.9H49.3C46.6,217.6,44.4,215.4,44.4,212.7z"/></g></svg>