<svg id="Layer_1" data-name="Layer 1" xmlns="http://www.w3.org/2000/svg" width="97.01" height="31.26" viewBox="0 0 97.01 31.26">
  <defs>
    <style>
      .cls-1 {
        fill: #647689;
      }
    </style>
  </defs>
  <title>kundelogoer_alle</title>
  <g>
    <path id="path2998" class="cls-1" d="M23.81,11.68l-11.31.25.07,3.36,8-.18c-.29,4.71-4.16,6.81-7.85,6.89a8.82,8.82,0,0,1-9.06-8.74,8.85,8.85,0,0,1,8.67-9.19,8.74,8.74,0,0,1,6.1,2.29l2.29-2.48A12,12,0,0,0,12.15.71,12.54,12.54,0,0,0,0,13.29,12.5,12.5,0,0,0,12.88,25.36c6.6-.15,11.33-4.77,11.18-11.46a10.15,10.15,0,0,0-.25-2.22Z"/>
    <path id="path3000" class="cls-1" d="M33,9a7.83,7.83,0,0,0-7.79,8,8,8,0,0,0,15.92-.27A7.77,7.77,0,0,0,33,9Zm.11,3.11a4.56,4.56,0,0,1,4.56,4.72,4.5,4.5,0,1,1-9,.18,4.57,4.57,0,0,1,4.42-4.9Z"/>
    <path id="path3005" class="cls-1" d="M50.34,8.65a7.93,7.93,0,1,0,.41,15.85,7.77,7.77,0,0,0,7.72-8.07,7.76,7.76,0,0,0-8.13-7.78Zm.12,3.11A4.56,4.56,0,0,1,55,16.48a4.5,4.5,0,1,1-9,.18,4.59,4.59,0,0,1,4.43-4.9Z"/>
    <path id="path3007" class="cls-1" d="M67.34,8.28a7.86,7.86,0,0,0-7.43,8.09,7.81,7.81,0,0,0,7.71,7.76,5.22,5.22,0,0,0,4.3-2l0,1.56c.06,2.74-1.56,4.41-4.07,4.47a4.41,4.41,0,0,1-4.12-2.73l-3,1.34A7.65,7.65,0,0,0,68,31.26c4.23-.1,7.4-2.84,7.27-8.43L75,8.59l-3.33.07,0,1.34a5.63,5.63,0,0,0-4.31-1.72Zm.38,3.1c2.09-.05,4.27,1.69,4.34,4.73S70,21,67.89,21a4.5,4.5,0,0,1-4.49-4.67,4.57,4.57,0,0,1,4.32-5Z"/>
    <path id="path3011" class="cls-1" d="M89.71,7.76c-4,.09-7.32,3.36-7.22,8.08a7.67,7.67,0,0,0,8,7.78A8.06,8.06,0,0,0,97,20l-2.78-1.76A4.43,4.43,0,0,1,90.4,20.5a4.11,4.11,0,0,1-4-2.31L97,13.54l-.58-1.28a7.17,7.17,0,0,0-6.69-4.5Zm.2,3.05a3.14,3.14,0,0,1,3,1.62l-7,3.13a4.41,4.41,0,0,1,4.06-4.75Z"/>
    <path id="path3015" class="cls-1" d="M77.59,23.44l3.49-.08L80.56,0,77.07.08Z"/>
  </g>
</svg>
