<svg id="Layer_1" data-name="Layer 1" xmlns="http://www.w3.org/2000/svg" xmlns:xlink="http://www.w3.org/1999/xlink" width="54.03" height="46.01" viewBox="0 0 54.03 46.01">
  <defs>
    <style>
      .cls-1 {
        fill: none;
      }

      .cls-2, .cls-3, .cls-4 {
        fill: #647689;
      }

      .cls-2 {
        clip-rule: evenodd;
      }

      .cls-4 {
        fill-rule: evenodd;
      }

      .cls-5 {
        clip-path: url(#clip-path);
      }

      .cls-6 {
        clip-path: url(#clip-path-2);
      }

      .cls-7 {
        clip-path: url(#clip-path-3);
      }

      .cls-8 {
        clip-path: url(#clip-path-4);
      }

      .cls-9 {
        clip-path: url(#clip-path-5);
      }

      .cls-10 {
        clip-path: url(#clip-path-6);
      }

      .cls-11 {
        clip-path: url(#clip-path-7);
      }

      .cls-12 {
        clip-path: url(#clip-path-8);
      }

      .cls-13 {
        clip-path: url(#clip-path-9);
      }

      .cls-14 {
        clip-path: url(#clip-path-10);
      }

      .cls-15 {
        clip-path: url(#clip-path-11);
      }

      .cls-16 {
        clip-path: url(#clip-path-12);
      }

      .cls-17 {
        clip-path: url(#clip-path-13);
      }

      .cls-18 {
        clip-path: url(#clip-path-14);
      }

      .cls-19 {
        clip-path: url(#clip-path-15);
      }

      .cls-20 {
        clip-path: url(#clip-path-16);
      }

      .cls-21 {
        clip-path: url(#clip-path-17);
      }

      .cls-22 {
        clip-path: url(#clip-path-18);
      }

      .cls-23 {
        clip-path: url(#clip-path-19);
      }
    </style>
    <clipPath id="clip-path">
      <rect class="cls-1" x="-44.64" y="-351.52" width="23.39" height="20.48"/>
    </clipPath>
    <clipPath id="clip-path-2">
      <path class="cls-2" d="M-24.34-359.23a1,1,0,0,0-.54.09,4.29,4.29,0,0,0-.36,1c-.09-.28-.18-.64-.44-.73s-.54.36-.63.82a1.44,1.44,0,0,0,.09.91.31.31,0,0,0,.45.08.9.9,0,0,1-.81.55c-.18,0-.45-.09-.81-.09l-.54-.18c-.09,0-.18-.09-.27-.18a.72.72,0,0,1-.09-.46v-.36c.27.18.54.36.81.27a1.18,1.18,0,0,0,.54-.72c.18-.55.09-1.09-.18-1.18a.6.6,0,0,0-.81.27,4.09,4.09,0,0,1,.9-1.18h.09v-.09l-.27-.27a2.24,2.24,0,0,0,.36-1.09,2.85,2.85,0,0,1,2.42.18,1.16,1.16,0,0,1,.45,1A2.83,2.83,0,0,1-24.34-359.23Zm-4.4-.46v.37c-.18-.28-.45-.64-.81-.55s-.45.46-.54.91.18,1,.45,1.09a.74.74,0,0,0,.63,0c-.09.27-.45.81-.9.81l-.89-.08-.81-.1c-.72,0-.9-1-.9-1.18,0,0,.36.37.63.37.09.09.18.09.36,0a1.4,1.4,0,0,0,.53-.82,1.88,1.88,0,0,0,0-1l-.27-.27h-.17a1.46,1.46,0,0,0-.81.36h-.09v-.09l.18-.27a2,2,0,0,0,.27-.45c.09-.18.09-.46-.09-.55a.83.83,0,0,0-.54-.36v-.45a5,5,0,0,0,1.88-.55c.81-.27,1.53-.63,2.16-.36a1.28,1.28,0,0,1,.72,1.27,2.06,2.06,0,0,1-.09.73,1.3,1.3,0,0,0-.63.18C-28.65-360.59-28.74-360.32-28.74-359.69Zm-4.58-1.81a1.45,1.45,0,0,0-.63.36.57.57,0,0,0-.09.55.9.9,0,0,0,.36.45l.09.27c.09.09,0,.09,0,.09a1.46,1.46,0,0,0-.81-.36h-.18q-.27.13-.27.27a1.26,1.26,0,0,0-.09,1c.18.36.36.73.63.82a.27.27,0,0,0,.36,0c.27,0,.54-.37.54-.37h.09c-.09.19-.27,1.18-.9,1.18l-.9.1-.9.08c-.44,0-.71-.54-.89-.81a.93.93,0,0,0,.71,0c.27-.09.45-.55.36-1.09s-.27-.91-.53-.91-.63.27-.72.55c-.09-.09-.09-.37-.09-.37,0-.63,0-.9-.27-1a1,1,0,0,0-.63-.18,2.06,2.06,0,0,1-.09-.73,1.44,1.44,0,0,1,.72-1.27c.63-.27,1.43.09,2.24.36a5,5,0,0,0,1.89.55Zm-4.4,4.54c-.09.09-.18.18-.27.18l-.54.18c-.27,0-.63.09-.81.09a.9.9,0,0,1-.81-.55.31.31,0,0,0,.45-.08,1,1,0,0,0,.09-.91c-.09-.46-.36-.82-.63-.82a1.41,1.41,0,0,0-.45.73,2.21,2.21,0,0,0-.36-1,.66.66,0,0,0-.44-.09,3.06,3.06,0,0,1-.45-1.36,1.26,1.26,0,0,1,.54-1,2.65,2.65,0,0,1,2.33-.18,3.88,3.88,0,0,0,.36,1.09c-.09.09-.18.18-.18.27v.09a3.17,3.17,0,0,1,1,1.18c-.18-.18-.45-.46-.81-.27s-.36.63-.18,1.18a1.11,1.11,0,0,0,.45.72.91.91,0,0,0,.81-.27c0,.09.09.18.09.36A.74.74,0,0,1-37.72-357Zm14.82-1.18a1.3,1.3,0,0,0-.81-1,2.74,2.74,0,0,0,.63-1.72v-.28a1.68,1.68,0,0,0-.72-1.18,3.19,3.19,0,0,0-3-.18,1.82,1.82,0,0,0-1.62-1.45,4.53,4.53,0,0,0-2.52.73,3,3,0,0,1-1.61.63v-.36a1.48,1.48,0,0,0,1-1.36,1.36,1.36,0,0,0-1.08-1.36v-.55h.36c.09.19.18.28.36.28a.51.51,0,0,0,.45-.55.5.5,0,0,0-.45-.54c-.18,0-.27.09-.36.27h-.36v-.37a.67.67,0,0,0,.18-.45A.5.5,0,0,0-33-368a.43.43,0,0,0-.45.45c0,.18,0,.37.18.45v.37h-.36A.49.49,0,0,0-34-367a.5.5,0,0,0-.45.54.51.51,0,0,0,.45.55.49.49,0,0,0,.45-.28h.27v.55a1.36,1.36,0,0,0-1.08,1.36,1.44,1.44,0,0,0,1.08,1.36v.36a3.07,3.07,0,0,1-1.71-.63,4.2,4.2,0,0,0-2.42-.73,1.72,1.72,0,0,0-1.62,1.45,3.18,3.18,0,0,0-3,.18,1.81,1.81,0,0,0-.81,1.18v.28a2.74,2.74,0,0,0,.63,1.72,1.2,1.2,0,0,0-.72,1L-43-358h.09s1.53.18,1.88.63a2.38,2.38,0,0,1,.54,1.27v.09a1.21,1.21,0,0,0,.45.28h.18v.18l.09,2.45h13.66l.09-2.45v-.18h.27a4,4,0,0,0,.44-.28v-.09a2.38,2.38,0,0,1,.54-1.27c.36-.45,1.8-.63,1.8-.63h.09Z"/>
    </clipPath>
    <clipPath id="clip-path-3">
      <polygon class="cls-2" points="39.53 -352.87 39.53 -341.47 41.12 -341.47 41.12 -345.36 44.93 -341.47 47.14 -341.47 42.72 -345.81 46.7 -349.25 44.48 -349.25 41.12 -346.17 41.12 -352.87 39.53 -352.87"/>
    </clipPath>
    <clipPath id="clip-path-4">
      <rect class="cls-3" x="20.58" y="-352.6" width="1.77" height="1.72"/>
    </clipPath>
    <clipPath id="clip-path-5">
      <rect class="cls-3" x="6.59" y="-352.6" width="1.86" height="1.72"/>
    </clipPath>
    <clipPath id="clip-path-6">
      <polygon class="cls-2" points="-4.38 -352.05 -8.01 -342.83 -8.1 -342.83 -11.73 -352.05 -13.68 -352.05 -9.25 -341.47 -7.04 -341.47 -2.62 -352.05 -4.38 -352.05"/>
    </clipPath>
    <clipPath id="clip-path-7">
      <rect class="cls-3" x="20.67" y="-349.25" width="1.59" height="7.78"/>
    </clipPath>
    <clipPath id="clip-path-8">
      <path class="cls-2" d="M3.05-346.08H-1.29a2.18,2.18,0,0,1,2.22-2.08,2.06,2.06,0,0,1,2.12,2.08M-1.29-345H4.82c0-2.17-.79-4.43-3.81-4.43a3.79,3.79,0,0,0-4.07,4c0,2.71,1.68,4.16,4.43,4.16a8.07,8.07,0,0,0,2.74-.45v-1.63a5.33,5.33,0,0,1-2.65.72A2.5,2.5,0,0,1-1.29-345"/>
    </clipPath>
    <clipPath id="clip-path-9">
      <path class="cls-2" d="M36.08-346.08H31.74A2.17,2.17,0,0,1,34-348.16a2.07,2.07,0,0,1,2.13,2.08M31.74-345h6c0-2.17-.71-4.43-3.72-4.43a3.78,3.78,0,0,0-4.07,4c0,2.71,1.68,4.16,4.42,4.16a8.62,8.62,0,0,0,2.75-.45v-1.63a5.39,5.39,0,0,1-2.66.72A2.49,2.49,0,0,1,31.74-345"/>
    </clipPath>
    <clipPath id="clip-path-10">
      <path class="cls-2" d="M90.52-346.08H86.27a2.18,2.18,0,0,1,2.21-2.08,2,2,0,0,1,2,2.08M86.27-345h6c0-2.17-.71-4.43-3.81-4.43a3.77,3.77,0,0,0-4,4c0,2.71,1.68,4.16,4.43,4.16a8.61,8.61,0,0,0,2.74-.45v-1.63a5.38,5.38,0,0,1-2.65.72A2.5,2.5,0,0,1,86.27-345"/>
    </clipPath>
    <clipPath id="clip-path-11">
      <path class="cls-2" d="M6.68-349.25h1.6v8.05c0,2.53-1,3.08-2.48,3.08h-1l.09-1.36a1.71,1.71,0,0,0,.62.09c.62,0,1.15-.27,1.15-1.63Z"/>
    </clipPath>
    <clipPath id="clip-path-12">
      <path class="cls-2" d="M16.51-348.25v-4.62H18.1v11.4H16.6v-1a3.72,3.72,0,0,1-2.92,1.17c-2.3,0-3.72-1.72-3.72-4.16s1.5-4,3.72-4a3.2,3.2,0,0,1,2.83,1.18m-2.48.09c-1.42,0-2.39,1-2.39,2.71s.89,3,2.39,3a2.62,2.62,0,0,0,2.48-2.9,2.58,2.58,0,0,0-2.48-2.8"/>
    </clipPath>
    <clipPath id="clip-path-13">
      <path class="cls-2" d="M26.42-341.47H24.74v-7.78h1.59v1.18a2.55,2.55,0,0,1,2.22-1.36c.44,0,.8.09,1.06.09v1.45a1.42,1.42,0,0,0-.88-.18c-1.24,0-2.31.81-2.31,3.16Z"/>
    </clipPath>
    <clipPath id="clip-path-14">
      <path class="cls-2" d="M65.73-341.47H64.14v-7.78h1.51v1.18a2.52,2.52,0,0,1,2.21-1.36c.44,0,.88.09,1.06.09v1.45a1.32,1.32,0,0,0-.89-.18c-1.23,0-2.3.81-2.3,3.16Z"/>
    </clipPath>
    <clipPath id="clip-path-15">
      <path class="cls-2" d="M49.09-348H47.23v-1.27h1.86V-351l1.59-.54v2.26h2.21V-348H50.68v4.07c0,.9.36,1.45,1.33,1.45a1.63,1.63,0,0,0,1.06-.37v1.36a4,4,0,0,1-1.41.18c-1.15,0-2.57-.54-2.57-2.17Z"/>
    </clipPath>
    <clipPath id="clip-path-16">
      <path class="cls-2" d="M79.63-348H77.86v-1.27h1.77V-351l1.68-.54v2.26h2.22V-348H81.31v4.07c0,.9.36,1.45,1.24,1.45a1.66,1.66,0,0,0,1.07-.37v1.36a3.63,3.63,0,0,1-1.33.18c-1.15,0-2.66-.54-2.66-2.17Z"/>
    </clipPath>
    <clipPath id="clip-path-17">
      <rect class="cls-1" x="92.91" y="-351.51" width="5.75" height="10.22"/>
    </clipPath>
    <clipPath id="clip-path-18">
      <path class="cls-2" d="M53.78-345.36a4,4,0,0,0,4.34,4.07c2.65,0,4.43-1.63,4.43-4.07s-1.78-4.07-4.43-4.07a4,4,0,0,0-4.34,4.07m1.68,0a2.56,2.56,0,0,1,2.66-2.8,2.57,2.57,0,0,1,2.74,2.8,2.61,2.61,0,0,1-2.74,2.9,2.59,2.59,0,0,1-2.66-2.9"/>
    </clipPath>
    <clipPath id="clip-path-19">
      <path class="cls-2" d="M73.17-349.43c2.12,0,3.45.81,3.45,3.35v4.61h-1.5v-.9a3.21,3.21,0,0,1-2.57,1.08c-1.51,0-3.19-.45-3.19-2.44,0-1.63,1.77-2.53,4.07-2.53H75c0-1.18-.45-1.81-2.13-1.81a4.81,4.81,0,0,0-2.56.81v-1.63a5.9,5.9,0,0,1,2.83-.54m.89,4.25c-1.33,0-3,.27-3,1.45,0,.72.54,1.26,1.6,1.26s2.39-.45,2.39-2v-.64c-.36,0-.8-.09-1-.09"/>
    </clipPath>
  </defs>
  <title>kundelogoer_alle</title>
  <g>
    <path class="cls-4" d="M25.46,18.79h-.18a1.17,1.17,0,0,0-.89.25.92.92,0,0,0-.27.81v7.46a.92.92,0,0,0,.27.81,1.17,1.17,0,0,0,.89.25h.18c2.54,0,4-1.83,4-4.79S28,18.79,25.46,18.79Z"/>
    <path class="cls-4" d="M53.32,1c-.92-1-2.1-1-3.51-1H11.9A5,5,0,0,0,8.38.94,4.26,4.26,0,0,0,6.81,4L.17,41.63C-.06,42.91-.2,44,.71,45s2.1,1,3.51,1H42.13a5,5,0,0,0,3.52-.93,4.26,4.26,0,0,0,1.57-3L53.86,4.39C54.08,3.1,54.23,2,53.32,1ZM18.79,17.6a1,1,0,0,1-.27.81,1.19,1.19,0,0,1-.89.25H16.2a1.25,1.25,0,0,0-.9.24,1,1,0,0,0-.27.81v10a1,1,0,0,1-.27.81,1.17,1.17,0,0,1-.89.25h-2a1.17,1.17,0,0,1-.89-.25,1,1,0,0,1-.27-.81v-10a1,1,0,0,0-.27-.81,1.24,1.24,0,0,0-.9-.24H8.12a1.17,1.17,0,0,1-.89-.25A1,1,0,0,1,7,17.6v-.38a.93.93,0,0,1,.27-.8,1.17,1.17,0,0,1,.89-.25h9.51a1.19,1.19,0,0,1,.89.25.93.93,0,0,1,.27.8Zm7.12,13.2H21.17a1.2,1.2,0,0,1-.9-.25,1,1,0,0,1-.27-.81v-9.6a.93.93,0,0,1,.27-.8,1.2,1.2,0,0,1,.9-.25h1.48a1.17,1.17,0,0,0,.89-.25,1,1,0,0,0,.28-.81v-.8a.91.91,0,0,1,.27-.81,1.17,1.17,0,0,1,.89-.25h.93c5.19,0,7.65,3.1,7.65,7.31S31.1,30.8,25.91,30.8ZM47.2,29.09l-.13.73a1,1,0,0,1-.36.66,1.62,1.62,0,0,1-.86.32,15.76,15.76,0,0,1-2.26.14c-5.16,0-7.65-3.52-7.65-7.45s2.49-7.44,7.65-7.44a14.49,14.49,0,0,1,1.9.1,1.23,1.23,0,0,1,.71.31,1.13,1.13,0,0,1,.24.8v.45a1,1,0,0,1-.22.79.84.84,0,0,1-.74.24h-.14c-2.65-.19-5.07,1.17-5.07,4.76,0,3,1.82,4.71,4.35,4.71.5,0,1.07,0,1.45-.08h.18a.9.9,0,0,1,.79.21A.8.8,0,0,1,47.2,29.09Z"/>
  </g>
  <g>
    <g>
      <path class="cls-4" d="M-24.34-359.23a1,1,0,0,0-.54.09,4.29,4.29,0,0,0-.36,1c-.09-.28-.18-.64-.44-.73s-.54.36-.63.82a1.44,1.44,0,0,0,.09.91.31.31,0,0,0,.45.08.9.9,0,0,1-.81.55c-.18,0-.45-.09-.81-.09l-.54-.18c-.09,0-.18-.09-.27-.18a.72.72,0,0,1-.09-.46v-.36c.27.18.54.36.81.27a1.18,1.18,0,0,0,.54-.72c.18-.55.09-1.09-.18-1.18a.6.6,0,0,0-.81.27,4.09,4.09,0,0,1,.9-1.18h.09v-.09l-.27-.27a2.24,2.24,0,0,0,.36-1.09,2.85,2.85,0,0,1,2.42.18,1.16,1.16,0,0,1,.45,1A2.83,2.83,0,0,1-24.34-359.23Zm-4.4-.46v.37c-.18-.28-.45-.64-.81-.55s-.45.46-.54.91.18,1,.45,1.09a.74.74,0,0,0,.63,0c-.09.27-.45.81-.9.81l-.89-.08-.81-.1c-.72,0-.9-1-.9-1.18,0,0,.36.37.63.37.09.09.18.09.36,0a1.4,1.4,0,0,0,.53-.82,1.88,1.88,0,0,0,0-1l-.27-.27h-.17a1.46,1.46,0,0,0-.81.36h-.09v-.09l.18-.27a2,2,0,0,0,.27-.45c.09-.18.09-.46-.09-.55a.83.83,0,0,0-.54-.36v-.45a5,5,0,0,0,1.88-.55c.81-.27,1.53-.63,2.16-.36a1.28,1.28,0,0,1,.72,1.27,2.06,2.06,0,0,1-.09.73,1.3,1.3,0,0,0-.63.18C-28.65-360.59-28.74-360.32-28.74-359.69Zm-4.58-1.81a1.45,1.45,0,0,0-.63.36.57.57,0,0,0-.09.55.9.9,0,0,0,.36.45l.09.27c.09.09,0,.09,0,.09a1.46,1.46,0,0,0-.81-.36h-.18q-.27.13-.27.27a1.26,1.26,0,0,0-.09,1c.18.36.36.73.63.82a.27.27,0,0,0,.36,0c.27,0,.54-.37.54-.37h.09c-.09.19-.27,1.18-.9,1.18l-.9.1-.9.08c-.44,0-.71-.54-.89-.81a.93.93,0,0,0,.71,0c.27-.09.45-.55.36-1.09s-.27-.91-.53-.91-.63.27-.72.55c-.09-.09-.09-.37-.09-.37,0-.63,0-.9-.27-1a1,1,0,0,0-.63-.18,2.06,2.06,0,0,1-.09-.73,1.44,1.44,0,0,1,.72-1.27c.63-.27,1.43.09,2.24.36a5,5,0,0,0,1.89.55Zm-4.4,4.54c-.09.09-.18.18-.27.18l-.54.18c-.27,0-.63.09-.81.09a.9.9,0,0,1-.81-.55.31.31,0,0,0,.45-.08,1,1,0,0,0,.09-.91c-.09-.46-.36-.82-.63-.82a1.41,1.41,0,0,0-.45.73,2.21,2.21,0,0,0-.36-1,.66.66,0,0,0-.44-.09,3.06,3.06,0,0,1-.45-1.36,1.26,1.26,0,0,1,.54-1,2.65,2.65,0,0,1,2.33-.18,3.88,3.88,0,0,0,.36,1.09c-.09.09-.18.18-.18.27v.09a3.17,3.17,0,0,1,1,1.18c-.18-.18-.45-.46-.81-.27s-.36.63-.18,1.18a1.11,1.11,0,0,0,.45.72.91.91,0,0,0,.81-.27c0,.09.09.18.09.36A.74.74,0,0,1-37.72-357Zm14.82-1.18a1.3,1.3,0,0,0-.81-1,2.74,2.74,0,0,0,.63-1.72v-.28a1.68,1.68,0,0,0-.72-1.18,3.19,3.19,0,0,0-3-.18,1.82,1.82,0,0,0-1.62-1.45,4.53,4.53,0,0,0-2.52.73,3,3,0,0,1-1.61.63v-.36a1.48,1.48,0,0,0,1-1.36,1.36,1.36,0,0,0-1.08-1.36v-.55h.36c.09.19.18.28.36.28a.51.51,0,0,0,.45-.55.5.5,0,0,0-.45-.54c-.18,0-.27.09-.36.27h-.36v-.37a.67.67,0,0,0,.18-.45A.5.5,0,0,0-33-368a.43.43,0,0,0-.45.45c0,.18,0,.37.18.45v.37h-.36A.49.49,0,0,0-34-367a.5.5,0,0,0-.45.54.51.51,0,0,0,.45.55.49.49,0,0,0,.45-.28h.27v.55a1.36,1.36,0,0,0-1.08,1.36,1.44,1.44,0,0,0,1.08,1.36v.36a3.07,3.07,0,0,1-1.71-.63,4.2,4.2,0,0,0-2.42-.73,1.72,1.72,0,0,0-1.62,1.45,3.18,3.18,0,0,0-3,.18,1.81,1.81,0,0,0-.81,1.18v.28a2.74,2.74,0,0,0,.63,1.72,1.2,1.2,0,0,0-.72,1L-43-358h.09s1.53.18,1.88.63a2.38,2.38,0,0,1,.54,1.27v.09a1.21,1.21,0,0,0,.45.28h.18v.18l.09,2.45h13.66l.09-2.45v-.18h.27a4,4,0,0,0,.44-.28v-.09a2.38,2.38,0,0,1,.54-1.27c.36-.45,1.8-.63,1.8-.63h.09Z"/>
      <g class="cls-6">
        <rect class="cls-3" x="-62.75" y="-379.75" width="1534.5" height="3050.89"/>
      </g>
    </g>
    <g>
      <g>
        <polygon class="cls-4" points="39.53 -352.87 39.53 -341.47 41.12 -341.47 41.12 -345.36 44.93 -341.47 47.14 -341.47 42.72 -345.81 46.7 -349.25 44.48 -349.25 41.12 -346.17 41.12 -352.87 39.53 -352.87"/>
        <g class="cls-7">
          <rect class="cls-3" x="-64.83" y="-379.75" width="1534.5" height="3050.89"/>
        </g>
      </g>
      <g>
        <rect class="cls-3" x="20.58" y="-352.6" width="1.77" height="1.72"/>
        <g class="cls-8">
          <rect class="cls-3" x="-64.83" y="-379.75" width="1534.5" height="3050.89"/>
        </g>
      </g>
      <g>
        <rect class="cls-3" x="6.59" y="-352.6" width="1.86" height="1.72"/>
        <g class="cls-9">
          <rect class="cls-3" x="-64.83" y="-379.75" width="1534.5" height="3050.89"/>
        </g>
      </g>
      <g>
        <polygon class="cls-4" points="-4.38 -352.05 -8.01 -342.83 -8.1 -342.83 -11.73 -352.05 -13.68 -352.05 -9.25 -341.47 -7.04 -341.47 -2.62 -352.05 -4.38 -352.05"/>
        <g class="cls-10">
          <rect class="cls-3" x="-64.83" y="-379.75" width="1534.5" height="3050.89"/>
        </g>
      </g>
      <g>
        <rect class="cls-3" x="20.67" y="-349.25" width="1.59" height="7.78"/>
        <g class="cls-11">
          <rect class="cls-3" x="-64.83" y="-379.75" width="1534.5" height="3050.89"/>
        </g>
      </g>
      <g>
        <path class="cls-4" d="M3.05-346.08H-1.29a2.18,2.18,0,0,1,2.22-2.08,2.06,2.06,0,0,1,2.12,2.08M-1.29-345H4.82c0-2.17-.79-4.43-3.81-4.43a3.79,3.79,0,0,0-4.07,4c0,2.71,1.68,4.16,4.43,4.16a8.07,8.07,0,0,0,2.74-.45v-1.63a5.33,5.33,0,0,1-2.65.72A2.5,2.5,0,0,1-1.29-345"/>
        <g class="cls-12">
          <rect class="cls-3" x="-64.83" y="-379.75" width="1534.5" height="3050.89"/>
        </g>
      </g>
      <g>
        <path class="cls-4" d="M36.08-346.08H31.74A2.17,2.17,0,0,1,34-348.16a2.07,2.07,0,0,1,2.13,2.08M31.74-345h6c0-2.17-.71-4.43-3.72-4.43a3.78,3.78,0,0,0-4.07,4c0,2.71,1.68,4.16,4.42,4.16a8.62,8.62,0,0,0,2.75-.45v-1.63a5.39,5.39,0,0,1-2.66.72A2.49,2.49,0,0,1,31.74-345"/>
        <g class="cls-13">
          <rect class="cls-3" x="-64.83" y="-379.75" width="1534.5" height="3050.89"/>
        </g>
      </g>
      <g>
        <path class="cls-4" d="M90.52-346.08H86.27a2.18,2.18,0,0,1,2.21-2.08,2,2,0,0,1,2,2.08M86.27-345h6c0-2.17-.71-4.43-3.81-4.43a3.77,3.77,0,0,0-4,4c0,2.71,1.68,4.16,4.43,4.16a8.61,8.61,0,0,0,2.74-.45v-1.63a5.38,5.38,0,0,1-2.65.72A2.5,2.5,0,0,1,86.27-345"/>
        <g class="cls-14">
          <rect class="cls-3" x="-64.83" y="-379.75" width="1534.5" height="3050.89"/>
        </g>
      </g>
      <g>
        <path class="cls-4" d="M6.68-349.25h1.6v8.05c0,2.53-1,3.08-2.48,3.08h-1l.09-1.36a1.71,1.71,0,0,0,.62.09c.62,0,1.15-.27,1.15-1.63Z"/>
        <g class="cls-15">
          <rect class="cls-3" x="-64.83" y="-379.75" width="1534.5" height="3050.89"/>
        </g>
      </g>
      <g>
        <path class="cls-4" d="M16.51-348.25v-4.62H18.1v11.4H16.6v-1a3.72,3.72,0,0,1-2.92,1.17c-2.3,0-3.72-1.72-3.72-4.16s1.5-4,3.72-4a3.2,3.2,0,0,1,2.83,1.18m-2.48.09c-1.42,0-2.39,1-2.39,2.71s.89,3,2.39,3a2.62,2.62,0,0,0,2.48-2.9,2.58,2.58,0,0,0-2.48-2.8"/>
        <g class="cls-16">
          <rect class="cls-3" x="-64.83" y="-379.75" width="1534.5" height="3050.89"/>
        </g>
      </g>
      <g>
        <path class="cls-4" d="M26.42-341.47H24.74v-7.78h1.59v1.18a2.55,2.55,0,0,1,2.22-1.36c.44,0,.8.09,1.06.09v1.45a1.42,1.42,0,0,0-.88-.18c-1.24,0-2.31.81-2.31,3.16Z"/>
        <g class="cls-17">
          <rect class="cls-3" x="-64.83" y="-379.75" width="1534.5" height="3050.89"/>
        </g>
      </g>
      <g>
        <path class="cls-4" d="M65.73-341.47H64.14v-7.78h1.51v1.18a2.52,2.52,0,0,1,2.21-1.36c.44,0,.88.09,1.06.09v1.45a1.32,1.32,0,0,0-.89-.18c-1.23,0-2.3.81-2.3,3.16Z"/>
        <g class="cls-18">
          <rect class="cls-3" x="-64.83" y="-379.75" width="1534.5" height="3050.89"/>
        </g>
      </g>
      <g>
        <path class="cls-4" d="M49.09-348H47.23v-1.27h1.86V-351l1.59-.54v2.26h2.21V-348H50.68v4.07c0,.9.36,1.45,1.33,1.45a1.63,1.63,0,0,0,1.06-.37v1.36a4,4,0,0,1-1.41.18c-1.15,0-2.57-.54-2.57-2.17Z"/>
        <g class="cls-19">
          <rect class="cls-3" x="-64.83" y="-379.75" width="1534.5" height="3050.89"/>
        </g>
      </g>
      <g>
        <path class="cls-4" d="M79.63-348H77.86v-1.27h1.77V-351l1.68-.54v2.26h2.22V-348H81.31v4.07c0,.9.36,1.45,1.24,1.45a1.66,1.66,0,0,0,1.07-.37v1.36a3.63,3.63,0,0,1-1.33.18c-1.15,0-2.66-.54-2.66-2.17Z"/>
        <g class="cls-20">
          <rect class="cls-3" x="-64.83" y="-379.75" width="1534.5" height="3050.89"/>
        </g>
      </g>
      <g>
        <path class="cls-4" d="M53.78-345.36a4,4,0,0,0,4.34,4.07c2.65,0,4.43-1.63,4.43-4.07s-1.78-4.07-4.43-4.07a4,4,0,0,0-4.34,4.07m1.68,0a2.56,2.56,0,0,1,2.66-2.8,2.57,2.57,0,0,1,2.74,2.8,2.61,2.61,0,0,1-2.74,2.9,2.59,2.59,0,0,1-2.66-2.9"/>
        <g class="cls-22">
          <rect class="cls-3" x="-64.83" y="-379.75" width="1534.5" height="3050.89"/>
        </g>
      </g>
      <g>
        <path class="cls-4" d="M73.17-349.43c2.12,0,3.45.81,3.45,3.35v4.61h-1.5v-.9a3.21,3.21,0,0,1-2.57,1.08c-1.51,0-3.19-.45-3.19-2.44,0-1.63,1.77-2.53,4.07-2.53H75c0-1.18-.45-1.81-2.13-1.81a4.81,4.81,0,0,0-2.56.81v-1.63a5.9,5.9,0,0,1,2.83-.54m.89,4.25c-1.33,0-3,.27-3,1.45,0,.72.54,1.26,1.6,1.26s2.39-.45,2.39-2v-.64c-.36,0-.8-.09-1-.09"/>
        <g class="cls-23">
          <rect class="cls-3" x="-64.83" y="-379.75" width="1534.5" height="3050.89"/>
        </g>
      </g>
    </g>
  </g>
</svg>
