<svg id="Layer_1" data-name="Layer 1" xmlns="http://www.w3.org/2000/svg" xmlns:xlink="http://www.w3.org/1999/xlink" width="137.88" height="34.46" viewBox="0 0 137.88 34.46">
  <defs>
    <style>
      .cls-1 {
        fill: none;
      }

      .cls-2, .cls-3, .cls-5 {
        fill: #647689;
      }

      .cls-2 {
        clip-rule: evenodd;
      }

      .cls-4 {
        clip-path: url(#clip-path);
      }

      .cls-5 {
        fill-rule: evenodd;
      }

      .cls-6 {
        clip-path: url(#clip-path-2);
      }

      .cls-7 {
        clip-path: url(#clip-path-3);
      }

      .cls-8 {
        clip-path: url(#clip-path-4);
      }

      .cls-9 {
        clip-path: url(#clip-path-5);
      }

      .cls-10 {
        clip-path: url(#clip-path-6);
      }

      .cls-11 {
        clip-path: url(#clip-path-7);
      }

      .cls-12 {
        clip-path: url(#clip-path-8);
      }

      .cls-13 {
        clip-path: url(#clip-path-9);
      }

      .cls-14 {
        clip-path: url(#clip-path-10);
      }

      .cls-15 {
        clip-path: url(#clip-path-11);
      }

      .cls-16 {
        clip-path: url(#clip-path-12);
      }

      .cls-17 {
        clip-path: url(#clip-path-13);
      }

      .cls-18 {
        clip-path: url(#clip-path-14);
      }

      .cls-19 {
        clip-path: url(#clip-path-15);
      }

      .cls-20 {
        clip-path: url(#clip-path-16);
      }

      .cls-21 {
        clip-path: url(#clip-path-17);
      }

      .cls-22 {
        clip-path: url(#clip-path-18);
      }

      .cls-23 {
        clip-path: url(#clip-path-19);
      }
    </style>
    <clipPath id="clip-path">
      <rect class="cls-1" x="-219.55" y="-357.3" width="23.39" height="20.48"/>
    </clipPath>
    <clipPath id="clip-path-2">
      <path class="cls-2" d="M-199.25-365a1,1,0,0,0-.54.09,5,5,0,0,0-.35,1c-.09-.27-.18-.63-.45-.73s-.54.37-.63.82a1.43,1.43,0,0,0,.09.91.32.32,0,0,0,.45.09.91.91,0,0,1-.81.54c-.18,0-.45-.09-.81-.09l-.54-.18c-.09,0-.18-.09-.27-.18a.67.67,0,0,1-.09-.45v-.37c.27.19.54.37.81.27a1.15,1.15,0,0,0,.54-.72c.18-.54.09-1.09-.18-1.18a.6.6,0,0,0-.81.27,4.09,4.09,0,0,1,.9-1.18h.09v-.09l-.27-.27a2.24,2.24,0,0,0,.36-1.09,2.91,2.91,0,0,1,2.43.18,1.17,1.17,0,0,1,.44,1A2.69,2.69,0,0,1-199.25-365Zm-4.4-.45v.36c-.18-.27-.45-.63-.81-.54s-.44.45-.53.9.18,1,.44,1.09a.74.74,0,0,0,.63,0c-.09.28-.45.82-.89.82l-.9-.09-.81-.09c-.72,0-.9-1-.9-1.18,0,0,.36.36.63.36.09.09.18.09.36,0a1.42,1.42,0,0,0,.54-.82,1.84,1.84,0,0,0,0-1l-.27-.28h-.18a1.5,1.5,0,0,0-.81.37h-.09v-.09l.18-.28a2,2,0,0,0,.27-.45c.09-.18.09-.45-.09-.54a.84.84,0,0,0-.54-.37v-.45a5,5,0,0,0,1.89-.54c.8-.28,1.52-.64,2.15-.37a1.3,1.3,0,0,1,.72,1.27,2,2,0,0,1-.09.73,1.3,1.3,0,0,0-.63.18C-203.56-366.37-203.65-366.1-203.65-365.46Zm-4.58-1.82a1.47,1.47,0,0,0-.63.37.55.55,0,0,0-.09.54.9.9,0,0,0,.36.45l.09.28c.09.09,0,.09,0,.09a1.5,1.5,0,0,0-.81-.37h-.18c-.18.1-.27.19-.27.28a1.33,1.33,0,0,0-.09,1c.18.37.36.73.63.82a.27.27,0,0,0,.36,0c.27,0,.54-.36.54-.36h.09c-.09.18-.27,1.18-.9,1.18l-.89.09-.9.09c-.45,0-.72-.54-.9-.82a1,1,0,0,0,.72,0c.27-.09.45-.54.36-1.09s-.27-.9-.54-.9-.63.27-.72.54c-.09-.09-.09-.36-.09-.36,0-.64,0-.91-.27-1a1,1,0,0,0-.63-.18,2,2,0,0,1-.09-.73,1.46,1.46,0,0,1,.72-1.27c.63-.27,1.44.09,2.25.37a4.91,4.91,0,0,0,1.88.54Zm-4.4,4.54c-.09.09-.18.18-.27.18l-.54.18c-.27,0-.63.09-.81.09a.92.92,0,0,1-.81-.54.32.32,0,0,0,.45-.09,1,1,0,0,0,.09-.91c-.09-.45-.36-.82-.63-.82a1.57,1.57,0,0,0-.44.73,2.25,2.25,0,0,0-.36-1,.67.67,0,0,0-.45-.09,3,3,0,0,1-.45-1.36,1.28,1.28,0,0,1,.54-1,2.69,2.69,0,0,1,2.33-.18,3.88,3.88,0,0,0,.36,1.09c-.09.09-.18.18-.18.27v.09a3.17,3.17,0,0,1,1,1.18c-.18-.18-.45-.45-.81-.27s-.36.64-.18,1.18a1.08,1.08,0,0,0,.45.72.86.86,0,0,0,.81-.27c0,.09.09.19.09.37A.69.69,0,0,1-212.63-362.74Zm14.82-1.18a1.31,1.31,0,0,0-.81-1,2.72,2.72,0,0,0,.63-1.72v-.27a1.64,1.64,0,0,0-.72-1.18,3.13,3.13,0,0,0-3-.18,1.83,1.83,0,0,0-1.62-1.46,4.58,4.58,0,0,0-2.51.73,3.07,3.07,0,0,1-1.62.64v-.37a1.47,1.47,0,0,0,1-1.36,1.37,1.37,0,0,0-1.08-1.36V-372h.36c.09.18.18.27.36.27a.51.51,0,0,0,.45-.55.5.5,0,0,0-.45-.54c-.18,0-.27.09-.36.27h-.36v-.36a.69.69,0,0,0,.18-.46.5.5,0,0,0-.54-.45.43.43,0,0,0-.45.45c0,.19,0,.37.18.46v.36h-.36a.49.49,0,0,0-.45-.27.5.5,0,0,0-.45.54.51.51,0,0,0,.45.55.49.49,0,0,0,.45-.27h.27v.54a1.37,1.37,0,0,0-1.08,1.36,1.44,1.44,0,0,0,1.08,1.36v.37a3,3,0,0,1-1.7-.64,4.31,4.31,0,0,0-2.43-.73,1.72,1.72,0,0,0-1.62,1.46,3.12,3.12,0,0,0-3,.18,1.76,1.76,0,0,0-.81,1.18v.27a2.72,2.72,0,0,0,.63,1.72,1.21,1.21,0,0,0-.72,1l-.09.09h.09s1.53.18,1.89.64a2.33,2.33,0,0,1,.54,1.27v.09a1.27,1.27,0,0,0,.45.27h.17v.18l.09,2.45H-201l.09-2.45v-.18h.27c.18-.09.45-.27.45-.27v-.09a2.35,2.35,0,0,1,.53-1.27c.37-.46,1.8-.64,1.8-.64h.09Z"/>
    </clipPath>
    <clipPath id="clip-path-3">
      <polygon class="cls-2" points="-135.38 -358.64 -135.38 -347.25 -133.79 -347.25 -133.79 -351.13 -129.98 -347.25 -127.77 -347.25 -132.19 -351.59 -128.21 -355.03 -130.42 -355.03 -133.79 -351.95 -133.79 -358.64 -135.38 -358.64"/>
    </clipPath>
    <clipPath id="clip-path-4">
      <rect class="cls-3" x="-154.33" y="-358.37" width="1.77" height="1.72"/>
    </clipPath>
    <clipPath id="clip-path-5">
      <rect class="cls-3" x="-168.31" y="-358.37" width="1.86" height="1.72"/>
    </clipPath>
    <clipPath id="clip-path-6">
      <polygon class="cls-2" points="-179.29 -357.83 -182.92 -348.6 -183.01 -348.6 -186.64 -357.83 -188.59 -357.83 -184.16 -347.25 -181.95 -347.25 -177.52 -357.83 -179.29 -357.83"/>
    </clipPath>
    <clipPath id="clip-path-7">
      <rect class="cls-3" x="-154.24" y="-355.03" width="1.59" height="7.78"/>
    </clipPath>
    <clipPath id="clip-path-8">
      <path class="cls-2" d="M-171.85-351.86h-4.34a2.18,2.18,0,0,1,2.21-2.08,2.07,2.07,0,0,1,2.13,2.08m-4.34,1.09h6.1c0-2.18-.79-4.44-3.8-4.44a3.78,3.78,0,0,0-4.07,4c0,2.72,1.68,4.16,4.42,4.16a8.14,8.14,0,0,0,2.75-.45v-1.63a5.31,5.31,0,0,1-2.66.73,2.49,2.49,0,0,1-2.74-2.35"/>
    </clipPath>
    <clipPath id="clip-path-9">
      <path class="cls-2" d="M-138.83-351.86h-4.34a2.19,2.19,0,0,1,2.21-2.08,2.07,2.07,0,0,1,2.13,2.08m-4.34,1.09h6c0-2.18-.71-4.44-3.72-4.44a3.79,3.79,0,0,0-4.07,4c0,2.72,1.68,4.16,4.43,4.16a8.61,8.61,0,0,0,2.74-.45v-1.63a5.31,5.31,0,0,1-2.66.73,2.49,2.49,0,0,1-2.74-2.35"/>
    </clipPath>
    <clipPath id="clip-path-10">
      <path class="cls-2" d="M-84.39-351.86h-4.24a2.17,2.17,0,0,1,2.21-2.08,2,2,0,0,1,2,2.08m-4.24,1.09h6c0-2.18-.71-4.44-3.8-4.44a3.77,3.77,0,0,0-4,4c0,2.72,1.69,4.16,4.43,4.16a8.55,8.55,0,0,0,2.74-.45v-1.63a5.25,5.25,0,0,1-2.65.73,2.48,2.48,0,0,1-2.74-2.35"/>
    </clipPath>
    <clipPath id="clip-path-11">
      <path class="cls-2" d="M-168.22-355h1.59V-347c0,2.53-1,3.07-2.48,3.07h-1l.09-1.36a1.73,1.73,0,0,0,.62.09c.62,0,1.16-.27,1.16-1.62Z"/>
    </clipPath>
    <clipPath id="clip-path-12">
      <path class="cls-2" d="M-158.4-354v-4.61h1.6v11.39h-1.51v-1a3.72,3.72,0,0,1-2.92,1.17c-2.3,0-3.72-1.71-3.72-4.16s1.51-4,3.72-4A3.2,3.2,0,0,1-158.4-354m-2.48.09c-1.41,0-2.39,1-2.39,2.71s.89,3,2.39,3a2.61,2.61,0,0,0,2.48-2.89,2.58,2.58,0,0,0-2.48-2.81"/>
    </clipPath>
    <clipPath id="clip-path-13">
      <path class="cls-2" d="M-148.48-347.25h-1.69V-355h1.6v1.18a2.55,2.55,0,0,1,2.21-1.36c.44,0,.8.09,1.07.09v1.45a1.46,1.46,0,0,0-.89-.18c-1.24,0-2.3.81-2.3,3.17Z"/>
    </clipPath>
    <clipPath id="clip-path-14">
      <path class="cls-2" d="M-109.18-347.25h-1.59V-355h1.51v1.18a2.54,2.54,0,0,1,2.21-1.36c.44,0,.88.09,1.06.09v1.45a1.3,1.3,0,0,0-.88-.18c-1.24,0-2.31.81-2.31,3.17Z"/>
    </clipPath>
    <clipPath id="clip-path-15">
      <path class="cls-2" d="M-125.82-353.76h-1.86V-355h1.86v-1.71l1.59-.55V-355H-122v1.27h-2.22v4.07c0,.91.36,1.45,1.33,1.45a1.68,1.68,0,0,0,1.06-.36v1.35a3.85,3.85,0,0,1-1.41.19c-1.15,0-2.57-.55-2.57-2.18Z"/>
    </clipPath>
    <clipPath id="clip-path-16">
      <path class="cls-2" d="M-95.28-353.76H-97V-355h1.77v-1.71l1.69-.55V-355h2.21v1.27h-2.21v4.07c0,.91.35,1.45,1.23,1.45a1.7,1.7,0,0,0,1.07-.36v1.35a3.45,3.45,0,0,1-1.33.19c-1.15,0-2.66-.55-2.66-2.18Z"/>
    </clipPath>
    <clipPath id="clip-path-17">
      <rect class="cls-1" x="-82" y="-357.29" width="5.75" height="10.22"/>
    </clipPath>
    <clipPath id="clip-path-18">
      <path class="cls-2" d="M-121.13-351.14a4,4,0,0,0,4.34,4.08c2.66,0,4.43-1.63,4.43-4.08s-1.77-4.07-4.43-4.07a4,4,0,0,0-4.34,4.07m1.68,0a2.56,2.56,0,0,1,2.66-2.8,2.58,2.58,0,0,1,2.75,2.8,2.61,2.61,0,0,1-2.75,2.9,2.59,2.59,0,0,1-2.66-2.9"/>
    </clipPath>
    <clipPath id="clip-path-19">
      <path class="cls-2" d="M-101.74-355.21c2.13,0,3.45.82,3.45,3.35v4.61h-1.5v-.9a3.2,3.2,0,0,1-2.57,1.08c-1.5,0-3.19-.45-3.19-2.44,0-1.63,1.78-2.53,4.08-2.53h1.59c0-1.18-.44-1.81-2.13-1.81a4.85,4.85,0,0,0-2.56.81v-1.62a5.79,5.79,0,0,1,2.83-.55m.89,4.26c-1.33,0-3,.27-3,1.44,0,.73.53,1.27,1.59,1.27s2.39-.45,2.39-2v-.63c-.35,0-.8-.09-1-.09"/>
    </clipPath>
  </defs>
  <title>kundelogoer_alle</title>
  <g>
    <g>
      <path class="cls-3" d="M30.86,15.78h1.86v11H30.86Z"/>
      <path class="cls-3" d="M36.39,22.21v4.5h-1.8v-8.3h1.8v1.52a3.35,3.35,0,0,1,1.18-1.24,3.15,3.15,0,0,1,1.59-.42,3.08,3.08,0,0,1,2.28.83,3.41,3.41,0,0,1,.9,2.49v5.12h-1.8v-4.5c0-1.52-.62-2.28-1.94-2.28a2.22,2.22,0,0,0-1.59.62A2.06,2.06,0,0,0,36.39,22.21Z"/>
      <path class="cls-3" d="M45.73,22.21v4.5h-1.8v-8.3h1.8v1.52a3.35,3.35,0,0,1,1.18-1.24,3.15,3.15,0,0,1,1.59-.42,3.08,3.08,0,0,1,2.28.83,3.41,3.41,0,0,1,.9,2.49v5.12h-1.8v-4.5c0-1.52-.62-2.28-1.94-2.28a2.22,2.22,0,0,0-1.59.62A2.06,2.06,0,0,0,45.73,22.21Z"/>
      <path class="cls-3" d="M60.33,25.67a4.51,4.51,0,0,1-6.23,0,4.35,4.35,0,0,1,0-6.08,4.51,4.51,0,0,1,6.23,0,4.35,4.35,0,0,1,0,6.08Zm-5-1.1a2.31,2.31,0,0,0,1.87.76A2.55,2.55,0,0,0,59,24.57a3,3,0,0,0,0-4,2.3,2.3,0,0,0-1.86-.76,2.55,2.55,0,0,0-1.87.76,2.88,2.88,0,0,0-.76,2A2.76,2.76,0,0,0,55.28,24.57Z"/>
      <path class="cls-3" d="M65.17,26.78l-3.32-8.37h1.8l2.56,6.29,2.56-6.29h1.8l-3.32,8.37Z"/>
      <path class="cls-3" d="M78.18,26.78H76.59V25.67a3.4,3.4,0,0,1-2.77,1.25,3,3,0,0,1-2.15-.76,2.59,2.59,0,0,1-.83-2,2.25,2.25,0,0,1,.9-1.87,4.5,4.5,0,0,1,2.49-.62h2.29v-.35c0-1.1-.63-1.66-1.87-1.66a4.46,4.46,0,0,0-2.42.83l-.76-1.1a5.3,5.3,0,0,1,3.46-1.25,3.93,3.93,0,0,1,2.42.76,2.81,2.81,0,0,1,1,2.36l-.14,5.53Zm-1.8-3.11V23h-2c-1.24,0-1.87.41-1.87,1.17a1,1,0,0,0,.49,1,2.44,2.44,0,0,0,1.31.35A2.17,2.17,0,0,0,75.76,25,1.61,1.61,0,0,0,76.38,23.67Z"/>
      <path class="cls-3" d="M82.05,19.79V24a1.49,1.49,0,0,0,.35,1,1.19,1.19,0,0,0,.9.35,1.67,1.67,0,0,0,1.1-.56L85.17,26a3.09,3.09,0,0,1-2.08.83,2.88,2.88,0,0,1-1.94-.76A2.83,2.83,0,0,1,80.32,24V19.79h-1V18.41h1V15.78h1.8v2.63h2.22v1.38Z"/>
      <path class="cls-3" d="M86.41,16.75a1.12,1.12,0,0,1-.35-.76,1,1,0,0,1,.35-.76,1.12,1.12,0,0,1,.76-.35,1,1,0,0,1,.76.35,1.08,1.08,0,0,1,.35.76,1,1,0,0,1-.35.76,1.07,1.07,0,0,1-.76.34A1.11,1.11,0,0,1,86.41,16.75Zm1.66,10h-1.8V18.41h1.8Z"/>
      <path class="cls-3" d="M96.93,25.67a4.51,4.51,0,0,1-6.23,0,4.32,4.32,0,0,1,0-6.08,4.51,4.51,0,0,1,6.23,0,4.35,4.35,0,0,1,0,6.08Zm-5-1.1a2.3,2.3,0,0,0,1.86.76,2.57,2.57,0,0,0,1.87-.76,3,3,0,0,0,0-4,2.32,2.32,0,0,0-1.87-.76,2.55,2.55,0,0,0-1.86.76,2.89,2.89,0,0,0-.77,2A2.51,2.51,0,0,0,92,24.57Z"/>
      <path class="cls-3" d="M101.22,22.21v4.5h-1.8v-8.3h1.8v1.52a3.32,3.32,0,0,1,1.17-1.24,3.21,3.21,0,0,1,1.59-.42,3.12,3.12,0,0,1,2.29.83,3.41,3.41,0,0,1,.9,2.49v5.12h-1.8v-4.5c0-1.52-.63-2.28-1.94-2.28a2.2,2.2,0,0,0-1.59.62A2,2,0,0,0,101.22,22.21Z"/>
      <path class="cls-3" d="M112.56,26.78v-11h1.87V25h5v1.8Z"/>
      <path class="cls-3" d="M127.64,26.78h-1.59V25.67a3.38,3.38,0,0,1-2.76,1.25,3,3,0,0,1-2.15-.76,2.59,2.59,0,0,1-.83-2,2.25,2.25,0,0,1,.9-1.87,4.45,4.45,0,0,1,2.49-.62H126v-.35c0-1.1-.62-1.66-1.86-1.66a4.49,4.49,0,0,0-2.43.83l-.76-1.1a5.33,5.33,0,0,1,3.46-1.25,3.9,3.9,0,0,1,2.42.76,2.78,2.78,0,0,1,1,2.36l-.14,5.53Zm-1.73-3.11V23h-2c-1.25,0-1.87.41-1.87,1.17a1.06,1.06,0,0,0,.48,1,2.48,2.48,0,0,0,1.32.35,2.14,2.14,0,0,0,1.45-.49A1.58,1.58,0,0,0,125.91,23.67Z"/>
      <path class="cls-3" d="M133.8,18.27a4.21,4.21,0,0,1,2.91,1.18,4,4,0,0,1,1.17,3.11,4.22,4.22,0,0,1-1.17,3.11,3.69,3.69,0,0,1-2.77,1.25,3.88,3.88,0,0,1-2.84-1.38v1.24h-1.8V15.09h1.8v4.77A3.17,3.17,0,0,1,133.8,18.27ZM131,22.63a2.37,2.37,0,0,0,.77,1.94,2.16,2.16,0,0,0,1.79.76,2.51,2.51,0,0,0,1.8-.76,2.45,2.45,0,0,0,.76-1.94,3,3,0,0,0-.76-2,2.36,2.36,0,0,0-3.59,0A2.89,2.89,0,0,0,131,22.63Z"/>
    </g>
    <path class="cls-3" d="M46.42,8.65h-.14v.21h.14a.15.15,0,0,0,.14-.14c-.07,0-.07-.07-.14-.07Zm.14.63-.21-.35h-.14v.35h-.13V8.52h.27a.22.22,0,0,1,.21.2c0,.07-.07.14-.14.21l.21.35Zm-.21-.9a.55.55,0,0,0-.55.55.54.54,0,0,0,.55.55.51.51,0,0,0,.56-.55.54.54,0,0,0-.56-.55Zm0,1.17a.62.62,0,0,1-.62-.62.63.63,0,0,1,1.25,0c.07.35-.28.62-.63.62ZM43,12.6a1.53,1.53,0,1,1,1.52-1.52A1.63,1.63,0,0,1,43,12.6Zm0-4.29a2.77,2.77,0,1,0,2.77,2.77A2.77,2.77,0,0,0,43,8.31Zm-7.61.21h4.22v1.1h-2.9v.9h2.83v1.11H36.74v1h2.9v1.1H35.42V8.52Zm-4.56,0H32.1V12.6h2.63v1.1H30.86V8.52Z"/>
    <path class="cls-3" d="M13,34.46a.26.26,0,0,1-.21-.07L.21,27.2A.6.6,0,0,1,0,26.85V18.2a.77.77,0,0,1,.21-.41c.14-.07.34-.07.41.07L13.21,28.65c.14.07.14.21.14.34v5.12a.38.38,0,0,1-.21.35ZM.83,26.57l11.69,6.78V29.13L.83,19.1Z"/>
    <path class="cls-3" d="M13,34.46a.26.26,0,0,1-.21-.07.38.38,0,0,1-.21-.35V28.93a.38.38,0,0,1,.21-.35l3.87-2.21V22.63a.38.38,0,0,1,.21-.35l3.81-2.21v-4a.39.39,0,0,1,.2-.35l4.5-2.63a.45.45,0,0,1,.42,0,.39.39,0,0,1,.2.35V26.78a.39.39,0,0,1-.2.35l-12.6,7.26A.24.24,0,0,1,13,34.46Zm.41-5.26v4.15l11.69-6.78V14.19l-3.66,2.07v4a.37.37,0,0,1-.21.34l-3.81,2.22v3.73a.38.38,0,0,1-.2.35ZM25.6,26.78Z"/>
    <path class="cls-3" d="M13,29.41c-.14,0-.21,0-.28-.14L.14,18.55A1,1,0,0,1,0,18.13a.37.37,0,0,1,.21-.34l4.08-2.36a.45.45,0,0,1,.48.07l12.6,10.8c.13.07.13.2.13.34a.39.39,0,0,1-.2.35l-4.09,2.35C13.14,29.34,13.08,29.41,13,29.41ZM1.18,18.27l11.9,10.17,3.32-1.87L4.5,16.33Z"/>
    <path class="cls-3" d="M17.09,27.06c-.14,0-.21,0-.28-.14L4.22,16.13c-.14-.07-.14-.21-.14-.35V11.84a.38.38,0,0,1,.21-.35.43.43,0,0,1,.41,0l4,2.21.07.07,8.65,8.58a.59.59,0,0,1,.13.35v4a.79.79,0,0,1-.2.42A.26.26,0,0,0,17.09,27.06ZM4.91,15.64l11.76,10v-2.9L8.16,14.4,4.91,12.53Z"/>
    <path class="cls-3" d="M8.44,14.47a.26.26,0,0,1-.21-.07L4.29,12.18a.37.37,0,0,1-.21-.34.38.38,0,0,1,.21-.35l4-2.28a.45.45,0,0,1,.42,0l3.94,2.21a.38.38,0,0,1,.21.35.37.37,0,0,1-.21.34l-4,2.29A.26.26,0,0,1,8.44,14.47ZM5.33,11.84l3.11,1.8,3.11-1.8L8.44,10Z"/>
    <path class="cls-3" d="M17.09,23a.36.36,0,0,1-.28-.13L8.16,14.4A.4.4,0,0,1,8,14.05c0-.14.13-.21.2-.35l4-2.28c.13-.14.34-.07.55.07l8.65,8.58a.39.39,0,0,1,.14.35c0,.13-.14.2-.21.34L17.3,23Zm-8-8.85,8,8,3.25-1.87-8-8Z"/>
    <path class="cls-3" d="M21.1,20.76a.36.36,0,0,1-.28-.14l-8.64-8.51L8.3,9.9a.38.38,0,0,1-.21-.35V3.12a.47.47,0,0,1,.28-.42.48.48,0,0,1,.49.14L21.45,15.78a.53.53,0,0,1,.14.28v4.29a.47.47,0,0,1-.28.41ZM8.92,9.28l3.74,2.14.07.07,8,7.89V16.26L8.92,4.16Z"/>
    <path class="cls-3" d="M21.1,16.47c-.14,0-.21-.07-.34-.14L8.16,3.4A.72.72,0,0,1,8,3.05c0-.14.13-.21.2-.35L12.73.08a.43.43,0,0,1,.55.06L25.87,13.08c.07.14.14.21.14.35s-.14.21-.2.34l-4.5,2.63A.26.26,0,0,1,21.1,16.47ZM9.2,3.19l12,12.31,3.74-2.14L12.94,1Z"/>
  </g>
  <g>
    <g>
      <path class="cls-5" d="M-199.25-365a1,1,0,0,0-.54.09,5,5,0,0,0-.35,1c-.09-.27-.18-.63-.45-.73s-.54.37-.63.82a1.43,1.43,0,0,0,.09.91.32.32,0,0,0,.45.09.91.91,0,0,1-.81.54c-.18,0-.45-.09-.81-.09l-.54-.18c-.09,0-.18-.09-.27-.18a.67.67,0,0,1-.09-.45v-.37c.27.19.54.37.81.27a1.15,1.15,0,0,0,.54-.72c.18-.54.09-1.09-.18-1.18a.6.6,0,0,0-.81.27,4.09,4.09,0,0,1,.9-1.18h.09v-.09l-.27-.27a2.24,2.24,0,0,0,.36-1.09,2.91,2.91,0,0,1,2.43.18,1.17,1.17,0,0,1,.44,1A2.69,2.69,0,0,1-199.25-365Zm-4.4-.45v.36c-.18-.27-.45-.63-.81-.54s-.44.45-.53.9.18,1,.44,1.09a.74.74,0,0,0,.63,0c-.09.28-.45.82-.89.82l-.9-.09-.81-.09c-.72,0-.9-1-.9-1.18,0,0,.36.36.63.36.09.09.18.09.36,0a1.42,1.42,0,0,0,.54-.82,1.84,1.84,0,0,0,0-1l-.27-.28h-.18a1.5,1.5,0,0,0-.81.37h-.09v-.09l.18-.28a2,2,0,0,0,.27-.45c.09-.18.09-.45-.09-.54a.84.84,0,0,0-.54-.37v-.45a5,5,0,0,0,1.89-.54c.8-.28,1.52-.64,2.15-.37a1.3,1.3,0,0,1,.72,1.27,2,2,0,0,1-.09.73,1.3,1.3,0,0,0-.63.18C-203.56-366.37-203.65-366.1-203.65-365.46Zm-4.58-1.82a1.47,1.47,0,0,0-.63.37.55.55,0,0,0-.09.54.9.9,0,0,0,.36.45l.09.28c.09.09,0,.09,0,.09a1.5,1.5,0,0,0-.81-.37h-.18c-.18.1-.27.19-.27.28a1.33,1.33,0,0,0-.09,1c.18.37.36.73.63.82a.27.27,0,0,0,.36,0c.27,0,.54-.36.54-.36h.09c-.09.18-.27,1.18-.9,1.18l-.89.09-.9.09c-.45,0-.72-.54-.9-.82a1,1,0,0,0,.72,0c.27-.09.45-.54.36-1.09s-.27-.9-.54-.9-.63.27-.72.54c-.09-.09-.09-.36-.09-.36,0-.64,0-.91-.27-1a1,1,0,0,0-.63-.18,2,2,0,0,1-.09-.73,1.46,1.46,0,0,1,.72-1.27c.63-.27,1.44.09,2.25.37a4.91,4.91,0,0,0,1.88.54Zm-4.4,4.54c-.09.09-.18.18-.27.18l-.54.18c-.27,0-.63.09-.81.09a.92.92,0,0,1-.81-.54.32.32,0,0,0,.45-.09,1,1,0,0,0,.09-.91c-.09-.45-.36-.82-.63-.82a1.57,1.57,0,0,0-.44.73,2.25,2.25,0,0,0-.36-1,.67.67,0,0,0-.45-.09,3,3,0,0,1-.45-1.36,1.28,1.28,0,0,1,.54-1,2.69,2.69,0,0,1,2.33-.18,3.88,3.88,0,0,0,.36,1.09c-.09.09-.18.18-.18.27v.09a3.17,3.17,0,0,1,1,1.18c-.18-.18-.45-.45-.81-.27s-.36.64-.18,1.18a1.08,1.08,0,0,0,.45.72.86.86,0,0,0,.81-.27c0,.09.09.19.09.37A.69.69,0,0,1-212.63-362.74Zm14.82-1.18a1.31,1.31,0,0,0-.81-1,2.72,2.72,0,0,0,.63-1.72v-.27a1.64,1.64,0,0,0-.72-1.18,3.13,3.13,0,0,0-3-.18,1.83,1.83,0,0,0-1.62-1.46,4.58,4.58,0,0,0-2.51.73,3.07,3.07,0,0,1-1.62.64v-.37a1.47,1.47,0,0,0,1-1.36,1.37,1.37,0,0,0-1.08-1.36V-372h.36c.09.18.18.27.36.27a.51.51,0,0,0,.45-.55.5.5,0,0,0-.45-.54c-.18,0-.27.09-.36.27h-.36v-.36a.69.69,0,0,0,.18-.46.5.5,0,0,0-.54-.45.43.43,0,0,0-.45.45c0,.19,0,.37.18.46v.36h-.36a.49.49,0,0,0-.45-.27.5.5,0,0,0-.45.54.51.51,0,0,0,.45.55.49.49,0,0,0,.45-.27h.27v.54a1.37,1.37,0,0,0-1.08,1.36,1.44,1.44,0,0,0,1.08,1.36v.37a3,3,0,0,1-1.7-.64,4.31,4.31,0,0,0-2.43-.73,1.72,1.72,0,0,0-1.62,1.46,3.12,3.12,0,0,0-3,.18,1.76,1.76,0,0,0-.81,1.18v.27a2.72,2.72,0,0,0,.63,1.72,1.21,1.21,0,0,0-.72,1l-.09.09h.09s1.53.18,1.89.64a2.33,2.33,0,0,1,.54,1.27v.09a1.27,1.27,0,0,0,.45.27h.17v.18l.09,2.45H-201l.09-2.45v-.18h.27c.18-.09.45-.27.45-.27v-.09a2.35,2.35,0,0,1,.53-1.27c.37-.46,1.8-.64,1.8-.64h.09Z"/>
      <g class="cls-6">
        <rect class="cls-3" x="-237.66" y="-385.53" width="1534.5" height="3050.89"/>
      </g>
    </g>
    <g>
      <g>
        <polygon class="cls-5" points="-135.38 -358.64 -135.38 -347.25 -133.79 -347.25 -133.79 -351.13 -129.98 -347.25 -127.77 -347.25 -132.19 -351.59 -128.21 -355.03 -130.42 -355.03 -133.79 -351.95 -133.79 -358.64 -135.38 -358.64"/>
        <g class="cls-7">
          <rect class="cls-3" x="-239.74" y="-385.53" width="1534.5" height="3050.89"/>
        </g>
      </g>
      <g>
        <rect class="cls-3" x="-154.33" y="-358.37" width="1.77" height="1.72"/>
        <g class="cls-8">
          <rect class="cls-3" x="-239.74" y="-385.53" width="1534.5" height="3050.89"/>
        </g>
      </g>
      <g>
        <rect class="cls-3" x="-168.31" y="-358.37" width="1.86" height="1.72"/>
        <g class="cls-9">
          <rect class="cls-3" x="-239.74" y="-385.53" width="1534.5" height="3050.89"/>
        </g>
      </g>
      <g>
        <polygon class="cls-5" points="-179.29 -357.83 -182.92 -348.6 -183.01 -348.6 -186.64 -357.83 -188.59 -357.83 -184.16 -347.25 -181.95 -347.25 -177.52 -357.83 -179.29 -357.83"/>
        <g class="cls-10">
          <rect class="cls-3" x="-239.74" y="-385.53" width="1534.5" height="3050.89"/>
        </g>
      </g>
      <g>
        <rect class="cls-3" x="-154.24" y="-355.03" width="1.59" height="7.78"/>
        <g class="cls-11">
          <rect class="cls-3" x="-239.74" y="-385.53" width="1534.5" height="3050.89"/>
        </g>
      </g>
      <g>
        <path class="cls-5" d="M-171.85-351.86h-4.34a2.18,2.18,0,0,1,2.21-2.08,2.07,2.07,0,0,1,2.13,2.08m-4.34,1.09h6.1c0-2.18-.79-4.44-3.8-4.44a3.78,3.78,0,0,0-4.07,4c0,2.72,1.68,4.16,4.42,4.16a8.14,8.14,0,0,0,2.75-.45v-1.63a5.31,5.31,0,0,1-2.66.73,2.49,2.49,0,0,1-2.74-2.35"/>
        <g class="cls-12">
          <rect class="cls-3" x="-239.74" y="-385.53" width="1534.5" height="3050.89"/>
        </g>
      </g>
      <g>
        <path class="cls-5" d="M-138.83-351.86h-4.34a2.19,2.19,0,0,1,2.21-2.08,2.07,2.07,0,0,1,2.13,2.08m-4.34,1.09h6c0-2.18-.71-4.44-3.72-4.44a3.79,3.79,0,0,0-4.07,4c0,2.72,1.68,4.16,4.43,4.16a8.61,8.61,0,0,0,2.74-.45v-1.63a5.31,5.31,0,0,1-2.66.73,2.49,2.49,0,0,1-2.74-2.35"/>
        <g class="cls-13">
          <rect class="cls-3" x="-239.74" y="-385.53" width="1534.5" height="3050.89"/>
        </g>
      </g>
      <g>
        <path class="cls-5" d="M-84.39-351.86h-4.24a2.17,2.17,0,0,1,2.21-2.08,2,2,0,0,1,2,2.08m-4.24,1.09h6c0-2.18-.71-4.44-3.8-4.44a3.77,3.77,0,0,0-4,4c0,2.72,1.69,4.16,4.43,4.16a8.55,8.55,0,0,0,2.74-.45v-1.63a5.25,5.25,0,0,1-2.65.73,2.48,2.48,0,0,1-2.74-2.35"/>
        <g class="cls-14">
          <rect class="cls-3" x="-239.74" y="-385.53" width="1534.5" height="3050.89"/>
        </g>
      </g>
      <g>
        <path class="cls-5" d="M-168.22-355h1.59V-347c0,2.53-1,3.07-2.48,3.07h-1l.09-1.36a1.73,1.73,0,0,0,.62.09c.62,0,1.16-.27,1.16-1.62Z"/>
        <g class="cls-15">
          <rect class="cls-3" x="-239.74" y="-385.53" width="1534.5" height="3050.89"/>
        </g>
      </g>
      <g>
        <path class="cls-5" d="M-158.4-354v-4.61h1.6v11.39h-1.51v-1a3.72,3.72,0,0,1-2.92,1.17c-2.3,0-3.72-1.71-3.72-4.16s1.51-4,3.72-4A3.2,3.2,0,0,1-158.4-354m-2.48.09c-1.41,0-2.39,1-2.39,2.71s.89,3,2.39,3a2.61,2.61,0,0,0,2.48-2.89,2.58,2.58,0,0,0-2.48-2.81"/>
        <g class="cls-16">
          <rect class="cls-3" x="-239.74" y="-385.53" width="1534.5" height="3050.89"/>
        </g>
      </g>
      <g>
        <path class="cls-5" d="M-148.48-347.25h-1.69V-355h1.6v1.18a2.55,2.55,0,0,1,2.21-1.36c.44,0,.8.09,1.07.09v1.45a1.46,1.46,0,0,0-.89-.18c-1.24,0-2.3.81-2.3,3.17Z"/>
        <g class="cls-17">
          <rect class="cls-3" x="-239.74" y="-385.53" width="1534.5" height="3050.89"/>
        </g>
      </g>
      <g>
        <path class="cls-5" d="M-109.18-347.25h-1.59V-355h1.51v1.18a2.54,2.54,0,0,1,2.21-1.36c.44,0,.88.09,1.06.09v1.45a1.3,1.3,0,0,0-.88-.18c-1.24,0-2.31.81-2.31,3.17Z"/>
        <g class="cls-18">
          <rect class="cls-3" x="-239.74" y="-385.53" width="1534.5" height="3050.89"/>
        </g>
      </g>
      <g>
        <path class="cls-5" d="M-125.82-353.76h-1.86V-355h1.86v-1.71l1.59-.55V-355H-122v1.27h-2.22v4.07c0,.91.36,1.45,1.33,1.45a1.68,1.68,0,0,0,1.06-.36v1.35a3.85,3.85,0,0,1-1.41.19c-1.15,0-2.57-.55-2.57-2.18Z"/>
        <g class="cls-19">
          <rect class="cls-3" x="-239.74" y="-385.53" width="1534.5" height="3050.89"/>
        </g>
      </g>
      <g>
        <path class="cls-5" d="M-95.28-353.76H-97V-355h1.77v-1.71l1.69-.55V-355h2.21v1.27h-2.21v4.07c0,.91.35,1.45,1.23,1.45a1.7,1.7,0,0,0,1.07-.36v1.35a3.45,3.45,0,0,1-1.33.19c-1.15,0-2.66-.55-2.66-2.18Z"/>
        <g class="cls-20">
          <rect class="cls-3" x="-239.74" y="-385.53" width="1534.5" height="3050.89"/>
        </g>
      </g>
      <g>
        <path class="cls-5" d="M-121.13-351.14a4,4,0,0,0,4.34,4.08c2.66,0,4.43-1.63,4.43-4.08s-1.77-4.07-4.43-4.07a4,4,0,0,0-4.34,4.07m1.68,0a2.56,2.56,0,0,1,2.66-2.8,2.58,2.58,0,0,1,2.75,2.8,2.61,2.61,0,0,1-2.75,2.9,2.59,2.59,0,0,1-2.66-2.9"/>
        <g class="cls-22">
          <rect class="cls-3" x="-239.74" y="-385.53" width="1534.5" height="3050.89"/>
        </g>
      </g>
      <g>
        <path class="cls-5" d="M-101.74-355.21c2.13,0,3.45.82,3.45,3.35v4.61h-1.5v-.9a3.2,3.2,0,0,1-2.57,1.08c-1.5,0-3.19-.45-3.19-2.44,0-1.63,1.78-2.53,4.08-2.53h1.59c0-1.18-.44-1.81-2.13-1.81a4.85,4.85,0,0,0-2.56.81v-1.62a5.79,5.79,0,0,1,2.83-.55m.89,4.26c-1.33,0-3,.27-3,1.44,0,.73.53,1.27,1.59,1.27s2.39-.45,2.39-2v-.63c-.35,0-.8-.09-1-.09"/>
        <g class="cls-23">
          <rect class="cls-3" x="-239.74" y="-385.53" width="1534.5" height="3050.89"/>
        </g>
      </g>
    </g>
  </g>
</svg>
