<svg id="Layer_1" data-name="Layer 1" xmlns="http://www.w3.org/2000/svg" xmlns:xlink="http://www.w3.org/1999/xlink" width="79.03" height="17.27" viewBox="0 0 79.03 17.27">
  <defs>
    <style>
      .cls-1 {
        fill: none;
      }

      .cls-2, .cls-3, .cls-5 {
        fill: #647689;
      }

      .cls-2 {
        clip-rule: evenodd;
      }

      .cls-4 {
        clip-path: url(#clip-path);
      }

      .cls-5 {
        fill-rule: evenodd;
      }

      .cls-6 {
        clip-path: url(#clip-path-2);
      }

      .cls-7 {
        clip-path: url(#clip-path-3);
      }

      .cls-8 {
        clip-path: url(#clip-path-4);
      }

      .cls-9 {
        clip-path: url(#clip-path-5);
      }

      .cls-10 {
        clip-path: url(#clip-path-6);
      }

      .cls-11 {
        clip-path: url(#clip-path-7);
      }

      .cls-12 {
        clip-path: url(#clip-path-8);
      }

      .cls-13 {
        clip-path: url(#clip-path-9);
      }

      .cls-14 {
        clip-path: url(#clip-path-10);
      }

      .cls-15 {
        clip-path: url(#clip-path-11);
      }

      .cls-16 {
        clip-path: url(#clip-path-12);
      }

      .cls-17 {
        clip-path: url(#clip-path-13);
      }

      .cls-18 {
        clip-path: url(#clip-path-14);
      }

      .cls-19 {
        clip-path: url(#clip-path-15);
      }

      .cls-20 {
        clip-path: url(#clip-path-16);
      }

      .cls-21 {
        clip-path: url(#clip-path-17);
      }

      .cls-22 {
        clip-path: url(#clip-path-18);
      }

      .cls-23 {
        clip-path: url(#clip-path-19);
      }
    </style>
    <clipPath id="clip-path">
      <rect class="cls-1" x="-479.93" y="-365.89" width="23.39" height="20.48"/>
    </clipPath>
    <clipPath id="clip-path-2">
      <path class="cls-2" d="M-459.63-373.6a1,1,0,0,0-.54.09,4.29,4.29,0,0,0-.36,1c-.09-.28-.18-.64-.45-.73s-.54.36-.63.82a1.4,1.4,0,0,0,.09.9.31.31,0,0,0,.45.09.92.92,0,0,1-.81.55c-.18,0-.45-.09-.81-.09l-.53-.19c-.09,0-.18-.08-.27-.18a.67.67,0,0,1-.09-.45v-.36c.27.18.54.36.8.27a1.14,1.14,0,0,0,.54-.73c.18-.54.09-1.08-.18-1.18a.6.6,0,0,0-.8.28,3.93,3.93,0,0,1,.89-1.18h.09v-.09l-.27-.28a2.21,2.21,0,0,0,.36-1.08,2.84,2.84,0,0,1,2.43.18,1.15,1.15,0,0,1,.45,1A2.83,2.83,0,0,1-459.63-373.6Zm-4.4-.46v.37c-.18-.28-.45-.64-.81-.55s-.45.45-.54.91.18,1,.45,1.09a.74.74,0,0,0,.63,0c-.09.27-.45.81-.9.81l-.9-.09-.81-.09c-.72,0-.9-1-.9-1.18,0,0,.36.37.63.37.09.09.18.09.36,0a1.45,1.45,0,0,0,.54-.82,1.88,1.88,0,0,0,0-1l-.27-.27h-.18a1.46,1.46,0,0,0-.81.36h-.09v-.09l.18-.27a2,2,0,0,0,.27-.45c.09-.19.09-.46-.09-.55a.83.83,0,0,0-.54-.36v-.46a5,5,0,0,0,1.89-.54c.81-.27,1.53-.64,2.16-.36A1.28,1.28,0,0,1-463-376a2,2,0,0,1-.09.72,1.3,1.3,0,0,0-.63.18C-463.94-375-464-374.69-464-374.06Zm-4.58-1.81a1.45,1.45,0,0,0-.63.36.57.57,0,0,0-.09.55.9.9,0,0,0,.36.45l.09.27c.09.09,0,.09,0,.09a1.46,1.46,0,0,0-.81-.36h-.18q-.27.13-.27.27a1.26,1.26,0,0,0-.09,1c.18.36.36.73.63.82a.27.27,0,0,0,.36,0c.27,0,.54-.37.54-.37h.09c-.09.18-.27,1.18-.9,1.18l-.9.09-.9.09c-.45,0-.72-.54-.9-.81a1,1,0,0,0,.72,0c.27-.09.45-.55.36-1.09s-.27-.91-.54-.91-.63.27-.72.55a.73.73,0,0,1-.09-.37c0-.63,0-.9-.27-1a1,1,0,0,0-.63-.18,2.21,2.21,0,0,1-.08-.72,1.43,1.43,0,0,1,.71-1.27c.63-.28,1.44.09,2.25.36a5,5,0,0,0,1.89.54Zm-4.41,4.53c-.09.1-.18.18-.27.18l-.53.19c-.27,0-.63.09-.81.09a.92.92,0,0,1-.81-.55.31.31,0,0,0,.45-.09,1,1,0,0,0,.09-.9c-.09-.46-.36-.82-.63-.82a1.41,1.41,0,0,0-.45.73,2.21,2.21,0,0,0-.36-1,.67.67,0,0,0-.45-.09,3.06,3.06,0,0,1-.45-1.36,1.25,1.25,0,0,1,.54-1,2.64,2.64,0,0,1,2.34-.18,3.81,3.81,0,0,0,.36,1.08c-.09.1-.18.19-.18.28v.09a3.07,3.07,0,0,1,1,1.18c-.18-.18-.44-.46-.8-.28s-.36.64-.18,1.18a1.11,1.11,0,0,0,.45.73.89.89,0,0,0,.8-.27c0,.09.09.18.09.36A.69.69,0,0,1-473-371.34Zm14.83-1.17a1.3,1.3,0,0,0-.81-1,2.74,2.74,0,0,0,.63-1.73v-.27a1.66,1.66,0,0,0-.72-1.18,3.21,3.21,0,0,0-3-.18,1.82,1.82,0,0,0-1.61-1.45,4.53,4.53,0,0,0-2.52.73,3.06,3.06,0,0,1-1.62.63v-.36a1.49,1.49,0,0,0,1-1.36A1.35,1.35,0,0,0-467.9-380v-.55h.36c.09.18.18.27.36.27a.5.5,0,0,0,.45-.54.51.51,0,0,0-.45-.55c-.18,0-.27.1-.36.28h-.36v-.37a.69.69,0,0,0,.18-.45.5.5,0,0,0-.54-.45.42.42,0,0,0-.44.45c0,.18,0,.36.18.45v.37h-.36a.5.5,0,0,0-.45-.28.51.51,0,0,0-.45.55.5.5,0,0,0,.45.54.49.49,0,0,0,.45-.27h.27v.55a1.35,1.35,0,0,0-1.08,1.36,1.45,1.45,0,0,0,1.08,1.36v.36a3.07,3.07,0,0,1-1.71-.63,4.23,4.23,0,0,0-2.43-.73,1.72,1.72,0,0,0-1.61,1.45,3.2,3.2,0,0,0-3,.18,1.79,1.79,0,0,0-.81,1.18v.27a2.74,2.74,0,0,0,.63,1.73,1.2,1.2,0,0,0-.72,1l-.09.09h.09s1.53.18,1.89.63a2.33,2.33,0,0,1,.54,1.27v.09a1.27,1.27,0,0,0,.45.27h.18v.18l.09,2.45h13.65l.09-2.45v-.18h.27c.18-.09.45-.27.45-.27v-.09a2.33,2.33,0,0,1,.54-1.27c.36-.45,1.8-.63,1.8-.63h.09Z"/>
    </clipPath>
    <clipPath id="clip-path-3">
      <polygon class="cls-2" points="-395.77 -367.24 -395.77 -355.84 -394.17 -355.84 -394.17 -359.73 -390.37 -355.84 -388.15 -355.84 -392.58 -360.18 -388.6 -363.62 -390.81 -363.62 -394.17 -360.55 -394.17 -367.24 -395.77 -367.24"/>
    </clipPath>
    <clipPath id="clip-path-4">
      <rect class="cls-3" x="-414.71" y="-366.97" width="1.77" height="1.72"/>
    </clipPath>
    <clipPath id="clip-path-5">
      <rect class="cls-3" x="-428.7" y="-366.97" width="1.86" height="1.72"/>
    </clipPath>
    <clipPath id="clip-path-6">
      <polygon class="cls-2" points="-439.68 -366.43 -443.31 -357.2 -443.4 -357.2 -447.03 -366.43 -448.97 -366.43 -444.55 -355.84 -442.33 -355.84 -437.91 -366.43 -439.68 -366.43"/>
    </clipPath>
    <clipPath id="clip-path-7">
      <rect class="cls-3" x="-414.62" y="-363.62" width="1.59" height="7.78"/>
    </clipPath>
    <clipPath id="clip-path-8">
      <path class="cls-2" d="M-432.24-360.45h-4.34a2.19,2.19,0,0,1,2.22-2.09,2.06,2.06,0,0,1,2.12,2.09m-4.34,1.08h6.11c0-2.17-.8-4.43-3.81-4.43a3.79,3.79,0,0,0-4.07,4c0,2.71,1.68,4.16,4.43,4.16a8.07,8.07,0,0,0,2.74-.45v-1.63a5.34,5.34,0,0,1-2.66.72,2.49,2.49,0,0,1-2.74-2.35"/>
    </clipPath>
    <clipPath id="clip-path-9">
      <path class="cls-2" d="M-399.22-360.45h-4.34a2.19,2.19,0,0,1,2.22-2.09,2.06,2.06,0,0,1,2.12,2.09m-4.34,1.08h6c0-2.17-.71-4.43-3.72-4.43a3.79,3.79,0,0,0-4.07,4c0,2.71,1.68,4.16,4.43,4.16a8.55,8.55,0,0,0,2.74-.45v-1.63a5.33,5.33,0,0,1-2.65.72,2.5,2.5,0,0,1-2.75-2.35"/>
    </clipPath>
    <clipPath id="clip-path-10">
      <path class="cls-2" d="M-344.77-360.45H-349a2.19,2.19,0,0,1,2.21-2.09,2,2,0,0,1,2,2.09m-4.25,1.08h6c0-2.17-.71-4.43-3.81-4.43a3.76,3.76,0,0,0-4,4c0,2.71,1.68,4.16,4.42,4.16a8.62,8.62,0,0,0,2.75-.45v-1.63a5.39,5.39,0,0,1-2.66.72,2.49,2.49,0,0,1-2.74-2.35"/>
    </clipPath>
    <clipPath id="clip-path-11">
      <path class="cls-2" d="M-428.61-363.62H-427v8.05c0,2.53-1,3.07-2.48,3.07h-1l.09-1.35a1.68,1.68,0,0,0,.62.09c.62,0,1.15-.27,1.15-1.63Z"/>
    </clipPath>
    <clipPath id="clip-path-12">
      <path class="cls-2" d="M-418.79-362.63v-4.61h1.6v11.4h-1.51v-1a3.68,3.68,0,0,1-2.92,1.18c-2.3,0-3.72-1.72-3.72-4.16s1.51-4,3.72-4a3.19,3.19,0,0,1,2.83,1.17m-2.47.09c-1.42,0-2.39,1-2.39,2.72s.88,3,2.39,3a2.6,2.6,0,0,0,2.47-2.89,2.58,2.58,0,0,0-2.47-2.81"/>
    </clipPath>
    <clipPath id="clip-path-13">
      <path class="cls-2" d="M-408.87-355.84h-1.68v-7.78H-409v1.18a2.54,2.54,0,0,1,2.22-1.36c.44,0,.79.09,1.06.09v1.45a1.45,1.45,0,0,0-.89-.18c-1.24,0-2.3.81-2.3,3.16Z"/>
    </clipPath>
    <clipPath id="clip-path-14">
      <path class="cls-2" d="M-369.56-355.84h-1.6v-7.78h1.51v1.18a2.54,2.54,0,0,1,2.21-1.36c.45,0,.89.09,1.06.09v1.45a1.29,1.29,0,0,0-.88-.18c-1.24,0-2.3.81-2.3,3.16Z"/>
    </clipPath>
    <clipPath id="clip-path-15">
      <path class="cls-2" d="M-386.21-362.35h-1.85v-1.27h1.85v-1.72l1.6-.54v2.26h2.21v1.27h-2.21v4.07c0,.9.35,1.44,1.33,1.44a1.7,1.7,0,0,0,1.06-.36v1.36a4.07,4.07,0,0,1-1.42.18c-1.15,0-2.57-.54-2.57-2.17Z"/>
    </clipPath>
    <clipPath id="clip-path-16">
      <path class="cls-2" d="M-355.66-362.35h-1.77v-1.27h1.77v-1.72l1.68-.54v2.26h2.21v1.27H-354v4.07c0,.9.35,1.44,1.24,1.44a1.66,1.66,0,0,0,1.06-.36v1.36a3.6,3.6,0,0,1-1.33.18c-1.15,0-2.65-.54-2.65-2.17Z"/>
    </clipPath>
    <clipPath id="clip-path-17">
      <rect class="cls-1" x="-342.38" y="-365.88" width="5.75" height="10.22"/>
    </clipPath>
    <clipPath id="clip-path-18">
      <path class="cls-2" d="M-381.52-359.73a4,4,0,0,0,4.34,4.07c2.66,0,4.43-1.63,4.43-4.07s-1.77-4.07-4.43-4.07a4,4,0,0,0-4.34,4.07m1.69,0a2.56,2.56,0,0,1,2.65-2.81,2.59,2.59,0,0,1,2.75,2.81,2.61,2.61,0,0,1-2.75,2.89,2.58,2.58,0,0,1-2.65-2.89"/>
    </clipPath>
    <clipPath id="clip-path-19">
      <path class="cls-2" d="M-362.13-363.8c2.13,0,3.46.81,3.46,3.35v4.61h-1.51v-.91a3.17,3.17,0,0,1-2.56,1.09c-1.51,0-3.19-.45-3.19-2.44,0-1.63,1.77-2.54,4.07-2.54h1.6c0-1.17-.45-1.8-2.13-1.8a4.85,4.85,0,0,0-2.57.81v-1.63a5.9,5.9,0,0,1,2.83-.54m.89,4.25c-1.33,0-3,.27-3,1.45,0,.72.53,1.26,1.59,1.26s2.4-.45,2.4-2v-.63c-.36,0-.8-.09-1-.09"/>
    </clipPath>
  </defs>
  <title>kundelogoer_alle</title>
  <g>
    <path class="cls-3" d="M0,.29H9.14c6.22,0,6.62,1,6.62,6,0,5.7-.74,6.51-6.14,6.51H6.85l1.28-4h0c2.1,0,2.1,0,2.1-2.41s-.07-2.32-2.17-2.32H5.5V17H0Z"/>
    <path class="cls-3" d="M25.93,0c6.48,0,8.27.29,8.27,8.64s-1.91,8.63-8.27,8.63S17.68,17,17.68,8.64,19.47,0,25.93,0Zm0,13.37c2.58,0,2.7,0,2.7-4.73s-.12-4.74-2.7-4.74-2.68,0-2.68,4.74S23.37,13.37,25.93,13.37Z"/>
    <path class="cls-3" d="M47.55,17H36.6V.29h5.5V12.68h5.45Z"/>
    <path class="cls-3" d="M49.23,17V.29h5.5V17Z"/>
    <path class="cls-3" d="M66.88,4.59V17h-5.5V4.59H56.64V.29h15v4.3Z"/>
    <path class="cls-3" d="M73.53,17V.29H79V17Z"/>
  </g>
  <g>
    <g>
      <path class="cls-5" d="M-459.63-373.6a1,1,0,0,0-.54.09,4.29,4.29,0,0,0-.36,1c-.09-.28-.18-.64-.45-.73s-.54.36-.63.82a1.4,1.4,0,0,0,.09.9.31.31,0,0,0,.45.09.92.92,0,0,1-.81.55c-.18,0-.45-.09-.81-.09l-.53-.19c-.09,0-.18-.08-.27-.18a.67.67,0,0,1-.09-.45v-.36c.27.18.54.36.8.27a1.14,1.14,0,0,0,.54-.73c.18-.54.09-1.08-.18-1.18a.6.6,0,0,0-.8.28,3.93,3.93,0,0,1,.89-1.18h.09v-.09l-.27-.28a2.21,2.21,0,0,0,.36-1.08,2.84,2.84,0,0,1,2.43.18,1.15,1.15,0,0,1,.45,1A2.83,2.83,0,0,1-459.63-373.6Zm-4.4-.46v.37c-.18-.28-.45-.64-.81-.55s-.45.45-.54.91.18,1,.45,1.09a.74.74,0,0,0,.63,0c-.09.27-.45.81-.9.81l-.9-.09-.81-.09c-.72,0-.9-1-.9-1.18,0,0,.36.37.63.37.09.09.18.09.36,0a1.45,1.45,0,0,0,.54-.82,1.88,1.88,0,0,0,0-1l-.27-.27h-.18a1.46,1.46,0,0,0-.81.36h-.09v-.09l.18-.27a2,2,0,0,0,.27-.45c.09-.19.09-.46-.09-.55a.83.83,0,0,0-.54-.36v-.46a5,5,0,0,0,1.89-.54c.81-.27,1.53-.64,2.16-.36A1.28,1.28,0,0,1-463-376a2,2,0,0,1-.09.72,1.3,1.3,0,0,0-.63.18C-463.94-375-464-374.69-464-374.06Zm-4.58-1.81a1.45,1.45,0,0,0-.63.36.57.57,0,0,0-.09.55.9.9,0,0,0,.36.45l.09.27c.09.09,0,.09,0,.09a1.46,1.46,0,0,0-.81-.36h-.18q-.27.13-.27.27a1.26,1.26,0,0,0-.09,1c.18.36.36.73.63.82a.27.27,0,0,0,.36,0c.27,0,.54-.37.54-.37h.09c-.09.18-.27,1.18-.9,1.18l-.9.09-.9.09c-.45,0-.72-.54-.9-.81a1,1,0,0,0,.72,0c.27-.09.45-.55.36-1.09s-.27-.91-.54-.91-.63.27-.72.55a.73.73,0,0,1-.09-.37c0-.63,0-.9-.27-1a1,1,0,0,0-.63-.18,2.21,2.21,0,0,1-.08-.72,1.43,1.43,0,0,1,.71-1.27c.63-.28,1.44.09,2.25.36a5,5,0,0,0,1.89.54Zm-4.41,4.53c-.09.1-.18.18-.27.18l-.53.19c-.27,0-.63.09-.81.09a.92.92,0,0,1-.81-.55.31.31,0,0,0,.45-.09,1,1,0,0,0,.09-.9c-.09-.46-.36-.82-.63-.82a1.41,1.41,0,0,0-.45.73,2.21,2.21,0,0,0-.36-1,.67.67,0,0,0-.45-.09,3.06,3.06,0,0,1-.45-1.36,1.25,1.25,0,0,1,.54-1,2.64,2.64,0,0,1,2.34-.18,3.81,3.81,0,0,0,.36,1.08c-.09.1-.18.19-.18.28v.09a3.07,3.07,0,0,1,1,1.18c-.18-.18-.44-.46-.8-.28s-.36.64-.18,1.18a1.11,1.11,0,0,0,.45.73.89.89,0,0,0,.8-.27c0,.09.09.18.09.36A.69.69,0,0,1-473-371.34Zm14.83-1.17a1.3,1.3,0,0,0-.81-1,2.74,2.74,0,0,0,.63-1.73v-.27a1.66,1.66,0,0,0-.72-1.18,3.21,3.21,0,0,0-3-.18,1.82,1.82,0,0,0-1.61-1.45,4.53,4.53,0,0,0-2.52.73,3.06,3.06,0,0,1-1.62.63v-.36a1.49,1.49,0,0,0,1-1.36A1.35,1.35,0,0,0-467.9-380v-.55h.36c.09.18.18.27.36.27a.5.5,0,0,0,.45-.54.51.51,0,0,0-.45-.55c-.18,0-.27.1-.36.28h-.36v-.37a.69.69,0,0,0,.18-.45.5.5,0,0,0-.54-.45.42.42,0,0,0-.44.45c0,.18,0,.36.18.45v.37h-.36a.5.5,0,0,0-.45-.28.51.51,0,0,0-.45.55.5.5,0,0,0,.45.54.49.49,0,0,0,.45-.27h.27v.55a1.35,1.35,0,0,0-1.08,1.36,1.45,1.45,0,0,0,1.08,1.36v.36a3.07,3.07,0,0,1-1.71-.63,4.23,4.23,0,0,0-2.43-.73,1.72,1.72,0,0,0-1.61,1.45,3.2,3.2,0,0,0-3,.18,1.79,1.79,0,0,0-.81,1.18v.27a2.74,2.74,0,0,0,.63,1.73,1.2,1.2,0,0,0-.72,1l-.09.09h.09s1.53.18,1.89.63a2.33,2.33,0,0,1,.54,1.27v.09a1.27,1.27,0,0,0,.45.27h.18v.18l.09,2.45h13.65l.09-2.45v-.18h.27c.18-.09.45-.27.45-.27v-.09a2.33,2.33,0,0,1,.54-1.27c.36-.45,1.8-.63,1.8-.63h.09Z"/>
      <g class="cls-6">
        <rect class="cls-3" x="-498.05" y="-394.13" width="1534.5" height="3050.89"/>
      </g>
    </g>
    <g>
      <g>
        <polygon class="cls-5" points="-395.77 -367.24 -395.77 -355.84 -394.17 -355.84 -394.17 -359.73 -390.37 -355.84 -388.15 -355.84 -392.58 -360.18 -388.6 -363.62 -390.81 -363.62 -394.17 -360.55 -394.17 -367.24 -395.77 -367.24"/>
        <g class="cls-7">
          <rect class="cls-3" x="-500.12" y="-394.13" width="1534.5" height="3050.89"/>
        </g>
      </g>
      <g>
        <rect class="cls-3" x="-414.71" y="-366.97" width="1.77" height="1.72"/>
        <g class="cls-8">
          <rect class="cls-3" x="-500.12" y="-394.13" width="1534.5" height="3050.89"/>
        </g>
      </g>
      <g>
        <rect class="cls-3" x="-428.7" y="-366.97" width="1.86" height="1.72"/>
        <g class="cls-9">
          <rect class="cls-3" x="-500.12" y="-394.13" width="1534.5" height="3050.89"/>
        </g>
      </g>
      <g>
        <polygon class="cls-5" points="-439.68 -366.43 -443.31 -357.2 -443.4 -357.2 -447.03 -366.43 -448.97 -366.43 -444.55 -355.84 -442.33 -355.84 -437.91 -366.43 -439.68 -366.43"/>
        <g class="cls-10">
          <rect class="cls-3" x="-500.12" y="-394.13" width="1534.5" height="3050.89"/>
        </g>
      </g>
      <g>
        <rect class="cls-3" x="-414.62" y="-363.62" width="1.59" height="7.78"/>
        <g class="cls-11">
          <rect class="cls-3" x="-500.12" y="-394.13" width="1534.5" height="3050.89"/>
        </g>
      </g>
      <g>
        <path class="cls-5" d="M-432.24-360.45h-4.34a2.19,2.19,0,0,1,2.22-2.09,2.06,2.06,0,0,1,2.12,2.09m-4.34,1.08h6.11c0-2.17-.8-4.43-3.81-4.43a3.79,3.79,0,0,0-4.07,4c0,2.71,1.68,4.16,4.43,4.16a8.07,8.07,0,0,0,2.74-.45v-1.63a5.34,5.34,0,0,1-2.66.72,2.49,2.49,0,0,1-2.74-2.35"/>
        <g class="cls-12">
          <rect class="cls-3" x="-500.12" y="-394.13" width="1534.5" height="3050.89"/>
        </g>
      </g>
      <g>
        <path class="cls-5" d="M-399.22-360.45h-4.34a2.19,2.19,0,0,1,2.22-2.09,2.06,2.06,0,0,1,2.12,2.09m-4.34,1.08h6c0-2.17-.71-4.43-3.72-4.43a3.79,3.79,0,0,0-4.07,4c0,2.71,1.68,4.16,4.43,4.16a8.55,8.55,0,0,0,2.74-.45v-1.63a5.33,5.33,0,0,1-2.65.72,2.5,2.5,0,0,1-2.75-2.35"/>
        <g class="cls-13">
          <rect class="cls-3" x="-500.12" y="-394.13" width="1534.5" height="3050.89"/>
        </g>
      </g>
      <g>
        <path class="cls-5" d="M-344.77-360.45H-349a2.19,2.19,0,0,1,2.21-2.09,2,2,0,0,1,2,2.09m-4.25,1.08h6c0-2.17-.71-4.43-3.81-4.43a3.76,3.76,0,0,0-4,4c0,2.71,1.68,4.16,4.42,4.16a8.62,8.62,0,0,0,2.75-.45v-1.63a5.39,5.39,0,0,1-2.66.72,2.49,2.49,0,0,1-2.74-2.35"/>
        <g class="cls-14">
          <rect class="cls-3" x="-500.12" y="-394.13" width="1534.5" height="3050.89"/>
        </g>
      </g>
      <g>
        <path class="cls-5" d="M-428.61-363.62H-427v8.05c0,2.53-1,3.07-2.48,3.07h-1l.09-1.35a1.68,1.68,0,0,0,.62.09c.62,0,1.15-.27,1.15-1.63Z"/>
        <g class="cls-15">
          <rect class="cls-3" x="-500.12" y="-394.13" width="1534.5" height="3050.89"/>
        </g>
      </g>
      <g>
        <path class="cls-5" d="M-418.79-362.63v-4.61h1.6v11.4h-1.51v-1a3.68,3.68,0,0,1-2.92,1.18c-2.3,0-3.72-1.72-3.72-4.16s1.51-4,3.72-4a3.19,3.19,0,0,1,2.83,1.17m-2.47.09c-1.42,0-2.39,1-2.39,2.72s.88,3,2.39,3a2.6,2.6,0,0,0,2.47-2.89,2.58,2.58,0,0,0-2.47-2.81"/>
        <g class="cls-16">
          <rect class="cls-3" x="-500.12" y="-394.13" width="1534.5" height="3050.89"/>
        </g>
      </g>
      <g>
        <path class="cls-5" d="M-408.87-355.84h-1.68v-7.78H-409v1.18a2.54,2.54,0,0,1,2.22-1.36c.44,0,.79.09,1.06.09v1.45a1.45,1.45,0,0,0-.89-.18c-1.24,0-2.3.81-2.3,3.16Z"/>
        <g class="cls-17">
          <rect class="cls-3" x="-500.12" y="-394.13" width="1534.5" height="3050.89"/>
        </g>
      </g>
      <g>
        <path class="cls-5" d="M-369.56-355.84h-1.6v-7.78h1.51v1.18a2.54,2.54,0,0,1,2.21-1.36c.45,0,.89.09,1.06.09v1.45a1.29,1.29,0,0,0-.88-.18c-1.24,0-2.3.81-2.3,3.16Z"/>
        <g class="cls-18">
          <rect class="cls-3" x="-500.12" y="-394.13" width="1534.5" height="3050.89"/>
        </g>
      </g>
      <g>
        <path class="cls-5" d="M-386.21-362.35h-1.85v-1.27h1.85v-1.72l1.6-.54v2.26h2.21v1.27h-2.21v4.07c0,.9.35,1.44,1.33,1.44a1.7,1.7,0,0,0,1.06-.36v1.36a4.07,4.07,0,0,1-1.42.18c-1.15,0-2.57-.54-2.57-2.17Z"/>
        <g class="cls-19">
          <rect class="cls-3" x="-500.12" y="-394.13" width="1534.5" height="3050.89"/>
        </g>
      </g>
      <g>
        <path class="cls-5" d="M-355.66-362.35h-1.77v-1.27h1.77v-1.72l1.68-.54v2.26h2.21v1.27H-354v4.07c0,.9.35,1.44,1.24,1.44a1.66,1.66,0,0,0,1.06-.36v1.36a3.6,3.6,0,0,1-1.33.18c-1.15,0-2.65-.54-2.65-2.17Z"/>
        <g class="cls-20">
          <rect class="cls-3" x="-500.12" y="-394.13" width="1534.5" height="3050.89"/>
        </g>
      </g>
      <g>
        <path class="cls-5" d="M-381.52-359.73a4,4,0,0,0,4.34,4.07c2.66,0,4.43-1.63,4.43-4.07s-1.77-4.07-4.43-4.07a4,4,0,0,0-4.34,4.07m1.69,0a2.56,2.56,0,0,1,2.65-2.81,2.59,2.59,0,0,1,2.75,2.81,2.61,2.61,0,0,1-2.75,2.89,2.58,2.58,0,0,1-2.65-2.89"/>
        <g class="cls-22">
          <rect class="cls-3" x="-500.12" y="-394.13" width="1534.5" height="3050.89"/>
        </g>
      </g>
      <g>
        <path class="cls-5" d="M-362.13-363.8c2.13,0,3.46.81,3.46,3.35v4.61h-1.51v-.91a3.17,3.17,0,0,1-2.56,1.09c-1.51,0-3.19-.45-3.19-2.44,0-1.63,1.77-2.54,4.07-2.54h1.6c0-1.17-.45-1.8-2.13-1.8a4.85,4.85,0,0,0-2.57.81v-1.63a5.9,5.9,0,0,1,2.83-.54m.89,4.25c-1.33,0-3,.27-3,1.45,0,.72.53,1.26,1.59,1.26s2.4-.45,2.4-2v-.63c-.36,0-.8-.09-1-.09"/>
        <g class="cls-23">
          <rect class="cls-3" x="-500.12" y="-394.13" width="1534.5" height="3050.89"/>
        </g>
      </g>
    </g>
  </g>
</svg>
